G04 #@! TF.GenerationSoftware,KiCad,Pcbnew,5.0.2+dfsg1-1*
G04 #@! TF.CreationDate,2020-11-21T16:05:11+01:00*
G04 #@! TF.ProjectId,reverb,72657665-7262-42e6-9b69-6361645f7063,rev?*
G04 #@! TF.SameCoordinates,Original*
G04 #@! TF.FileFunction,Soldermask,Bot*
G04 #@! TF.FilePolarity,Negative*
%FSLAX46Y46*%
G04 Gerber Fmt 4.6, Leading zero omitted, Abs format (unit mm)*
G04 Created by KiCad (PCBNEW 5.0.2+dfsg1-1) date Sat 21 Nov 2020 04:05:11 PM CET*
%MOMM*%
%LPD*%
G01*
G04 APERTURE LIST*
%ADD10C,0.100000*%
G04 APERTURE END LIST*
D10*
G36*
X145808710Y-83815070D02*
X146500447Y-84101597D01*
X147122999Y-84517573D01*
X147652427Y-85047001D01*
X148068403Y-85669553D01*
X148354930Y-86361290D01*
X148501000Y-87095633D01*
X148501000Y-87844367D01*
X148354930Y-88578710D01*
X148068403Y-89270447D01*
X147652427Y-89892999D01*
X147122999Y-90422427D01*
X146500447Y-90838403D01*
X145808710Y-91124930D01*
X145074367Y-91271000D01*
X144325633Y-91271000D01*
X143591290Y-91124930D01*
X142899553Y-90838403D01*
X142277001Y-90422427D01*
X141747573Y-89892999D01*
X141331597Y-89270447D01*
X141045070Y-88578710D01*
X140899000Y-87844367D01*
X140899000Y-87095633D01*
X141045070Y-86361290D01*
X141331597Y-85669553D01*
X141747573Y-85047001D01*
X142277001Y-84517573D01*
X142899553Y-84101597D01*
X143591290Y-83815070D01*
X144325633Y-83669000D01*
X145074367Y-83669000D01*
X145808710Y-83815070D01*
X145808710Y-83815070D01*
G37*
G36*
X166128710Y-76195070D02*
X166820447Y-76481597D01*
X167442999Y-76897573D01*
X167972427Y-77427001D01*
X168388403Y-78049553D01*
X168674930Y-78741290D01*
X168821000Y-79475633D01*
X168821000Y-80224367D01*
X168674930Y-80958710D01*
X168388403Y-81650447D01*
X167972427Y-82272999D01*
X167442999Y-82802427D01*
X166820447Y-83218403D01*
X166128710Y-83504930D01*
X165394367Y-83651000D01*
X164645633Y-83651000D01*
X163911290Y-83504930D01*
X163219553Y-83218403D01*
X162597001Y-82802427D01*
X162067573Y-82272999D01*
X161651597Y-81650447D01*
X161365070Y-80958710D01*
X161219000Y-80224367D01*
X161219000Y-79475633D01*
X161365070Y-78741290D01*
X161651597Y-78049553D01*
X162067573Y-77427001D01*
X162597001Y-76897573D01*
X163219553Y-76481597D01*
X163911290Y-76195070D01*
X164645633Y-76049000D01*
X165394367Y-76049000D01*
X166128710Y-76195070D01*
X166128710Y-76195070D01*
G37*
G36*
X188033665Y-80532622D02*
X188107222Y-80539867D01*
X188248786Y-80582810D01*
X188379252Y-80652546D01*
X188493606Y-80746394D01*
X188587454Y-80860748D01*
X188657190Y-80991214D01*
X188700133Y-81132778D01*
X188714633Y-81280000D01*
X188700133Y-81427222D01*
X188657190Y-81568786D01*
X188587454Y-81699252D01*
X188493606Y-81813606D01*
X188379252Y-81907454D01*
X188248786Y-81977190D01*
X188107222Y-82020133D01*
X188033665Y-82027378D01*
X187996888Y-82031000D01*
X187923112Y-82031000D01*
X187886335Y-82027378D01*
X187812778Y-82020133D01*
X187671214Y-81977190D01*
X187540748Y-81907454D01*
X187426394Y-81813606D01*
X187332546Y-81699252D01*
X187262810Y-81568786D01*
X187219867Y-81427222D01*
X187205367Y-81280000D01*
X187219867Y-81132778D01*
X187262810Y-80991214D01*
X187332546Y-80860748D01*
X187426394Y-80746394D01*
X187540748Y-80652546D01*
X187671214Y-80582810D01*
X187812778Y-80539867D01*
X187886335Y-80532622D01*
X187923112Y-80529000D01*
X187996888Y-80529000D01*
X188033665Y-80532622D01*
X188033665Y-80532622D01*
G37*
G36*
X183008600Y-80539867D02*
X183099059Y-80557860D01*
X183235732Y-80614472D01*
X183292715Y-80652547D01*
X183358738Y-80696662D01*
X183463338Y-80801262D01*
X183463340Y-80801265D01*
X183545528Y-80924268D01*
X183602140Y-81060941D01*
X183631000Y-81206033D01*
X183631000Y-81353967D01*
X183602140Y-81499059D01*
X183545528Y-81635732D01*
X183464446Y-81757079D01*
X183463338Y-81758738D01*
X183358738Y-81863338D01*
X183358735Y-81863340D01*
X183235732Y-81945528D01*
X183099059Y-82002140D01*
X183012004Y-82019456D01*
X182953969Y-82031000D01*
X182806031Y-82031000D01*
X182747996Y-82019456D01*
X182660941Y-82002140D01*
X182524268Y-81945528D01*
X182401265Y-81863340D01*
X182401262Y-81863338D01*
X182296662Y-81758738D01*
X182295554Y-81757079D01*
X182214472Y-81635732D01*
X182157860Y-81499059D01*
X182129000Y-81353967D01*
X182129000Y-81206033D01*
X182157860Y-81060941D01*
X182214472Y-80924268D01*
X182296660Y-80801265D01*
X182296662Y-80801262D01*
X182401262Y-80696662D01*
X182467285Y-80652547D01*
X182524268Y-80614472D01*
X182660941Y-80557860D01*
X182751400Y-80539867D01*
X182806031Y-80529000D01*
X182953969Y-80529000D01*
X183008600Y-80539867D01*
X183008600Y-80539867D01*
G37*
G36*
X149898017Y-76264467D02*
X150056153Y-76295922D01*
X150148194Y-76334047D01*
X150278359Y-76387963D01*
X150478345Y-76521589D01*
X150648411Y-76691655D01*
X150782037Y-76891641D01*
X150834017Y-77017132D01*
X150874078Y-77113847D01*
X150881081Y-77149053D01*
X150921000Y-77349741D01*
X150921000Y-77590259D01*
X150897539Y-77708205D01*
X150874078Y-77826153D01*
X150847941Y-77889252D01*
X150782037Y-78048359D01*
X150648411Y-78248345D01*
X150478345Y-78418411D01*
X150278359Y-78552037D01*
X150148194Y-78605953D01*
X150056153Y-78644078D01*
X149938205Y-78667539D01*
X149820259Y-78691000D01*
X149579741Y-78691000D01*
X149343847Y-78644078D01*
X149251806Y-78605953D01*
X149121641Y-78552037D01*
X148921655Y-78418411D01*
X148751589Y-78248345D01*
X148617963Y-78048359D01*
X148552059Y-77889252D01*
X148525922Y-77826153D01*
X148479000Y-77590259D01*
X148479000Y-77349741D01*
X148518919Y-77149053D01*
X148525922Y-77113847D01*
X148565983Y-77017132D01*
X148617963Y-76891641D01*
X148751589Y-76691655D01*
X148921655Y-76521589D01*
X149121641Y-76387963D01*
X149251806Y-76334047D01*
X149343847Y-76295922D01*
X149501983Y-76264467D01*
X149579741Y-76249000D01*
X149820259Y-76249000D01*
X149898017Y-76264467D01*
X149898017Y-76264467D01*
G37*
G36*
X139898017Y-76264467D02*
X140056153Y-76295922D01*
X140148194Y-76334047D01*
X140278359Y-76387963D01*
X140478345Y-76521589D01*
X140648411Y-76691655D01*
X140782037Y-76891641D01*
X140834017Y-77017132D01*
X140874078Y-77113847D01*
X140881081Y-77149053D01*
X140921000Y-77349741D01*
X140921000Y-77590259D01*
X140897539Y-77708205D01*
X140874078Y-77826153D01*
X140847941Y-77889252D01*
X140782037Y-78048359D01*
X140648411Y-78248345D01*
X140478345Y-78418411D01*
X140278359Y-78552037D01*
X140148194Y-78605953D01*
X140056153Y-78644078D01*
X139820259Y-78691000D01*
X139579741Y-78691000D01*
X139343847Y-78644078D01*
X139251806Y-78605953D01*
X139121641Y-78552037D01*
X138921655Y-78418411D01*
X138751589Y-78248345D01*
X138617963Y-78048359D01*
X138552059Y-77889252D01*
X138525922Y-77826153D01*
X138479000Y-77590259D01*
X138479000Y-77349741D01*
X138518919Y-77149053D01*
X138525922Y-77113847D01*
X138565983Y-77017132D01*
X138617963Y-76891641D01*
X138751589Y-76691655D01*
X138921655Y-76521589D01*
X139121641Y-76387963D01*
X139251806Y-76334047D01*
X139343847Y-76295922D01*
X139501983Y-76264467D01*
X139579741Y-76249000D01*
X139820259Y-76249000D01*
X139898017Y-76264467D01*
X139898017Y-76264467D01*
G37*
G36*
X144898017Y-76264467D02*
X145056153Y-76295922D01*
X145148194Y-76334047D01*
X145278359Y-76387963D01*
X145478345Y-76521589D01*
X145648411Y-76691655D01*
X145782037Y-76891641D01*
X145834017Y-77017132D01*
X145874078Y-77113847D01*
X145881081Y-77149053D01*
X145921000Y-77349741D01*
X145921000Y-77590259D01*
X145897539Y-77708205D01*
X145874078Y-77826153D01*
X145847941Y-77889252D01*
X145782037Y-78048359D01*
X145648411Y-78248345D01*
X145478345Y-78418411D01*
X145278359Y-78552037D01*
X145148194Y-78605953D01*
X145056153Y-78644078D01*
X144938205Y-78667539D01*
X144820259Y-78691000D01*
X144579741Y-78691000D01*
X144343847Y-78644078D01*
X144251806Y-78605953D01*
X144121641Y-78552037D01*
X143921655Y-78418411D01*
X143751589Y-78248345D01*
X143617963Y-78048359D01*
X143552059Y-77889252D01*
X143525922Y-77826153D01*
X143479000Y-77590259D01*
X143479000Y-77349741D01*
X143518919Y-77149053D01*
X143525922Y-77113847D01*
X143565983Y-77017132D01*
X143617963Y-76891641D01*
X143751589Y-76691655D01*
X143921655Y-76521589D01*
X144121641Y-76387963D01*
X144251806Y-76334047D01*
X144343847Y-76295922D01*
X144501983Y-76264467D01*
X144579741Y-76249000D01*
X144820259Y-76249000D01*
X144898017Y-76264467D01*
X144898017Y-76264467D01*
G37*
G36*
X172793665Y-76722622D02*
X172867222Y-76729867D01*
X173008786Y-76772810D01*
X173139252Y-76842546D01*
X173253606Y-76936394D01*
X173347454Y-77050748D01*
X173417190Y-77181214D01*
X173460133Y-77322778D01*
X173474633Y-77470000D01*
X173460133Y-77617222D01*
X173417190Y-77758786D01*
X173347454Y-77889252D01*
X173253606Y-78003606D01*
X173139252Y-78097454D01*
X173008786Y-78167190D01*
X172867222Y-78210133D01*
X172793665Y-78217378D01*
X172756888Y-78221000D01*
X172683112Y-78221000D01*
X172646335Y-78217378D01*
X172572778Y-78210133D01*
X172431214Y-78167190D01*
X172300748Y-78097454D01*
X172186394Y-78003606D01*
X172092546Y-77889252D01*
X172022810Y-77758786D01*
X171979867Y-77617222D01*
X171965367Y-77470000D01*
X171979867Y-77322778D01*
X172022810Y-77181214D01*
X172092546Y-77050748D01*
X172186394Y-76936394D01*
X172300748Y-76842546D01*
X172431214Y-76772810D01*
X172572778Y-76729867D01*
X172646335Y-76722622D01*
X172683112Y-76719000D01*
X172756888Y-76719000D01*
X172793665Y-76722622D01*
X172793665Y-76722622D01*
G37*
G36*
X177928600Y-76729867D02*
X178019059Y-76747860D01*
X178155732Y-76804472D01*
X178212715Y-76842547D01*
X178278738Y-76886662D01*
X178383338Y-76991262D01*
X178383340Y-76991265D01*
X178465528Y-77114268D01*
X178522140Y-77250941D01*
X178551000Y-77396033D01*
X178551000Y-77543967D01*
X178522140Y-77689059D01*
X178465528Y-77825732D01*
X178384446Y-77947079D01*
X178383338Y-77948738D01*
X178278738Y-78053338D01*
X178278735Y-78053340D01*
X178155732Y-78135528D01*
X178019059Y-78192140D01*
X177932004Y-78209456D01*
X177873969Y-78221000D01*
X177726031Y-78221000D01*
X177667996Y-78209456D01*
X177580941Y-78192140D01*
X177444268Y-78135528D01*
X177321265Y-78053340D01*
X177321262Y-78053338D01*
X177216662Y-77948738D01*
X177215554Y-77947079D01*
X177134472Y-77825732D01*
X177077860Y-77689059D01*
X177049000Y-77543967D01*
X177049000Y-77396033D01*
X177077860Y-77250941D01*
X177134472Y-77114268D01*
X177216660Y-76991265D01*
X177216662Y-76991262D01*
X177321262Y-76886662D01*
X177387285Y-76842547D01*
X177444268Y-76804472D01*
X177580941Y-76747860D01*
X177671400Y-76729867D01*
X177726031Y-76719000D01*
X177873969Y-76719000D01*
X177928600Y-76729867D01*
X177928600Y-76729867D01*
G37*
G36*
X189303665Y-76722622D02*
X189377222Y-76729867D01*
X189518786Y-76772810D01*
X189649252Y-76842546D01*
X189763606Y-76936394D01*
X189857454Y-77050748D01*
X189927190Y-77181214D01*
X189970133Y-77322778D01*
X189984633Y-77470000D01*
X189970133Y-77617222D01*
X189927190Y-77758786D01*
X189857454Y-77889252D01*
X189763606Y-78003606D01*
X189649252Y-78097454D01*
X189518786Y-78167190D01*
X189377222Y-78210133D01*
X189303665Y-78217378D01*
X189266888Y-78221000D01*
X189193112Y-78221000D01*
X189156335Y-78217378D01*
X189082778Y-78210133D01*
X188941214Y-78167190D01*
X188810748Y-78097454D01*
X188696394Y-78003606D01*
X188602546Y-77889252D01*
X188532810Y-77758786D01*
X188489867Y-77617222D01*
X188475367Y-77470000D01*
X188489867Y-77322778D01*
X188532810Y-77181214D01*
X188602546Y-77050748D01*
X188696394Y-76936394D01*
X188810748Y-76842546D01*
X188941214Y-76772810D01*
X189082778Y-76729867D01*
X189156335Y-76722622D01*
X189193112Y-76719000D01*
X189266888Y-76719000D01*
X189303665Y-76722622D01*
X189303665Y-76722622D01*
G37*
G36*
X183681000Y-75506000D02*
X183516664Y-75506000D01*
X183492278Y-75508402D01*
X183468829Y-75515515D01*
X183447218Y-75527066D01*
X183428276Y-75542612D01*
X183412730Y-75561554D01*
X183401179Y-75583165D01*
X183394066Y-75606614D01*
X183391664Y-75631000D01*
X183394066Y-75655386D01*
X183401179Y-75678835D01*
X183412730Y-75700446D01*
X183437365Y-75727626D01*
X183514264Y-75790736D01*
X183586244Y-75878443D01*
X183639729Y-75978508D01*
X183672666Y-76087084D01*
X183683787Y-76200000D01*
X183672666Y-76312916D01*
X183639729Y-76421492D01*
X183639726Y-76421497D01*
X183586244Y-76521557D01*
X183514264Y-76609264D01*
X183426557Y-76681244D01*
X183345143Y-76724760D01*
X183324768Y-76738373D01*
X183307441Y-76755701D01*
X183293827Y-76776075D01*
X183284450Y-76798714D01*
X183279669Y-76822747D01*
X183279669Y-76847252D01*
X183284449Y-76871285D01*
X183293827Y-76893924D01*
X183307440Y-76914299D01*
X183324768Y-76931626D01*
X183345143Y-76945240D01*
X183426557Y-76988756D01*
X183514264Y-77060736D01*
X183586244Y-77148443D01*
X183639729Y-77248508D01*
X183672666Y-77357084D01*
X183683787Y-77470000D01*
X183672666Y-77582916D01*
X183639729Y-77691492D01*
X183586244Y-77791557D01*
X183514264Y-77879264D01*
X183426557Y-77951244D01*
X183326492Y-78004729D01*
X183217916Y-78037666D01*
X183133298Y-78046000D01*
X182626702Y-78046000D01*
X182542084Y-78037666D01*
X182433508Y-78004729D01*
X182333443Y-77951244D01*
X182245736Y-77879264D01*
X182173756Y-77791557D01*
X182120271Y-77691492D01*
X182087334Y-77582916D01*
X182076213Y-77470000D01*
X182087334Y-77357084D01*
X182120271Y-77248508D01*
X182173756Y-77148443D01*
X182245736Y-77060736D01*
X182333443Y-76988756D01*
X182414857Y-76945240D01*
X182435232Y-76931627D01*
X182452559Y-76914299D01*
X182466173Y-76893925D01*
X182475550Y-76871286D01*
X182480331Y-76847253D01*
X182480331Y-76822748D01*
X182475551Y-76798715D01*
X182466173Y-76776076D01*
X182452560Y-76755701D01*
X182435232Y-76738374D01*
X182414857Y-76724760D01*
X182333443Y-76681244D01*
X182245736Y-76609264D01*
X182173756Y-76521557D01*
X182120274Y-76421497D01*
X182120271Y-76421492D01*
X182087334Y-76312916D01*
X182076213Y-76200000D01*
X182087334Y-76087084D01*
X182120271Y-75978508D01*
X182173756Y-75878443D01*
X182245736Y-75790736D01*
X182322635Y-75727626D01*
X182339962Y-75710299D01*
X182353576Y-75689924D01*
X182362954Y-75667285D01*
X182367734Y-75643252D01*
X182367734Y-75618748D01*
X182362953Y-75594714D01*
X182353576Y-75572075D01*
X182339962Y-75551701D01*
X182322635Y-75534374D01*
X182302260Y-75520760D01*
X182279621Y-75511382D01*
X182243336Y-75506000D01*
X182079000Y-75506000D01*
X182079000Y-74354000D01*
X183681000Y-74354000D01*
X183681000Y-75506000D01*
X183681000Y-75506000D01*
G37*
G36*
X130147139Y-75665229D02*
X130302011Y-75729379D01*
X130441392Y-75822511D01*
X130559926Y-75941045D01*
X130653058Y-76080426D01*
X130717208Y-76235298D01*
X130749911Y-76399710D01*
X130749911Y-76567342D01*
X130717208Y-76731754D01*
X130653058Y-76886626D01*
X130559926Y-77026007D01*
X130441392Y-77144541D01*
X130302011Y-77237673D01*
X130147139Y-77301823D01*
X129982727Y-77334526D01*
X129815095Y-77334526D01*
X129650683Y-77301823D01*
X129495811Y-77237673D01*
X129356430Y-77144541D01*
X129237896Y-77026007D01*
X129144764Y-76886626D01*
X129080614Y-76731754D01*
X129047911Y-76567342D01*
X129047911Y-76399710D01*
X129080614Y-76235298D01*
X129144764Y-76080426D01*
X129237896Y-75941045D01*
X129356430Y-75822511D01*
X129495811Y-75729379D01*
X129650683Y-75665229D01*
X129815095Y-75632526D01*
X129982727Y-75632526D01*
X130147139Y-75665229D01*
X130147139Y-75665229D01*
G37*
G36*
X132647139Y-75665229D02*
X132802011Y-75729379D01*
X132941392Y-75822511D01*
X133059926Y-75941045D01*
X133153058Y-76080426D01*
X133217208Y-76235298D01*
X133249911Y-76399710D01*
X133249911Y-76567342D01*
X133217208Y-76731754D01*
X133153058Y-76886626D01*
X133059926Y-77026007D01*
X132941392Y-77144541D01*
X132802011Y-77237673D01*
X132647139Y-77301823D01*
X132482727Y-77334526D01*
X132315095Y-77334526D01*
X132150683Y-77301823D01*
X131995811Y-77237673D01*
X131856430Y-77144541D01*
X131737896Y-77026007D01*
X131644764Y-76886626D01*
X131580614Y-76731754D01*
X131547911Y-76567342D01*
X131547911Y-76399710D01*
X131580614Y-76235298D01*
X131644764Y-76080426D01*
X131737896Y-75941045D01*
X131856430Y-75822511D01*
X131995811Y-75729379D01*
X132150683Y-75665229D01*
X132315095Y-75632526D01*
X132482727Y-75632526D01*
X132647139Y-75665229D01*
X132647139Y-75665229D01*
G37*
G36*
X119453665Y-75736148D02*
X119527222Y-75743393D01*
X119668786Y-75786336D01*
X119799252Y-75856072D01*
X119913606Y-75949920D01*
X120007454Y-76064274D01*
X120077190Y-76194740D01*
X120120133Y-76336304D01*
X120134633Y-76483526D01*
X120120133Y-76630748D01*
X120077190Y-76772312D01*
X120007454Y-76902778D01*
X119913606Y-77017132D01*
X119799252Y-77110980D01*
X119668786Y-77180716D01*
X119527222Y-77223659D01*
X119453665Y-77230904D01*
X119416888Y-77234526D01*
X119343112Y-77234526D01*
X119306335Y-77230904D01*
X119232778Y-77223659D01*
X119091214Y-77180716D01*
X118960748Y-77110980D01*
X118846394Y-77017132D01*
X118752546Y-76902778D01*
X118682810Y-76772312D01*
X118639867Y-76630748D01*
X118625367Y-76483526D01*
X118639867Y-76336304D01*
X118682810Y-76194740D01*
X118752546Y-76064274D01*
X118846394Y-75949920D01*
X118960748Y-75856072D01*
X119091214Y-75786336D01*
X119232778Y-75743393D01*
X119306335Y-75736148D01*
X119343112Y-75732526D01*
X119416888Y-75732526D01*
X119453665Y-75736148D01*
X119453665Y-75736148D01*
G37*
G36*
X124588600Y-75743393D02*
X124679059Y-75761386D01*
X124815732Y-75817998D01*
X124872715Y-75856073D01*
X124938738Y-75900188D01*
X125043338Y-76004788D01*
X125043340Y-76004791D01*
X125125528Y-76127794D01*
X125182140Y-76264467D01*
X125191776Y-76312912D01*
X125206705Y-76387963D01*
X125211000Y-76409559D01*
X125211000Y-76557493D01*
X125182140Y-76702585D01*
X125125528Y-76839258D01*
X125075387Y-76914299D01*
X125043338Y-76962264D01*
X124938738Y-77066864D01*
X124938735Y-77066866D01*
X124815732Y-77149054D01*
X124679059Y-77205666D01*
X124592004Y-77222982D01*
X124533969Y-77234526D01*
X124386031Y-77234526D01*
X124327996Y-77222982D01*
X124240941Y-77205666D01*
X124104268Y-77149054D01*
X123981265Y-77066866D01*
X123981262Y-77066864D01*
X123876662Y-76962264D01*
X123844613Y-76914299D01*
X123794472Y-76839258D01*
X123737860Y-76702585D01*
X123709000Y-76557493D01*
X123709000Y-76409559D01*
X123713296Y-76387963D01*
X123728224Y-76312912D01*
X123737860Y-76264467D01*
X123794472Y-76127794D01*
X123876660Y-76004791D01*
X123876662Y-76004788D01*
X123981262Y-75900188D01*
X124047285Y-75856073D01*
X124104268Y-75817998D01*
X124240941Y-75761386D01*
X124331400Y-75743393D01*
X124386031Y-75732526D01*
X124533969Y-75732526D01*
X124588600Y-75743393D01*
X124588600Y-75743393D01*
G37*
G36*
X177873665Y-72912622D02*
X177947222Y-72919867D01*
X178088786Y-72962810D01*
X178219252Y-73032546D01*
X178333606Y-73126394D01*
X178427454Y-73240748D01*
X178497190Y-73371214D01*
X178540133Y-73512778D01*
X178554633Y-73660000D01*
X178540133Y-73807222D01*
X178497190Y-73948786D01*
X178427454Y-74079252D01*
X178333606Y-74193606D01*
X178219252Y-74287454D01*
X178088786Y-74357190D01*
X177947222Y-74400133D01*
X177873665Y-74407378D01*
X177836888Y-74411000D01*
X177763112Y-74411000D01*
X177726335Y-74407378D01*
X177652778Y-74400133D01*
X177511214Y-74357190D01*
X177380748Y-74287454D01*
X177266394Y-74193606D01*
X177172546Y-74079252D01*
X177102810Y-73948786D01*
X177059867Y-73807222D01*
X177045367Y-73660000D01*
X177059867Y-73512778D01*
X177102810Y-73371214D01*
X177172546Y-73240748D01*
X177266394Y-73126394D01*
X177380748Y-73032546D01*
X177511214Y-72962810D01*
X177652778Y-72919867D01*
X177726335Y-72912622D01*
X177763112Y-72909000D01*
X177836888Y-72909000D01*
X177873665Y-72912622D01*
X177873665Y-72912622D01*
G37*
G36*
X143583665Y-72912622D02*
X143657222Y-72919867D01*
X143798786Y-72962810D01*
X143929252Y-73032546D01*
X144043606Y-73126394D01*
X144137454Y-73240748D01*
X144207190Y-73371214D01*
X144250133Y-73512778D01*
X144264633Y-73660000D01*
X144250133Y-73807222D01*
X144207190Y-73948786D01*
X144137454Y-74079252D01*
X144043606Y-74193606D01*
X143929252Y-74287454D01*
X143798786Y-74357190D01*
X143657222Y-74400133D01*
X143583665Y-74407378D01*
X143546888Y-74411000D01*
X143473112Y-74411000D01*
X143436335Y-74407378D01*
X143362778Y-74400133D01*
X143221214Y-74357190D01*
X143090748Y-74287454D01*
X142976394Y-74193606D01*
X142882546Y-74079252D01*
X142812810Y-73948786D01*
X142769867Y-73807222D01*
X142755367Y-73660000D01*
X142769867Y-73512778D01*
X142812810Y-73371214D01*
X142882546Y-73240748D01*
X142976394Y-73126394D01*
X143090748Y-73032546D01*
X143221214Y-72962810D01*
X143362778Y-72919867D01*
X143436335Y-72912622D01*
X143473112Y-72909000D01*
X143546888Y-72909000D01*
X143583665Y-72912622D01*
X143583665Y-72912622D01*
G37*
G36*
X172848600Y-72919867D02*
X172939059Y-72937860D01*
X173075732Y-72994472D01*
X173132715Y-73032547D01*
X173198738Y-73076662D01*
X173303338Y-73181262D01*
X173303340Y-73181265D01*
X173385528Y-73304268D01*
X173442140Y-73440941D01*
X173471000Y-73586033D01*
X173471000Y-73733967D01*
X173442140Y-73879059D01*
X173385528Y-74015732D01*
X173304446Y-74137079D01*
X173303338Y-74138738D01*
X173198738Y-74243338D01*
X173198735Y-74243340D01*
X173075732Y-74325528D01*
X172939059Y-74382140D01*
X172852004Y-74399456D01*
X172793969Y-74411000D01*
X172646031Y-74411000D01*
X172587996Y-74399456D01*
X172500941Y-74382140D01*
X172364268Y-74325528D01*
X172241265Y-74243340D01*
X172241262Y-74243338D01*
X172136662Y-74138738D01*
X172135554Y-74137079D01*
X172054472Y-74015732D01*
X171997860Y-73879059D01*
X171969000Y-73733967D01*
X171969000Y-73586033D01*
X171997860Y-73440941D01*
X172054472Y-73304268D01*
X172136660Y-73181265D01*
X172136662Y-73181262D01*
X172241262Y-73076662D01*
X172307285Y-73032547D01*
X172364268Y-72994472D01*
X172500941Y-72937860D01*
X172591400Y-72919867D01*
X172646031Y-72909000D01*
X172793969Y-72909000D01*
X172848600Y-72919867D01*
X172848600Y-72919867D01*
G37*
G36*
X138558600Y-72919867D02*
X138649059Y-72937860D01*
X138785732Y-72994472D01*
X138842715Y-73032547D01*
X138908738Y-73076662D01*
X139013338Y-73181262D01*
X139013340Y-73181265D01*
X139095528Y-73304268D01*
X139152140Y-73440941D01*
X139181000Y-73586033D01*
X139181000Y-73733967D01*
X139152140Y-73879059D01*
X139095528Y-74015732D01*
X139014446Y-74137079D01*
X139013338Y-74138738D01*
X138908738Y-74243338D01*
X138908735Y-74243340D01*
X138785732Y-74325528D01*
X138649059Y-74382140D01*
X138562004Y-74399456D01*
X138503969Y-74411000D01*
X138356031Y-74411000D01*
X138297996Y-74399456D01*
X138210941Y-74382140D01*
X138074268Y-74325528D01*
X137951265Y-74243340D01*
X137951262Y-74243338D01*
X137846662Y-74138738D01*
X137845554Y-74137079D01*
X137764472Y-74015732D01*
X137707860Y-73879059D01*
X137679000Y-73733967D01*
X137679000Y-73586033D01*
X137707860Y-73440941D01*
X137764472Y-73304268D01*
X137846660Y-73181265D01*
X137846662Y-73181262D01*
X137951262Y-73076662D01*
X138017285Y-73032547D01*
X138074268Y-72994472D01*
X138210941Y-72937860D01*
X138301400Y-72919867D01*
X138356031Y-72909000D01*
X138503969Y-72909000D01*
X138558600Y-72919867D01*
X138558600Y-72919867D01*
G37*
G36*
X189362004Y-71650544D02*
X189449059Y-71667860D01*
X189585732Y-71724472D01*
X189585733Y-71724473D01*
X189708738Y-71806662D01*
X189813338Y-71911262D01*
X189813340Y-71911265D01*
X189895528Y-72034268D01*
X189952140Y-72170941D01*
X189981000Y-72316033D01*
X189981000Y-72463967D01*
X189952140Y-72609059D01*
X189895528Y-72745732D01*
X189895527Y-72745733D01*
X189813338Y-72868738D01*
X189708738Y-72973338D01*
X189708735Y-72973340D01*
X189585732Y-73055528D01*
X189449059Y-73112140D01*
X189362004Y-73129456D01*
X189303969Y-73141000D01*
X189156031Y-73141000D01*
X189097996Y-73129456D01*
X189010941Y-73112140D01*
X188874268Y-73055528D01*
X188751265Y-72973340D01*
X188751262Y-72973338D01*
X188646662Y-72868738D01*
X188564473Y-72745733D01*
X188564472Y-72745732D01*
X188507860Y-72609059D01*
X188479000Y-72463967D01*
X188479000Y-72316033D01*
X188507860Y-72170941D01*
X188564472Y-72034268D01*
X188646660Y-71911265D01*
X188646662Y-71911262D01*
X188751262Y-71806662D01*
X188874267Y-71724473D01*
X188874268Y-71724472D01*
X189010941Y-71667860D01*
X189097996Y-71650544D01*
X189156031Y-71639000D01*
X189303969Y-71639000D01*
X189362004Y-71650544D01*
X189362004Y-71650544D01*
G37*
G36*
X160376153Y-68675922D02*
X160468194Y-68714047D01*
X160598359Y-68767963D01*
X160798345Y-68901589D01*
X160968411Y-69071655D01*
X161102037Y-69271641D01*
X161155953Y-69401806D01*
X161194078Y-69493847D01*
X161194162Y-69494268D01*
X161241000Y-69729741D01*
X161241000Y-69970259D01*
X161226828Y-70041508D01*
X161194078Y-70206153D01*
X161169706Y-70264992D01*
X161102037Y-70428359D01*
X160968411Y-70628345D01*
X160798345Y-70798411D01*
X160598359Y-70932037D01*
X160468194Y-70985953D01*
X160376153Y-71024078D01*
X160258205Y-71047539D01*
X160140259Y-71071000D01*
X159899741Y-71071000D01*
X159781795Y-71047539D01*
X159663847Y-71024078D01*
X159571806Y-70985953D01*
X159441641Y-70932037D01*
X159241655Y-70798411D01*
X159071589Y-70628345D01*
X158937963Y-70428359D01*
X158870294Y-70264992D01*
X158845922Y-70206153D01*
X158813172Y-70041508D01*
X158799000Y-69970259D01*
X158799000Y-69729741D01*
X158845838Y-69494268D01*
X158845922Y-69493847D01*
X158884047Y-69401806D01*
X158937963Y-69271641D01*
X159071589Y-69071655D01*
X159241655Y-68901589D01*
X159441641Y-68767963D01*
X159571806Y-68714047D01*
X159663847Y-68675922D01*
X159899741Y-68629000D01*
X160140259Y-68629000D01*
X160376153Y-68675922D01*
X160376153Y-68675922D01*
G37*
G36*
X165376153Y-68675922D02*
X165468194Y-68714047D01*
X165598359Y-68767963D01*
X165798345Y-68901589D01*
X165968411Y-69071655D01*
X166102037Y-69271641D01*
X166155953Y-69401806D01*
X166194078Y-69493847D01*
X166194162Y-69494268D01*
X166241000Y-69729741D01*
X166241000Y-69970259D01*
X166226828Y-70041508D01*
X166194078Y-70206153D01*
X166169706Y-70264992D01*
X166102037Y-70428359D01*
X165968411Y-70628345D01*
X165798345Y-70798411D01*
X165598359Y-70932037D01*
X165468194Y-70985953D01*
X165376153Y-71024078D01*
X165258205Y-71047539D01*
X165140259Y-71071000D01*
X164899741Y-71071000D01*
X164781795Y-71047539D01*
X164663847Y-71024078D01*
X164571806Y-70985953D01*
X164441641Y-70932037D01*
X164241655Y-70798411D01*
X164071589Y-70628345D01*
X163937963Y-70428359D01*
X163870294Y-70264992D01*
X163845922Y-70206153D01*
X163813172Y-70041508D01*
X163799000Y-69970259D01*
X163799000Y-69729741D01*
X163845838Y-69494268D01*
X163845922Y-69493847D01*
X163884047Y-69401806D01*
X163937963Y-69271641D01*
X164071589Y-69071655D01*
X164241655Y-68901589D01*
X164441641Y-68767963D01*
X164571806Y-68714047D01*
X164663847Y-68675922D01*
X164899741Y-68629000D01*
X165140259Y-68629000D01*
X165376153Y-68675922D01*
X165376153Y-68675922D01*
G37*
G36*
X170376153Y-68675922D02*
X170468194Y-68714047D01*
X170598359Y-68767963D01*
X170798345Y-68901589D01*
X170968411Y-69071655D01*
X171102037Y-69271641D01*
X171155953Y-69401806D01*
X171194078Y-69493847D01*
X171194162Y-69494268D01*
X171241000Y-69729741D01*
X171241000Y-69970259D01*
X171226828Y-70041508D01*
X171194078Y-70206153D01*
X171169706Y-70264992D01*
X171102037Y-70428359D01*
X170968411Y-70628345D01*
X170798345Y-70798411D01*
X170598359Y-70932037D01*
X170468194Y-70985953D01*
X170376153Y-71024078D01*
X170258205Y-71047539D01*
X170140259Y-71071000D01*
X169899741Y-71071000D01*
X169781795Y-71047539D01*
X169663847Y-71024078D01*
X169571806Y-70985953D01*
X169441641Y-70932037D01*
X169241655Y-70798411D01*
X169071589Y-70628345D01*
X168937963Y-70428359D01*
X168870294Y-70264992D01*
X168845922Y-70206153D01*
X168813172Y-70041508D01*
X168799000Y-69970259D01*
X168799000Y-69729741D01*
X168845838Y-69494268D01*
X168845922Y-69493847D01*
X168884047Y-69401806D01*
X168937963Y-69271641D01*
X169071589Y-69071655D01*
X169241655Y-68901589D01*
X169441641Y-68767963D01*
X169571806Y-68714047D01*
X169663847Y-68675922D01*
X169899741Y-68629000D01*
X170140259Y-68629000D01*
X170376153Y-68675922D01*
X170376153Y-68675922D01*
G37*
G36*
X138558600Y-69109867D02*
X138649059Y-69127860D01*
X138785732Y-69184472D01*
X138842715Y-69222547D01*
X138908738Y-69266662D01*
X139013338Y-69371262D01*
X139013340Y-69371265D01*
X139095528Y-69494268D01*
X139152140Y-69630941D01*
X139181000Y-69776033D01*
X139181000Y-69923967D01*
X139152140Y-70069059D01*
X139095528Y-70205732D01*
X139014446Y-70327079D01*
X139013338Y-70328738D01*
X138908738Y-70433338D01*
X138908735Y-70433340D01*
X138785732Y-70515528D01*
X138649059Y-70572140D01*
X138562004Y-70589456D01*
X138503969Y-70601000D01*
X138356031Y-70601000D01*
X138297996Y-70589456D01*
X138210941Y-70572140D01*
X138074268Y-70515528D01*
X137951265Y-70433340D01*
X137951262Y-70433338D01*
X137846662Y-70328738D01*
X137845554Y-70327079D01*
X137764472Y-70205732D01*
X137707860Y-70069059D01*
X137679000Y-69923967D01*
X137679000Y-69776033D01*
X137707860Y-69630941D01*
X137764472Y-69494268D01*
X137846660Y-69371265D01*
X137846662Y-69371262D01*
X137951262Y-69266662D01*
X138017285Y-69222547D01*
X138074268Y-69184472D01*
X138210941Y-69127860D01*
X138301400Y-69109867D01*
X138356031Y-69099000D01*
X138503969Y-69099000D01*
X138558600Y-69109867D01*
X138558600Y-69109867D01*
G37*
G36*
X143583665Y-69102622D02*
X143657222Y-69109867D01*
X143798786Y-69152810D01*
X143929252Y-69222546D01*
X144043606Y-69316394D01*
X144137454Y-69430748D01*
X144207190Y-69561214D01*
X144250133Y-69702778D01*
X144264633Y-69850000D01*
X144250133Y-69997222D01*
X144207190Y-70138786D01*
X144137454Y-70269252D01*
X144043606Y-70383606D01*
X143929252Y-70477454D01*
X143798786Y-70547190D01*
X143657222Y-70590133D01*
X143583665Y-70597378D01*
X143546888Y-70601000D01*
X143473112Y-70601000D01*
X143436335Y-70597378D01*
X143362778Y-70590133D01*
X143221214Y-70547190D01*
X143090748Y-70477454D01*
X142976394Y-70383606D01*
X142882546Y-70269252D01*
X142812810Y-70138786D01*
X142769867Y-69997222D01*
X142755367Y-69850000D01*
X142769867Y-69702778D01*
X142812810Y-69561214D01*
X142882546Y-69430748D01*
X142976394Y-69316394D01*
X143090748Y-69222546D01*
X143221214Y-69152810D01*
X143362778Y-69109867D01*
X143436335Y-69102622D01*
X143473112Y-69099000D01*
X143546888Y-69099000D01*
X143583665Y-69102622D01*
X143583665Y-69102622D01*
G37*
G36*
X119453665Y-69102622D02*
X119527222Y-69109867D01*
X119668786Y-69152810D01*
X119799252Y-69222546D01*
X119913606Y-69316394D01*
X120007454Y-69430748D01*
X120077190Y-69561214D01*
X120120133Y-69702778D01*
X120134633Y-69850000D01*
X120120133Y-69997222D01*
X120077190Y-70138786D01*
X120007454Y-70269252D01*
X119913606Y-70383606D01*
X119799252Y-70477454D01*
X119668786Y-70547190D01*
X119527222Y-70590133D01*
X119453665Y-70597378D01*
X119416888Y-70601000D01*
X119343112Y-70601000D01*
X119306335Y-70597378D01*
X119232778Y-70590133D01*
X119091214Y-70547190D01*
X118960748Y-70477454D01*
X118846394Y-70383606D01*
X118752546Y-70269252D01*
X118682810Y-70138786D01*
X118639867Y-69997222D01*
X118625367Y-69850000D01*
X118639867Y-69702778D01*
X118682810Y-69561214D01*
X118752546Y-69430748D01*
X118846394Y-69316394D01*
X118960748Y-69222546D01*
X119091214Y-69152810D01*
X119232778Y-69109867D01*
X119306335Y-69102622D01*
X119343112Y-69099000D01*
X119416888Y-69099000D01*
X119453665Y-69102622D01*
X119453665Y-69102622D01*
G37*
G36*
X124588600Y-69109867D02*
X124679059Y-69127860D01*
X124815732Y-69184472D01*
X124872715Y-69222547D01*
X124938738Y-69266662D01*
X125043338Y-69371262D01*
X125043340Y-69371265D01*
X125125528Y-69494268D01*
X125182140Y-69630941D01*
X125211000Y-69776033D01*
X125211000Y-69923967D01*
X125182140Y-70069059D01*
X125125528Y-70205732D01*
X125044446Y-70327079D01*
X125043338Y-70328738D01*
X124938738Y-70433338D01*
X124938735Y-70433340D01*
X124815732Y-70515528D01*
X124679059Y-70572140D01*
X124592004Y-70589456D01*
X124533969Y-70601000D01*
X124386031Y-70601000D01*
X124327996Y-70589456D01*
X124240941Y-70572140D01*
X124104268Y-70515528D01*
X123981265Y-70433340D01*
X123981262Y-70433338D01*
X123876662Y-70328738D01*
X123875554Y-70327079D01*
X123794472Y-70205732D01*
X123737860Y-70069059D01*
X123709000Y-69923967D01*
X123709000Y-69776033D01*
X123737860Y-69630941D01*
X123794472Y-69494268D01*
X123876660Y-69371265D01*
X123876662Y-69371262D01*
X123981262Y-69266662D01*
X124047285Y-69222547D01*
X124104268Y-69184472D01*
X124240941Y-69127860D01*
X124331400Y-69109867D01*
X124386031Y-69099000D01*
X124533969Y-69099000D01*
X124588600Y-69109867D01*
X124588600Y-69109867D01*
G37*
G36*
X130769890Y-69224017D02*
X130888361Y-69273089D01*
X130994992Y-69344338D01*
X131085662Y-69435008D01*
X131156911Y-69541639D01*
X131188515Y-69617939D01*
X131200066Y-69639550D01*
X131215611Y-69658492D01*
X131234553Y-69674037D01*
X131256164Y-69685589D01*
X131279613Y-69692702D01*
X131303999Y-69695104D01*
X131328386Y-69692702D01*
X131351835Y-69685589D01*
X131373446Y-69674038D01*
X131392388Y-69658493D01*
X131407933Y-69639551D01*
X131419485Y-69617940D01*
X131426598Y-69594491D01*
X131429000Y-69570104D01*
X131429000Y-69199000D01*
X132731000Y-69199000D01*
X132731000Y-70501000D01*
X131429000Y-70501000D01*
X131429000Y-70129896D01*
X131426598Y-70105510D01*
X131419485Y-70082061D01*
X131407934Y-70060450D01*
X131392388Y-70041508D01*
X131373446Y-70025962D01*
X131351835Y-70014411D01*
X131328386Y-70007298D01*
X131304000Y-70004896D01*
X131279614Y-70007298D01*
X131256165Y-70014411D01*
X131234554Y-70025962D01*
X131215612Y-70041508D01*
X131200066Y-70060450D01*
X131188515Y-70082061D01*
X131156911Y-70158361D01*
X131085662Y-70264992D01*
X130994992Y-70355662D01*
X130888361Y-70426911D01*
X130769890Y-70475983D01*
X130644119Y-70501000D01*
X130515881Y-70501000D01*
X130390110Y-70475983D01*
X130271639Y-70426911D01*
X130165008Y-70355662D01*
X130074338Y-70264992D01*
X130003089Y-70158361D01*
X129954017Y-70039890D01*
X129929000Y-69914119D01*
X129929000Y-69785881D01*
X129954017Y-69660110D01*
X130003089Y-69541639D01*
X130074338Y-69435008D01*
X130165008Y-69344338D01*
X130271639Y-69273089D01*
X130390110Y-69224017D01*
X130515881Y-69199000D01*
X130644119Y-69199000D01*
X130769890Y-69224017D01*
X130769890Y-69224017D01*
G37*
G36*
X184801000Y-65421000D02*
X184429896Y-65421000D01*
X184405510Y-65423402D01*
X184382061Y-65430515D01*
X184360450Y-65442066D01*
X184341508Y-65457612D01*
X184325962Y-65476554D01*
X184314411Y-65498165D01*
X184307298Y-65521614D01*
X184304896Y-65546000D01*
X184307298Y-65570386D01*
X184314411Y-65593835D01*
X184325962Y-65615446D01*
X184341508Y-65634388D01*
X184360450Y-65649934D01*
X184382061Y-65661485D01*
X184458361Y-65693089D01*
X184564992Y-65764338D01*
X184655662Y-65855008D01*
X184726911Y-65961639D01*
X184775983Y-66080110D01*
X184801000Y-66205881D01*
X184801000Y-66334119D01*
X184775983Y-66459890D01*
X184726911Y-66578361D01*
X184655662Y-66684992D01*
X184564992Y-66775662D01*
X184458361Y-66846911D01*
X184339890Y-66895983D01*
X184214119Y-66921000D01*
X184085881Y-66921000D01*
X183960110Y-66895983D01*
X183841639Y-66846911D01*
X183735008Y-66775662D01*
X183644338Y-66684992D01*
X183573089Y-66578361D01*
X183524017Y-66459890D01*
X183499000Y-66334119D01*
X183499000Y-66205881D01*
X183524017Y-66080110D01*
X183573089Y-65961639D01*
X183644338Y-65855008D01*
X183735008Y-65764338D01*
X183841639Y-65693089D01*
X183917939Y-65661485D01*
X183939550Y-65649934D01*
X183958492Y-65634389D01*
X183974037Y-65615447D01*
X183985589Y-65593836D01*
X183992702Y-65570387D01*
X183995104Y-65546001D01*
X183992702Y-65521614D01*
X183985589Y-65498165D01*
X183974038Y-65476554D01*
X183958493Y-65457612D01*
X183939551Y-65442067D01*
X183917940Y-65430515D01*
X183894491Y-65423402D01*
X183870104Y-65421000D01*
X183499000Y-65421000D01*
X183499000Y-64119000D01*
X184801000Y-64119000D01*
X184801000Y-65421000D01*
X184801000Y-65421000D01*
G37*
G36*
X153918228Y-63951703D02*
X154073100Y-64015853D01*
X154212481Y-64108985D01*
X154331015Y-64227519D01*
X154424147Y-64366900D01*
X154488297Y-64521772D01*
X154521000Y-64686184D01*
X154521000Y-64853816D01*
X154488297Y-65018228D01*
X154424147Y-65173100D01*
X154331015Y-65312481D01*
X154212481Y-65431015D01*
X154073100Y-65524147D01*
X153918228Y-65588297D01*
X153753816Y-65621000D01*
X153586184Y-65621000D01*
X153421772Y-65588297D01*
X153266900Y-65524147D01*
X153127519Y-65431015D01*
X153008985Y-65312481D01*
X152915853Y-65173100D01*
X152851703Y-65018228D01*
X152819000Y-64853816D01*
X152819000Y-64686184D01*
X152851703Y-64521772D01*
X152915853Y-64366900D01*
X153008985Y-64227519D01*
X153127519Y-64108985D01*
X153266900Y-64015853D01*
X153421772Y-63951703D01*
X153586184Y-63919000D01*
X153753816Y-63919000D01*
X153918228Y-63951703D01*
X153918228Y-63951703D01*
G37*
G36*
X142488228Y-63871703D02*
X142643100Y-63935853D01*
X142782481Y-64028985D01*
X142901015Y-64147519D01*
X142994147Y-64286900D01*
X143058297Y-64441772D01*
X143091000Y-64606184D01*
X143091000Y-64773816D01*
X143058297Y-64938228D01*
X142994147Y-65093100D01*
X142901015Y-65232481D01*
X142782481Y-65351015D01*
X142643100Y-65444147D01*
X142488228Y-65508297D01*
X142323816Y-65541000D01*
X142156184Y-65541000D01*
X141991772Y-65508297D01*
X141836900Y-65444147D01*
X141697519Y-65351015D01*
X141578985Y-65232481D01*
X141485853Y-65093100D01*
X141421703Y-64938228D01*
X141389000Y-64773816D01*
X141389000Y-64606184D01*
X141421703Y-64441772D01*
X141485853Y-64286900D01*
X141578985Y-64147519D01*
X141697519Y-64028985D01*
X141836900Y-63935853D01*
X141991772Y-63871703D01*
X142156184Y-63839000D01*
X142323816Y-63839000D01*
X142488228Y-63871703D01*
X142488228Y-63871703D01*
G37*
G36*
X148714166Y-64028985D02*
X148809059Y-64047860D01*
X148945732Y-64104472D01*
X149002715Y-64142547D01*
X149068738Y-64186662D01*
X149173338Y-64291262D01*
X149173340Y-64291265D01*
X149255528Y-64414268D01*
X149312140Y-64550941D01*
X149341000Y-64696033D01*
X149341000Y-64843967D01*
X149312140Y-64989059D01*
X149255528Y-65125732D01*
X149184201Y-65232481D01*
X149173338Y-65248738D01*
X149068738Y-65353338D01*
X149068735Y-65353340D01*
X148945732Y-65435528D01*
X148809059Y-65492140D01*
X148722004Y-65509456D01*
X148663969Y-65521000D01*
X148516031Y-65521000D01*
X148457996Y-65509456D01*
X148370941Y-65492140D01*
X148234268Y-65435528D01*
X148111265Y-65353340D01*
X148111262Y-65353338D01*
X148006662Y-65248738D01*
X147995799Y-65232481D01*
X147924472Y-65125732D01*
X147867860Y-64989059D01*
X147839000Y-64843967D01*
X147839000Y-64696033D01*
X147867860Y-64550941D01*
X147924472Y-64414268D01*
X148006660Y-64291265D01*
X148006662Y-64291262D01*
X148111262Y-64186662D01*
X148177285Y-64142547D01*
X148234268Y-64104472D01*
X148370941Y-64047860D01*
X148465834Y-64028985D01*
X148516031Y-64019000D01*
X148663969Y-64019000D01*
X148714166Y-64028985D01*
X148714166Y-64028985D01*
G37*
G36*
X136014166Y-64028985D02*
X136109059Y-64047860D01*
X136245732Y-64104472D01*
X136302715Y-64142547D01*
X136368738Y-64186662D01*
X136473338Y-64291262D01*
X136473340Y-64291265D01*
X136555528Y-64414268D01*
X136612140Y-64550941D01*
X136641000Y-64696033D01*
X136641000Y-64843967D01*
X136612140Y-64989059D01*
X136555528Y-65125732D01*
X136484201Y-65232481D01*
X136473338Y-65248738D01*
X136368738Y-65353338D01*
X136368735Y-65353340D01*
X136245732Y-65435528D01*
X136109059Y-65492140D01*
X136022004Y-65509456D01*
X135963969Y-65521000D01*
X135816031Y-65521000D01*
X135757996Y-65509456D01*
X135670941Y-65492140D01*
X135534268Y-65435528D01*
X135411265Y-65353340D01*
X135411262Y-65353338D01*
X135306662Y-65248738D01*
X135295799Y-65232481D01*
X135224472Y-65125732D01*
X135167860Y-64989059D01*
X135139000Y-64843967D01*
X135139000Y-64696033D01*
X135167860Y-64550941D01*
X135224472Y-64414268D01*
X135306660Y-64291265D01*
X135306662Y-64291262D01*
X135411262Y-64186662D01*
X135477285Y-64142547D01*
X135534268Y-64104472D01*
X135670941Y-64047860D01*
X135765834Y-64028985D01*
X135816031Y-64019000D01*
X135963969Y-64019000D01*
X136014166Y-64028985D01*
X136014166Y-64028985D01*
G37*
G36*
X158823665Y-64022622D02*
X158897222Y-64029867D01*
X159038786Y-64072810D01*
X159169252Y-64142546D01*
X159283606Y-64236394D01*
X159377454Y-64350748D01*
X159447190Y-64481214D01*
X159490133Y-64622778D01*
X159504633Y-64770000D01*
X159490133Y-64917222D01*
X159447190Y-65058786D01*
X159377454Y-65189252D01*
X159283606Y-65303606D01*
X159169252Y-65397454D01*
X159038786Y-65467190D01*
X158897222Y-65510133D01*
X158823665Y-65517378D01*
X158786888Y-65521000D01*
X158713112Y-65521000D01*
X158676335Y-65517378D01*
X158602778Y-65510133D01*
X158461214Y-65467190D01*
X158330748Y-65397454D01*
X158216394Y-65303606D01*
X158122546Y-65189252D01*
X158052810Y-65058786D01*
X158009867Y-64917222D01*
X157995367Y-64770000D01*
X158009867Y-64622778D01*
X158052810Y-64481214D01*
X158122546Y-64350748D01*
X158216394Y-64236394D01*
X158330748Y-64142546D01*
X158461214Y-64072810D01*
X158602778Y-64029867D01*
X158676335Y-64022622D01*
X158713112Y-64019000D01*
X158786888Y-64019000D01*
X158823665Y-64022622D01*
X158823665Y-64022622D01*
G37*
G36*
X165232004Y-63934389D02*
X165319059Y-63951705D01*
X165455732Y-64008317D01*
X165577079Y-64089399D01*
X165578738Y-64090507D01*
X165683338Y-64195107D01*
X165683340Y-64195110D01*
X165765528Y-64318113D01*
X165822140Y-64454786D01*
X165851000Y-64599878D01*
X165851000Y-64747812D01*
X165822140Y-64892904D01*
X165765528Y-65029577D01*
X165765527Y-65029578D01*
X165683338Y-65152583D01*
X165578738Y-65257183D01*
X165578735Y-65257185D01*
X165455732Y-65339373D01*
X165319059Y-65395985D01*
X165232004Y-65413301D01*
X165173969Y-65424845D01*
X165026031Y-65424845D01*
X164967996Y-65413301D01*
X164880941Y-65395985D01*
X164744268Y-65339373D01*
X164621265Y-65257185D01*
X164621262Y-65257183D01*
X164516662Y-65152583D01*
X164434473Y-65029578D01*
X164434472Y-65029577D01*
X164377860Y-64892904D01*
X164349000Y-64747812D01*
X164349000Y-64599878D01*
X164377860Y-64454786D01*
X164434472Y-64318113D01*
X164516660Y-64195110D01*
X164516662Y-64195107D01*
X164621262Y-64090507D01*
X164622921Y-64089399D01*
X164744268Y-64008317D01*
X164880941Y-63951705D01*
X164967996Y-63934389D01*
X165026031Y-63922845D01*
X165173969Y-63922845D01*
X165232004Y-63934389D01*
X165232004Y-63934389D01*
G37*
G36*
X115643665Y-62752622D02*
X115717222Y-62759867D01*
X115858786Y-62802810D01*
X115989252Y-62872546D01*
X116103606Y-62966394D01*
X116197454Y-63080748D01*
X116267190Y-63211214D01*
X116310133Y-63352778D01*
X116324633Y-63500000D01*
X116310133Y-63647222D01*
X116267190Y-63788786D01*
X116197454Y-63919252D01*
X116103606Y-64033606D01*
X115989252Y-64127454D01*
X115858786Y-64197190D01*
X115717222Y-64240133D01*
X115643665Y-64247378D01*
X115606888Y-64251000D01*
X115533112Y-64251000D01*
X115496335Y-64247378D01*
X115422778Y-64240133D01*
X115281214Y-64197190D01*
X115150748Y-64127454D01*
X115036394Y-64033606D01*
X114942546Y-63919252D01*
X114872810Y-63788786D01*
X114829867Y-63647222D01*
X114815367Y-63500000D01*
X114829867Y-63352778D01*
X114872810Y-63211214D01*
X114942546Y-63080748D01*
X115036394Y-62966394D01*
X115150748Y-62872546D01*
X115281214Y-62802810D01*
X115422778Y-62759867D01*
X115496335Y-62752622D01*
X115533112Y-62749000D01*
X115606888Y-62749000D01*
X115643665Y-62752622D01*
X115643665Y-62752622D01*
G37*
G36*
X176818228Y-60141703D02*
X176973100Y-60205853D01*
X177112481Y-60298985D01*
X177231015Y-60417519D01*
X177324147Y-60556900D01*
X177388297Y-60711772D01*
X177421000Y-60876184D01*
X177421000Y-61043816D01*
X177388297Y-61208228D01*
X177324147Y-61363100D01*
X177231015Y-61502481D01*
X177112481Y-61621015D01*
X176973100Y-61714147D01*
X176818228Y-61778297D01*
X176653816Y-61811000D01*
X176486184Y-61811000D01*
X176321772Y-61778297D01*
X176166900Y-61714147D01*
X176027519Y-61621015D01*
X175908985Y-61502481D01*
X175815853Y-61363100D01*
X175751703Y-61208228D01*
X175719000Y-61043816D01*
X175719000Y-60876184D01*
X175751703Y-60711772D01*
X175815853Y-60556900D01*
X175908985Y-60417519D01*
X176027519Y-60298985D01*
X176166900Y-60205853D01*
X176321772Y-60141703D01*
X176486184Y-60109000D01*
X176653816Y-60109000D01*
X176818228Y-60141703D01*
X176818228Y-60141703D01*
G37*
G36*
X179318228Y-60141703D02*
X179473100Y-60205853D01*
X179612481Y-60298985D01*
X179731015Y-60417519D01*
X179824147Y-60556900D01*
X179888297Y-60711772D01*
X179921000Y-60876184D01*
X179921000Y-61043816D01*
X179888297Y-61208228D01*
X179824147Y-61363100D01*
X179731015Y-61502481D01*
X179612481Y-61621015D01*
X179473100Y-61714147D01*
X179318228Y-61778297D01*
X179153816Y-61811000D01*
X178986184Y-61811000D01*
X178821772Y-61778297D01*
X178666900Y-61714147D01*
X178527519Y-61621015D01*
X178408985Y-61502481D01*
X178315853Y-61363100D01*
X178251703Y-61208228D01*
X178219000Y-61043816D01*
X178219000Y-60876184D01*
X178251703Y-60711772D01*
X178315853Y-60556900D01*
X178408985Y-60417519D01*
X178527519Y-60298985D01*
X178666900Y-60205853D01*
X178821772Y-60141703D01*
X178986184Y-60109000D01*
X179153816Y-60109000D01*
X179318228Y-60141703D01*
X179318228Y-60141703D01*
G37*
G36*
X122052004Y-60220544D02*
X122139059Y-60237860D01*
X122275732Y-60294472D01*
X122367107Y-60355527D01*
X122398738Y-60376662D01*
X122503338Y-60481262D01*
X122503340Y-60481265D01*
X122585528Y-60604268D01*
X122642140Y-60740941D01*
X122671000Y-60886033D01*
X122671000Y-61033967D01*
X122642140Y-61179059D01*
X122585528Y-61315732D01*
X122585527Y-61315733D01*
X122503338Y-61438738D01*
X122398738Y-61543338D01*
X122398735Y-61543340D01*
X122275732Y-61625528D01*
X122139059Y-61682140D01*
X122052004Y-61699456D01*
X121993969Y-61711000D01*
X121846031Y-61711000D01*
X121787996Y-61699456D01*
X121700941Y-61682140D01*
X121564268Y-61625528D01*
X121441265Y-61543340D01*
X121441262Y-61543338D01*
X121336662Y-61438738D01*
X121254473Y-61315733D01*
X121254472Y-61315732D01*
X121197860Y-61179059D01*
X121169000Y-61033967D01*
X121169000Y-60886033D01*
X121197860Y-60740941D01*
X121254472Y-60604268D01*
X121336660Y-60481265D01*
X121336662Y-60481262D01*
X121441262Y-60376662D01*
X121472893Y-60355527D01*
X121564268Y-60294472D01*
X121700941Y-60237860D01*
X121787996Y-60220544D01*
X121846031Y-60209000D01*
X121993969Y-60209000D01*
X122052004Y-60220544D01*
X122052004Y-60220544D01*
G37*
G36*
X153918228Y-58951703D02*
X154073100Y-59015853D01*
X154212481Y-59108985D01*
X154331015Y-59227519D01*
X154424147Y-59366900D01*
X154488297Y-59521772D01*
X154521000Y-59686184D01*
X154521000Y-59853816D01*
X154488297Y-60018228D01*
X154424147Y-60173100D01*
X154331015Y-60312481D01*
X154212481Y-60431015D01*
X154073100Y-60524147D01*
X153918228Y-60588297D01*
X153753816Y-60621000D01*
X153586184Y-60621000D01*
X153421772Y-60588297D01*
X153266900Y-60524147D01*
X153127519Y-60431015D01*
X153008985Y-60312481D01*
X152915853Y-60173100D01*
X152851703Y-60018228D01*
X152819000Y-59853816D01*
X152819000Y-59686184D01*
X152851703Y-59521772D01*
X152915853Y-59366900D01*
X153008985Y-59227519D01*
X153127519Y-59108985D01*
X153266900Y-59015853D01*
X153421772Y-58951703D01*
X153586184Y-58919000D01*
X153753816Y-58919000D01*
X153918228Y-58951703D01*
X153918228Y-58951703D01*
G37*
G36*
X130191000Y-59071000D02*
X129819896Y-59071000D01*
X129795510Y-59073402D01*
X129772061Y-59080515D01*
X129750450Y-59092066D01*
X129731508Y-59107612D01*
X129715962Y-59126554D01*
X129704411Y-59148165D01*
X129697298Y-59171614D01*
X129694896Y-59196000D01*
X129697298Y-59220386D01*
X129704411Y-59243835D01*
X129715962Y-59265446D01*
X129731508Y-59284388D01*
X129750450Y-59299934D01*
X129772061Y-59311485D01*
X129848361Y-59343089D01*
X129848364Y-59343091D01*
X129883997Y-59366900D01*
X129954992Y-59414338D01*
X130045662Y-59505008D01*
X130045664Y-59505011D01*
X130045665Y-59505012D01*
X130070899Y-59542778D01*
X130116911Y-59611639D01*
X130165983Y-59730110D01*
X130191000Y-59855881D01*
X130191000Y-59984119D01*
X130165983Y-60109890D01*
X130116911Y-60228361D01*
X130116909Y-60228364D01*
X130057382Y-60317453D01*
X130045662Y-60334992D01*
X129954992Y-60425662D01*
X129954989Y-60425664D01*
X129954988Y-60425665D01*
X129871781Y-60481262D01*
X129848361Y-60496911D01*
X129729890Y-60545983D01*
X129604119Y-60571000D01*
X129475881Y-60571000D01*
X129350110Y-60545983D01*
X129231639Y-60496911D01*
X129208219Y-60481262D01*
X129125012Y-60425665D01*
X129125011Y-60425664D01*
X129125008Y-60425662D01*
X129034338Y-60334992D01*
X129022619Y-60317453D01*
X128963091Y-60228364D01*
X128963089Y-60228361D01*
X128914017Y-60109890D01*
X128889000Y-59984119D01*
X128889000Y-59855881D01*
X128914017Y-59730110D01*
X128963089Y-59611639D01*
X129009101Y-59542778D01*
X129034335Y-59505012D01*
X129034336Y-59505011D01*
X129034338Y-59505008D01*
X129125008Y-59414338D01*
X129196004Y-59366900D01*
X129231636Y-59343091D01*
X129231639Y-59343089D01*
X129307939Y-59311485D01*
X129329550Y-59299934D01*
X129348492Y-59284389D01*
X129364037Y-59265447D01*
X129375589Y-59243836D01*
X129382702Y-59220387D01*
X129385104Y-59196001D01*
X129382702Y-59171614D01*
X129375589Y-59148165D01*
X129364038Y-59126554D01*
X129348493Y-59107612D01*
X129329551Y-59092067D01*
X129307940Y-59080515D01*
X129284491Y-59073402D01*
X129260104Y-59071000D01*
X128889000Y-59071000D01*
X128889000Y-57769000D01*
X130191000Y-57769000D01*
X130191000Y-59071000D01*
X130191000Y-59071000D01*
G37*
G36*
X142488228Y-58871703D02*
X142643100Y-58935853D01*
X142782481Y-59028985D01*
X142901015Y-59147519D01*
X142994147Y-59286900D01*
X143058297Y-59441772D01*
X143091000Y-59606184D01*
X143091000Y-59773816D01*
X143058297Y-59938228D01*
X142994147Y-60093100D01*
X142901015Y-60232481D01*
X142782481Y-60351015D01*
X142643100Y-60444147D01*
X142488228Y-60508297D01*
X142323816Y-60541000D01*
X142156184Y-60541000D01*
X141991772Y-60508297D01*
X141836900Y-60444147D01*
X141697519Y-60351015D01*
X141578985Y-60232481D01*
X141485853Y-60093100D01*
X141421703Y-59938228D01*
X141389000Y-59773816D01*
X141389000Y-59606184D01*
X141421703Y-59441772D01*
X141485853Y-59286900D01*
X141578985Y-59147519D01*
X141697519Y-59028985D01*
X141836900Y-58935853D01*
X141991772Y-58871703D01*
X142156184Y-58839000D01*
X142323816Y-58839000D01*
X142488228Y-58871703D01*
X142488228Y-58871703D01*
G37*
G36*
X148663665Y-58942622D02*
X148737222Y-58949867D01*
X148878786Y-58992810D01*
X149009252Y-59062546D01*
X149123606Y-59156394D01*
X149217454Y-59270748D01*
X149287190Y-59401214D01*
X149330133Y-59542778D01*
X149344633Y-59690000D01*
X149330133Y-59837222D01*
X149287190Y-59978786D01*
X149217454Y-60109252D01*
X149123606Y-60223606D01*
X149009252Y-60317454D01*
X148878786Y-60387190D01*
X148737222Y-60430133D01*
X148663665Y-60437378D01*
X148626888Y-60441000D01*
X148553112Y-60441000D01*
X148516335Y-60437378D01*
X148442778Y-60430133D01*
X148301214Y-60387190D01*
X148170748Y-60317454D01*
X148056394Y-60223606D01*
X147962546Y-60109252D01*
X147892810Y-59978786D01*
X147849867Y-59837222D01*
X147835367Y-59690000D01*
X147849867Y-59542778D01*
X147892810Y-59401214D01*
X147962546Y-59270748D01*
X148056394Y-59156394D01*
X148170748Y-59062546D01*
X148301214Y-58992810D01*
X148442778Y-58949867D01*
X148516335Y-58942622D01*
X148553112Y-58939000D01*
X148626888Y-58939000D01*
X148663665Y-58942622D01*
X148663665Y-58942622D01*
G37*
G36*
X184278600Y-58949867D02*
X184369059Y-58967860D01*
X184505732Y-59024472D01*
X184606895Y-59092067D01*
X184628738Y-59106662D01*
X184733338Y-59211262D01*
X184733340Y-59211265D01*
X184815528Y-59334268D01*
X184872140Y-59470941D01*
X184886429Y-59542778D01*
X184900126Y-59611636D01*
X184901000Y-59616033D01*
X184901000Y-59763967D01*
X184872140Y-59909059D01*
X184815528Y-60045732D01*
X184734446Y-60167079D01*
X184733338Y-60168738D01*
X184628738Y-60273338D01*
X184628735Y-60273340D01*
X184505732Y-60355528D01*
X184369059Y-60412140D01*
X184282004Y-60429456D01*
X184223969Y-60441000D01*
X184076031Y-60441000D01*
X184017996Y-60429456D01*
X183930941Y-60412140D01*
X183794268Y-60355528D01*
X183671265Y-60273340D01*
X183671262Y-60273338D01*
X183566662Y-60168738D01*
X183565554Y-60167079D01*
X183484472Y-60045732D01*
X183427860Y-59909059D01*
X183399000Y-59763967D01*
X183399000Y-59616033D01*
X183399875Y-59611636D01*
X183413571Y-59542778D01*
X183427860Y-59470941D01*
X183484472Y-59334268D01*
X183566660Y-59211265D01*
X183566662Y-59211262D01*
X183671262Y-59106662D01*
X183693105Y-59092067D01*
X183794268Y-59024472D01*
X183930941Y-58967860D01*
X184021400Y-58949867D01*
X184076031Y-58939000D01*
X184223969Y-58939000D01*
X184278600Y-58949867D01*
X184278600Y-58949867D01*
G37*
G36*
X158878600Y-58949867D02*
X158969059Y-58967860D01*
X159105732Y-59024472D01*
X159206895Y-59092067D01*
X159228738Y-59106662D01*
X159333338Y-59211262D01*
X159333340Y-59211265D01*
X159415528Y-59334268D01*
X159472140Y-59470941D01*
X159486429Y-59542778D01*
X159500126Y-59611636D01*
X159501000Y-59616033D01*
X159501000Y-59763967D01*
X159472140Y-59909059D01*
X159415528Y-60045732D01*
X159334446Y-60167079D01*
X159333338Y-60168738D01*
X159228738Y-60273338D01*
X159228735Y-60273340D01*
X159105732Y-60355528D01*
X158969059Y-60412140D01*
X158882004Y-60429456D01*
X158823969Y-60441000D01*
X158676031Y-60441000D01*
X158617996Y-60429456D01*
X158530941Y-60412140D01*
X158394268Y-60355528D01*
X158271265Y-60273340D01*
X158271262Y-60273338D01*
X158166662Y-60168738D01*
X158165554Y-60167079D01*
X158084472Y-60045732D01*
X158027860Y-59909059D01*
X157999000Y-59763967D01*
X157999000Y-59616033D01*
X157999875Y-59611636D01*
X158013571Y-59542778D01*
X158027860Y-59470941D01*
X158084472Y-59334268D01*
X158166660Y-59211265D01*
X158166662Y-59211262D01*
X158271262Y-59106662D01*
X158293105Y-59092067D01*
X158394268Y-59024472D01*
X158530941Y-58967860D01*
X158621400Y-58949867D01*
X158676031Y-58939000D01*
X158823969Y-58939000D01*
X158878600Y-58949867D01*
X158878600Y-58949867D01*
G37*
G36*
X135963665Y-58942622D02*
X136037222Y-58949867D01*
X136178786Y-58992810D01*
X136309252Y-59062546D01*
X136423606Y-59156394D01*
X136517454Y-59270748D01*
X136587190Y-59401214D01*
X136630133Y-59542778D01*
X136644633Y-59690000D01*
X136630133Y-59837222D01*
X136587190Y-59978786D01*
X136517454Y-60109252D01*
X136423606Y-60223606D01*
X136309252Y-60317454D01*
X136178786Y-60387190D01*
X136037222Y-60430133D01*
X135963665Y-60437378D01*
X135926888Y-60441000D01*
X135853112Y-60441000D01*
X135816335Y-60437378D01*
X135742778Y-60430133D01*
X135601214Y-60387190D01*
X135470748Y-60317454D01*
X135356394Y-60223606D01*
X135262546Y-60109252D01*
X135192810Y-59978786D01*
X135149867Y-59837222D01*
X135135367Y-59690000D01*
X135149867Y-59542778D01*
X135192810Y-59401214D01*
X135262546Y-59270748D01*
X135356394Y-59156394D01*
X135470748Y-59062546D01*
X135601214Y-58992810D01*
X135742778Y-58949867D01*
X135816335Y-58942622D01*
X135853112Y-58939000D01*
X135926888Y-58939000D01*
X135963665Y-58942622D01*
X135963665Y-58942622D01*
G37*
G36*
X165173665Y-58846467D02*
X165247222Y-58853712D01*
X165388786Y-58896655D01*
X165519252Y-58966391D01*
X165633606Y-59060239D01*
X165727454Y-59174593D01*
X165797190Y-59305059D01*
X165840133Y-59446623D01*
X165854633Y-59593845D01*
X165840133Y-59741067D01*
X165797190Y-59882631D01*
X165727454Y-60013097D01*
X165633606Y-60127451D01*
X165519252Y-60221299D01*
X165388786Y-60291035D01*
X165247222Y-60333978D01*
X165173665Y-60341223D01*
X165136888Y-60344845D01*
X165063112Y-60344845D01*
X165026335Y-60341223D01*
X164952778Y-60333978D01*
X164811214Y-60291035D01*
X164680748Y-60221299D01*
X164566394Y-60127451D01*
X164472546Y-60013097D01*
X164402810Y-59882631D01*
X164359867Y-59741067D01*
X164345367Y-59593845D01*
X164359867Y-59446623D01*
X164402810Y-59305059D01*
X164472546Y-59174593D01*
X164566394Y-59060239D01*
X164680748Y-58966391D01*
X164811214Y-58896655D01*
X164952778Y-58853712D01*
X165026335Y-58846467D01*
X165063112Y-58842845D01*
X165136888Y-58842845D01*
X165173665Y-58846467D01*
X165173665Y-58846467D01*
G37*
G36*
X122052004Y-57720544D02*
X122139059Y-57737860D01*
X122275732Y-57794472D01*
X122275733Y-57794473D01*
X122398738Y-57876662D01*
X122503338Y-57981262D01*
X122503340Y-57981265D01*
X122585528Y-58104268D01*
X122642140Y-58240941D01*
X122671000Y-58386033D01*
X122671000Y-58533967D01*
X122642140Y-58679059D01*
X122585528Y-58815732D01*
X122505266Y-58935853D01*
X122503338Y-58938738D01*
X122398738Y-59043338D01*
X122398735Y-59043340D01*
X122275732Y-59125528D01*
X122139059Y-59182140D01*
X122052004Y-59199456D01*
X121993969Y-59211000D01*
X121846031Y-59211000D01*
X121787996Y-59199456D01*
X121700941Y-59182140D01*
X121564268Y-59125528D01*
X121441265Y-59043340D01*
X121441262Y-59043338D01*
X121336662Y-58938738D01*
X121334734Y-58935853D01*
X121254472Y-58815732D01*
X121197860Y-58679059D01*
X121169000Y-58533967D01*
X121169000Y-58386033D01*
X121197860Y-58240941D01*
X121254472Y-58104268D01*
X121336660Y-57981265D01*
X121336662Y-57981262D01*
X121441262Y-57876662D01*
X121564267Y-57794473D01*
X121564268Y-57794472D01*
X121700941Y-57737860D01*
X121787996Y-57720544D01*
X121846031Y-57709000D01*
X121993969Y-57709000D01*
X122052004Y-57720544D01*
X122052004Y-57720544D01*
G37*
G36*
X115702004Y-57680544D02*
X115789059Y-57697860D01*
X115925732Y-57754472D01*
X116047079Y-57835554D01*
X116048738Y-57836662D01*
X116153338Y-57941262D01*
X116153340Y-57941265D01*
X116235528Y-58064268D01*
X116292140Y-58200941D01*
X116321000Y-58346033D01*
X116321000Y-58493967D01*
X116292140Y-58639059D01*
X116235528Y-58775732D01*
X116154730Y-58896655D01*
X116153338Y-58898738D01*
X116048738Y-59003338D01*
X116048735Y-59003340D01*
X115925732Y-59085528D01*
X115789059Y-59142140D01*
X115702004Y-59159456D01*
X115643969Y-59171000D01*
X115496031Y-59171000D01*
X115437996Y-59159456D01*
X115350941Y-59142140D01*
X115214268Y-59085528D01*
X115091265Y-59003340D01*
X115091262Y-59003338D01*
X114986662Y-58898738D01*
X114985270Y-58896655D01*
X114904472Y-58775732D01*
X114847860Y-58639059D01*
X114819000Y-58493967D01*
X114819000Y-58346033D01*
X114847860Y-58200941D01*
X114904472Y-58064268D01*
X114986660Y-57941265D01*
X114986662Y-57941262D01*
X115091262Y-57836662D01*
X115092921Y-57835554D01*
X115214268Y-57754472D01*
X115350941Y-57697860D01*
X115437996Y-57680544D01*
X115496031Y-57669000D01*
X115643969Y-57669000D01*
X115702004Y-57680544D01*
X115702004Y-57680544D01*
G37*
G36*
X184223665Y-53862622D02*
X184297222Y-53869867D01*
X184438786Y-53912810D01*
X184569252Y-53982546D01*
X184683606Y-54076394D01*
X184777454Y-54190748D01*
X184847190Y-54321214D01*
X184890133Y-54462778D01*
X184904633Y-54610000D01*
X184890133Y-54757222D01*
X184847190Y-54898786D01*
X184777454Y-55029252D01*
X184683606Y-55143606D01*
X184569252Y-55237454D01*
X184438786Y-55307190D01*
X184297222Y-55350133D01*
X184223665Y-55357378D01*
X184186888Y-55361000D01*
X184113112Y-55361000D01*
X184076335Y-55357378D01*
X184002778Y-55350133D01*
X183861214Y-55307190D01*
X183730748Y-55237454D01*
X183616394Y-55143606D01*
X183522546Y-55029252D01*
X183452810Y-54898786D01*
X183409867Y-54757222D01*
X183395367Y-54610000D01*
X183409867Y-54462778D01*
X183452810Y-54321214D01*
X183522546Y-54190748D01*
X183616394Y-54076394D01*
X183730748Y-53982546D01*
X183861214Y-53912810D01*
X184002778Y-53869867D01*
X184076335Y-53862622D01*
X184113112Y-53859000D01*
X184186888Y-53859000D01*
X184223665Y-53862622D01*
X184223665Y-53862622D01*
G37*
G36*
X175333665Y-53862622D02*
X175407222Y-53869867D01*
X175548786Y-53912810D01*
X175679252Y-53982546D01*
X175793606Y-54076394D01*
X175887454Y-54190748D01*
X175957190Y-54321214D01*
X176000133Y-54462778D01*
X176014633Y-54610000D01*
X176000133Y-54757222D01*
X175957190Y-54898786D01*
X175887454Y-55029252D01*
X175793606Y-55143606D01*
X175679252Y-55237454D01*
X175548786Y-55307190D01*
X175407222Y-55350133D01*
X175333665Y-55357378D01*
X175296888Y-55361000D01*
X175223112Y-55361000D01*
X175186335Y-55357378D01*
X175112778Y-55350133D01*
X174971214Y-55307190D01*
X174840748Y-55237454D01*
X174726394Y-55143606D01*
X174632546Y-55029252D01*
X174562810Y-54898786D01*
X174519867Y-54757222D01*
X174505367Y-54610000D01*
X174519867Y-54462778D01*
X174562810Y-54321214D01*
X174632546Y-54190748D01*
X174726394Y-54076394D01*
X174840748Y-53982546D01*
X174971214Y-53912810D01*
X175112778Y-53869867D01*
X175186335Y-53862622D01*
X175223112Y-53859000D01*
X175296888Y-53859000D01*
X175333665Y-53862622D01*
X175333665Y-53862622D01*
G37*
G36*
X180468600Y-53869867D02*
X180559059Y-53887860D01*
X180695732Y-53944472D01*
X180752715Y-53982547D01*
X180818738Y-54026662D01*
X180923338Y-54131262D01*
X180923340Y-54131265D01*
X181005528Y-54254268D01*
X181062140Y-54390941D01*
X181091000Y-54536033D01*
X181091000Y-54683967D01*
X181062140Y-54829059D01*
X181005528Y-54965732D01*
X180924446Y-55087079D01*
X180923338Y-55088738D01*
X180818738Y-55193338D01*
X180818735Y-55193340D01*
X180695732Y-55275528D01*
X180559059Y-55332140D01*
X180472004Y-55349456D01*
X180413969Y-55361000D01*
X180266031Y-55361000D01*
X180207996Y-55349456D01*
X180120941Y-55332140D01*
X179984268Y-55275528D01*
X179861265Y-55193340D01*
X179861262Y-55193338D01*
X179756662Y-55088738D01*
X179755554Y-55087079D01*
X179674472Y-54965732D01*
X179617860Y-54829059D01*
X179589000Y-54683967D01*
X179589000Y-54536033D01*
X179617860Y-54390941D01*
X179674472Y-54254268D01*
X179756660Y-54131265D01*
X179756662Y-54131262D01*
X179861262Y-54026662D01*
X179927285Y-53982547D01*
X179984268Y-53944472D01*
X180120941Y-53887860D01*
X180211400Y-53869867D01*
X180266031Y-53859000D01*
X180413969Y-53859000D01*
X180468600Y-53869867D01*
X180468600Y-53869867D01*
G37*
G36*
X142406821Y-52501313D02*
X142406824Y-52501314D01*
X142406825Y-52501314D01*
X142567239Y-52549975D01*
X142567241Y-52549976D01*
X142567244Y-52549977D01*
X142715078Y-52628995D01*
X142844659Y-52735341D01*
X142951005Y-52864922D01*
X143030023Y-53012756D01*
X143030024Y-53012759D01*
X143030025Y-53012761D01*
X143070339Y-53145658D01*
X143078687Y-53173179D01*
X143095117Y-53340000D01*
X143078687Y-53506821D01*
X143030023Y-53667244D01*
X142951005Y-53815078D01*
X142844659Y-53944659D01*
X142715078Y-54051005D01*
X142567244Y-54130023D01*
X142567241Y-54130024D01*
X142567239Y-54130025D01*
X142406825Y-54178686D01*
X142406824Y-54178686D01*
X142406821Y-54178687D01*
X142281804Y-54191000D01*
X142198196Y-54191000D01*
X142073179Y-54178687D01*
X142073176Y-54178686D01*
X142073175Y-54178686D01*
X141912761Y-54130025D01*
X141912759Y-54130024D01*
X141912756Y-54130023D01*
X141764922Y-54051005D01*
X141635341Y-53944659D01*
X141528995Y-53815078D01*
X141449977Y-53667244D01*
X141401313Y-53506821D01*
X141384883Y-53340000D01*
X141401313Y-53173179D01*
X141409661Y-53145658D01*
X141449975Y-53012761D01*
X141449976Y-53012759D01*
X141449977Y-53012756D01*
X141528995Y-52864922D01*
X141635341Y-52735341D01*
X141764922Y-52628995D01*
X141912756Y-52549977D01*
X141912759Y-52549976D01*
X141912761Y-52549975D01*
X142073175Y-52501314D01*
X142073176Y-52501314D01*
X142073179Y-52501313D01*
X142198196Y-52489000D01*
X142281804Y-52489000D01*
X142406821Y-52501313D01*
X142406821Y-52501313D01*
G37*
G36*
X139866821Y-52501313D02*
X139866824Y-52501314D01*
X139866825Y-52501314D01*
X140027239Y-52549975D01*
X140027241Y-52549976D01*
X140027244Y-52549977D01*
X140175078Y-52628995D01*
X140304659Y-52735341D01*
X140411005Y-52864922D01*
X140490023Y-53012756D01*
X140490024Y-53012759D01*
X140490025Y-53012761D01*
X140530339Y-53145658D01*
X140538687Y-53173179D01*
X140555117Y-53340000D01*
X140538687Y-53506821D01*
X140490023Y-53667244D01*
X140411005Y-53815078D01*
X140304659Y-53944659D01*
X140175078Y-54051005D01*
X140027244Y-54130023D01*
X140027241Y-54130024D01*
X140027239Y-54130025D01*
X139866825Y-54178686D01*
X139866824Y-54178686D01*
X139866821Y-54178687D01*
X139741804Y-54191000D01*
X139658196Y-54191000D01*
X139533179Y-54178687D01*
X139533176Y-54178686D01*
X139533175Y-54178686D01*
X139372761Y-54130025D01*
X139372759Y-54130024D01*
X139372756Y-54130023D01*
X139224922Y-54051005D01*
X139095341Y-53944659D01*
X138988995Y-53815078D01*
X138909977Y-53667244D01*
X138861313Y-53506821D01*
X138844883Y-53340000D01*
X138861313Y-53173179D01*
X138869661Y-53145658D01*
X138909975Y-53012761D01*
X138909976Y-53012759D01*
X138909977Y-53012756D01*
X138988995Y-52864922D01*
X139095341Y-52735341D01*
X139224922Y-52628995D01*
X139372756Y-52549977D01*
X139372759Y-52549976D01*
X139372761Y-52549975D01*
X139533175Y-52501314D01*
X139533176Y-52501314D01*
X139533179Y-52501313D01*
X139658196Y-52489000D01*
X139741804Y-52489000D01*
X139866821Y-52501313D01*
X139866821Y-52501313D01*
G37*
G36*
X137326821Y-52501313D02*
X137326824Y-52501314D01*
X137326825Y-52501314D01*
X137487239Y-52549975D01*
X137487241Y-52549976D01*
X137487244Y-52549977D01*
X137635078Y-52628995D01*
X137764659Y-52735341D01*
X137871005Y-52864922D01*
X137950023Y-53012756D01*
X137950024Y-53012759D01*
X137950025Y-53012761D01*
X137990339Y-53145658D01*
X137998687Y-53173179D01*
X138015117Y-53340000D01*
X137998687Y-53506821D01*
X137950023Y-53667244D01*
X137871005Y-53815078D01*
X137764659Y-53944659D01*
X137635078Y-54051005D01*
X137487244Y-54130023D01*
X137487241Y-54130024D01*
X137487239Y-54130025D01*
X137326825Y-54178686D01*
X137326824Y-54178686D01*
X137326821Y-54178687D01*
X137201804Y-54191000D01*
X137118196Y-54191000D01*
X136993179Y-54178687D01*
X136993176Y-54178686D01*
X136993175Y-54178686D01*
X136832761Y-54130025D01*
X136832759Y-54130024D01*
X136832756Y-54130023D01*
X136684922Y-54051005D01*
X136555341Y-53944659D01*
X136448995Y-53815078D01*
X136369977Y-53667244D01*
X136321313Y-53506821D01*
X136304883Y-53340000D01*
X136321313Y-53173179D01*
X136329661Y-53145658D01*
X136369975Y-53012761D01*
X136369976Y-53012759D01*
X136369977Y-53012756D01*
X136448995Y-52864922D01*
X136555341Y-52735341D01*
X136684922Y-52628995D01*
X136832756Y-52549977D01*
X136832759Y-52549976D01*
X136832761Y-52549975D01*
X136993175Y-52501314D01*
X136993176Y-52501314D01*
X136993179Y-52501313D01*
X137118196Y-52489000D01*
X137201804Y-52489000D01*
X137326821Y-52501313D01*
X137326821Y-52501313D01*
G37*
G36*
X161456821Y-52501313D02*
X161456824Y-52501314D01*
X161456825Y-52501314D01*
X161617239Y-52549975D01*
X161617241Y-52549976D01*
X161617244Y-52549977D01*
X161765078Y-52628995D01*
X161894659Y-52735341D01*
X162001005Y-52864922D01*
X162080023Y-53012756D01*
X162080024Y-53012759D01*
X162080025Y-53012761D01*
X162120339Y-53145658D01*
X162128687Y-53173179D01*
X162145117Y-53340000D01*
X162128687Y-53506821D01*
X162080023Y-53667244D01*
X162001005Y-53815078D01*
X161894659Y-53944659D01*
X161765078Y-54051005D01*
X161617244Y-54130023D01*
X161617241Y-54130024D01*
X161617239Y-54130025D01*
X161456825Y-54178686D01*
X161456824Y-54178686D01*
X161456821Y-54178687D01*
X161331804Y-54191000D01*
X161248196Y-54191000D01*
X161123179Y-54178687D01*
X161123176Y-54178686D01*
X161123175Y-54178686D01*
X160962761Y-54130025D01*
X160962759Y-54130024D01*
X160962756Y-54130023D01*
X160814922Y-54051005D01*
X160685341Y-53944659D01*
X160578995Y-53815078D01*
X160499977Y-53667244D01*
X160451313Y-53506821D01*
X160434883Y-53340000D01*
X160451313Y-53173179D01*
X160459661Y-53145658D01*
X160499975Y-53012761D01*
X160499976Y-53012759D01*
X160499977Y-53012756D01*
X160578995Y-52864922D01*
X160685341Y-52735341D01*
X160814922Y-52628995D01*
X160962756Y-52549977D01*
X160962759Y-52549976D01*
X160962761Y-52549975D01*
X161123175Y-52501314D01*
X161123176Y-52501314D01*
X161123179Y-52501313D01*
X161248196Y-52489000D01*
X161331804Y-52489000D01*
X161456821Y-52501313D01*
X161456821Y-52501313D01*
G37*
G36*
X169076821Y-52501313D02*
X169076824Y-52501314D01*
X169076825Y-52501314D01*
X169237239Y-52549975D01*
X169237241Y-52549976D01*
X169237244Y-52549977D01*
X169385078Y-52628995D01*
X169514659Y-52735341D01*
X169621005Y-52864922D01*
X169700023Y-53012756D01*
X169700024Y-53012759D01*
X169700025Y-53012761D01*
X169740339Y-53145658D01*
X169748687Y-53173179D01*
X169765117Y-53340000D01*
X169748687Y-53506821D01*
X169700023Y-53667244D01*
X169621005Y-53815078D01*
X169514659Y-53944659D01*
X169385078Y-54051005D01*
X169237244Y-54130023D01*
X169237241Y-54130024D01*
X169237239Y-54130025D01*
X169076825Y-54178686D01*
X169076824Y-54178686D01*
X169076821Y-54178687D01*
X168951804Y-54191000D01*
X168868196Y-54191000D01*
X168743179Y-54178687D01*
X168743176Y-54178686D01*
X168743175Y-54178686D01*
X168582761Y-54130025D01*
X168582759Y-54130024D01*
X168582756Y-54130023D01*
X168434922Y-54051005D01*
X168305341Y-53944659D01*
X168198995Y-53815078D01*
X168119977Y-53667244D01*
X168071313Y-53506821D01*
X168054883Y-53340000D01*
X168071313Y-53173179D01*
X168079661Y-53145658D01*
X168119975Y-53012761D01*
X168119976Y-53012759D01*
X168119977Y-53012756D01*
X168198995Y-52864922D01*
X168305341Y-52735341D01*
X168434922Y-52628995D01*
X168582756Y-52549977D01*
X168582759Y-52549976D01*
X168582761Y-52549975D01*
X168743175Y-52501314D01*
X168743176Y-52501314D01*
X168743179Y-52501313D01*
X168868196Y-52489000D01*
X168951804Y-52489000D01*
X169076821Y-52501313D01*
X169076821Y-52501313D01*
G37*
G36*
X144946821Y-52501313D02*
X144946824Y-52501314D01*
X144946825Y-52501314D01*
X145107239Y-52549975D01*
X145107241Y-52549976D01*
X145107244Y-52549977D01*
X145255078Y-52628995D01*
X145384659Y-52735341D01*
X145491005Y-52864922D01*
X145570023Y-53012756D01*
X145570024Y-53012759D01*
X145570025Y-53012761D01*
X145610339Y-53145658D01*
X145618687Y-53173179D01*
X145635117Y-53340000D01*
X145618687Y-53506821D01*
X145570023Y-53667244D01*
X145491005Y-53815078D01*
X145384659Y-53944659D01*
X145255078Y-54051005D01*
X145107244Y-54130023D01*
X145107241Y-54130024D01*
X145107239Y-54130025D01*
X144946825Y-54178686D01*
X144946824Y-54178686D01*
X144946821Y-54178687D01*
X144821804Y-54191000D01*
X144738196Y-54191000D01*
X144613179Y-54178687D01*
X144613176Y-54178686D01*
X144613175Y-54178686D01*
X144452761Y-54130025D01*
X144452759Y-54130024D01*
X144452756Y-54130023D01*
X144304922Y-54051005D01*
X144175341Y-53944659D01*
X144068995Y-53815078D01*
X143989977Y-53667244D01*
X143941313Y-53506821D01*
X143924883Y-53340000D01*
X143941313Y-53173179D01*
X143949661Y-53145658D01*
X143989975Y-53012761D01*
X143989976Y-53012759D01*
X143989977Y-53012756D01*
X144068995Y-52864922D01*
X144175341Y-52735341D01*
X144304922Y-52628995D01*
X144452756Y-52549977D01*
X144452759Y-52549976D01*
X144452761Y-52549975D01*
X144613175Y-52501314D01*
X144613176Y-52501314D01*
X144613179Y-52501313D01*
X144738196Y-52489000D01*
X144821804Y-52489000D01*
X144946821Y-52501313D01*
X144946821Y-52501313D01*
G37*
G36*
X163996821Y-52501313D02*
X163996824Y-52501314D01*
X163996825Y-52501314D01*
X164157239Y-52549975D01*
X164157241Y-52549976D01*
X164157244Y-52549977D01*
X164305078Y-52628995D01*
X164434659Y-52735341D01*
X164541005Y-52864922D01*
X164620023Y-53012756D01*
X164620024Y-53012759D01*
X164620025Y-53012761D01*
X164660339Y-53145658D01*
X164668687Y-53173179D01*
X164685117Y-53340000D01*
X164668687Y-53506821D01*
X164620023Y-53667244D01*
X164541005Y-53815078D01*
X164434659Y-53944659D01*
X164305078Y-54051005D01*
X164157244Y-54130023D01*
X164157241Y-54130024D01*
X164157239Y-54130025D01*
X163996825Y-54178686D01*
X163996824Y-54178686D01*
X163996821Y-54178687D01*
X163871804Y-54191000D01*
X163788196Y-54191000D01*
X163663179Y-54178687D01*
X163663176Y-54178686D01*
X163663175Y-54178686D01*
X163502761Y-54130025D01*
X163502759Y-54130024D01*
X163502756Y-54130023D01*
X163354922Y-54051005D01*
X163225341Y-53944659D01*
X163118995Y-53815078D01*
X163039977Y-53667244D01*
X162991313Y-53506821D01*
X162974883Y-53340000D01*
X162991313Y-53173179D01*
X162999661Y-53145658D01*
X163039975Y-53012761D01*
X163039976Y-53012759D01*
X163039977Y-53012756D01*
X163118995Y-52864922D01*
X163225341Y-52735341D01*
X163354922Y-52628995D01*
X163502756Y-52549977D01*
X163502759Y-52549976D01*
X163502761Y-52549975D01*
X163663175Y-52501314D01*
X163663176Y-52501314D01*
X163663179Y-52501313D01*
X163788196Y-52489000D01*
X163871804Y-52489000D01*
X163996821Y-52501313D01*
X163996821Y-52501313D01*
G37*
G36*
X166536821Y-52501313D02*
X166536824Y-52501314D01*
X166536825Y-52501314D01*
X166697239Y-52549975D01*
X166697241Y-52549976D01*
X166697244Y-52549977D01*
X166845078Y-52628995D01*
X166974659Y-52735341D01*
X167081005Y-52864922D01*
X167160023Y-53012756D01*
X167160024Y-53012759D01*
X167160025Y-53012761D01*
X167200339Y-53145658D01*
X167208687Y-53173179D01*
X167225117Y-53340000D01*
X167208687Y-53506821D01*
X167160023Y-53667244D01*
X167081005Y-53815078D01*
X166974659Y-53944659D01*
X166845078Y-54051005D01*
X166697244Y-54130023D01*
X166697241Y-54130024D01*
X166697239Y-54130025D01*
X166536825Y-54178686D01*
X166536824Y-54178686D01*
X166536821Y-54178687D01*
X166411804Y-54191000D01*
X166328196Y-54191000D01*
X166203179Y-54178687D01*
X166203176Y-54178686D01*
X166203175Y-54178686D01*
X166042761Y-54130025D01*
X166042759Y-54130024D01*
X166042756Y-54130023D01*
X165894922Y-54051005D01*
X165765341Y-53944659D01*
X165658995Y-53815078D01*
X165579977Y-53667244D01*
X165531313Y-53506821D01*
X165514883Y-53340000D01*
X165531313Y-53173179D01*
X165539661Y-53145658D01*
X165579975Y-53012761D01*
X165579976Y-53012759D01*
X165579977Y-53012756D01*
X165658995Y-52864922D01*
X165765341Y-52735341D01*
X165894922Y-52628995D01*
X166042756Y-52549977D01*
X166042759Y-52549976D01*
X166042761Y-52549975D01*
X166203175Y-52501314D01*
X166203176Y-52501314D01*
X166203179Y-52501313D01*
X166328196Y-52489000D01*
X166411804Y-52489000D01*
X166536821Y-52501313D01*
X166536821Y-52501313D01*
G37*
G36*
X129694141Y-51770826D02*
X129767698Y-51778071D01*
X129909262Y-51821014D01*
X130039728Y-51890750D01*
X130154082Y-51984598D01*
X130247930Y-52098952D01*
X130317666Y-52229418D01*
X130360609Y-52370982D01*
X130375109Y-52518204D01*
X130360609Y-52665426D01*
X130317666Y-52806990D01*
X130247930Y-52937456D01*
X130154082Y-53051810D01*
X130039728Y-53145658D01*
X129909262Y-53215394D01*
X129767698Y-53258337D01*
X129694141Y-53265582D01*
X129657364Y-53269204D01*
X129583588Y-53269204D01*
X129546811Y-53265582D01*
X129473254Y-53258337D01*
X129331690Y-53215394D01*
X129201224Y-53145658D01*
X129086870Y-53051810D01*
X128993022Y-52937456D01*
X128923286Y-52806990D01*
X128880343Y-52665426D01*
X128865843Y-52518204D01*
X128880343Y-52370982D01*
X128923286Y-52229418D01*
X128993022Y-52098952D01*
X129086870Y-51984598D01*
X129201224Y-51890750D01*
X129331690Y-51821014D01*
X129473254Y-51778071D01*
X129546811Y-51770826D01*
X129583588Y-51767204D01*
X129657364Y-51767204D01*
X129694141Y-51770826D01*
X129694141Y-51770826D01*
G37*
G36*
X124669076Y-51778071D02*
X124759535Y-51796064D01*
X124896208Y-51852676D01*
X124953191Y-51890751D01*
X125019214Y-51934866D01*
X125123814Y-52039466D01*
X125123816Y-52039469D01*
X125206004Y-52162472D01*
X125262616Y-52299145D01*
X125274479Y-52358786D01*
X125291476Y-52444235D01*
X125291476Y-52592173D01*
X125284151Y-52628996D01*
X125262616Y-52737263D01*
X125206004Y-52873936D01*
X125124922Y-52995283D01*
X125123814Y-52996942D01*
X125019214Y-53101542D01*
X125019211Y-53101544D01*
X124896208Y-53183732D01*
X124759535Y-53240344D01*
X124672480Y-53257660D01*
X124614445Y-53269204D01*
X124466507Y-53269204D01*
X124408472Y-53257660D01*
X124321417Y-53240344D01*
X124184744Y-53183732D01*
X124061741Y-53101544D01*
X124061738Y-53101542D01*
X123957138Y-52996942D01*
X123956030Y-52995283D01*
X123874948Y-52873936D01*
X123818336Y-52737263D01*
X123796801Y-52628996D01*
X123789476Y-52592173D01*
X123789476Y-52444235D01*
X123806473Y-52358786D01*
X123818336Y-52299145D01*
X123874948Y-52162472D01*
X123957136Y-52039469D01*
X123957138Y-52039466D01*
X124061738Y-51934866D01*
X124127761Y-51890751D01*
X124184744Y-51852676D01*
X124321417Y-51796064D01*
X124411876Y-51778071D01*
X124466507Y-51767204D01*
X124614445Y-51767204D01*
X124669076Y-51778071D01*
X124669076Y-51778071D01*
G37*
G36*
X156283665Y-51322622D02*
X156357222Y-51329867D01*
X156498786Y-51372810D01*
X156629252Y-51442546D01*
X156743606Y-51536394D01*
X156837454Y-51650748D01*
X156907190Y-51781214D01*
X156950133Y-51922778D01*
X156964633Y-52070000D01*
X156950133Y-52217222D01*
X156907190Y-52358786D01*
X156837454Y-52489252D01*
X156743606Y-52603606D01*
X156629252Y-52697454D01*
X156498786Y-52767190D01*
X156357222Y-52810133D01*
X156283665Y-52817378D01*
X156246888Y-52821000D01*
X156173112Y-52821000D01*
X156136335Y-52817378D01*
X156062778Y-52810133D01*
X155921214Y-52767190D01*
X155790748Y-52697454D01*
X155676394Y-52603606D01*
X155582546Y-52489252D01*
X155512810Y-52358786D01*
X155469867Y-52217222D01*
X155455367Y-52070000D01*
X155469867Y-51922778D01*
X155512810Y-51781214D01*
X155582546Y-51650748D01*
X155676394Y-51536394D01*
X155790748Y-51442546D01*
X155921214Y-51372810D01*
X156062778Y-51329867D01*
X156136335Y-51322622D01*
X156173112Y-51319000D01*
X156246888Y-51319000D01*
X156283665Y-51322622D01*
X156283665Y-51322622D01*
G37*
G36*
X116371000Y-50106000D02*
X116206664Y-50106000D01*
X116182278Y-50108402D01*
X116158829Y-50115515D01*
X116137218Y-50127066D01*
X116118276Y-50142612D01*
X116102730Y-50161554D01*
X116091179Y-50183165D01*
X116084066Y-50206614D01*
X116081664Y-50231000D01*
X116084066Y-50255386D01*
X116091179Y-50278835D01*
X116102730Y-50300446D01*
X116127365Y-50327626D01*
X116204264Y-50390736D01*
X116276244Y-50478443D01*
X116329729Y-50578508D01*
X116362666Y-50687084D01*
X116373787Y-50800000D01*
X116362666Y-50912916D01*
X116329729Y-51021492D01*
X116329726Y-51021497D01*
X116276244Y-51121557D01*
X116204264Y-51209264D01*
X116116557Y-51281244D01*
X116035143Y-51324760D01*
X116014768Y-51338373D01*
X115997441Y-51355701D01*
X115983827Y-51376075D01*
X115974450Y-51398714D01*
X115969669Y-51422747D01*
X115969669Y-51447252D01*
X115974449Y-51471285D01*
X115983827Y-51493924D01*
X115997440Y-51514299D01*
X116014768Y-51531626D01*
X116035143Y-51545240D01*
X116116557Y-51588756D01*
X116204264Y-51660736D01*
X116276244Y-51748443D01*
X116329729Y-51848508D01*
X116362666Y-51957084D01*
X116373787Y-52070000D01*
X116362666Y-52182916D01*
X116329729Y-52291492D01*
X116276244Y-52391557D01*
X116204264Y-52479264D01*
X116116557Y-52551244D01*
X116016492Y-52604729D01*
X115907916Y-52637666D01*
X115823298Y-52646000D01*
X115316702Y-52646000D01*
X115232084Y-52637666D01*
X115123508Y-52604729D01*
X115023443Y-52551244D01*
X114935736Y-52479264D01*
X114863756Y-52391557D01*
X114810271Y-52291492D01*
X114777334Y-52182916D01*
X114766213Y-52070000D01*
X114777334Y-51957084D01*
X114810271Y-51848508D01*
X114863756Y-51748443D01*
X114935736Y-51660736D01*
X115023443Y-51588756D01*
X115104857Y-51545240D01*
X115125232Y-51531627D01*
X115142559Y-51514299D01*
X115156173Y-51493925D01*
X115165550Y-51471286D01*
X115170331Y-51447253D01*
X115170331Y-51422748D01*
X115165551Y-51398715D01*
X115156173Y-51376076D01*
X115142560Y-51355701D01*
X115125232Y-51338374D01*
X115104857Y-51324760D01*
X115023443Y-51281244D01*
X114935736Y-51209264D01*
X114863756Y-51121557D01*
X114810274Y-51021497D01*
X114810271Y-51021492D01*
X114777334Y-50912916D01*
X114766213Y-50800000D01*
X114777334Y-50687084D01*
X114810271Y-50578508D01*
X114863756Y-50478443D01*
X114935736Y-50390736D01*
X115012635Y-50327626D01*
X115029962Y-50310299D01*
X115043576Y-50289924D01*
X115052954Y-50267285D01*
X115057734Y-50243252D01*
X115057734Y-50218748D01*
X115052953Y-50194714D01*
X115043576Y-50172075D01*
X115029962Y-50151701D01*
X115012635Y-50134374D01*
X114992260Y-50120760D01*
X114969621Y-50111382D01*
X114933336Y-50106000D01*
X114769000Y-50106000D01*
X114769000Y-48954000D01*
X116371000Y-48954000D01*
X116371000Y-50106000D01*
X116371000Y-50106000D01*
G37*
G36*
X175392004Y-50060544D02*
X175479059Y-50077860D01*
X175615732Y-50134472D01*
X175615733Y-50134473D01*
X175738738Y-50216662D01*
X175843338Y-50321262D01*
X175843340Y-50321265D01*
X175925528Y-50444268D01*
X175982140Y-50580941D01*
X176011000Y-50726033D01*
X176011000Y-50873967D01*
X175982140Y-51019059D01*
X175925528Y-51155732D01*
X175925527Y-51155733D01*
X175843338Y-51278738D01*
X175738738Y-51383338D01*
X175738735Y-51383340D01*
X175615732Y-51465528D01*
X175479059Y-51522140D01*
X175392004Y-51539456D01*
X175333969Y-51551000D01*
X175186031Y-51551000D01*
X175127996Y-51539456D01*
X175040941Y-51522140D01*
X174904268Y-51465528D01*
X174781265Y-51383340D01*
X174781262Y-51383338D01*
X174676662Y-51278738D01*
X174594473Y-51155733D01*
X174594472Y-51155732D01*
X174537860Y-51019059D01*
X174509000Y-50873967D01*
X174509000Y-50726033D01*
X174537860Y-50580941D01*
X174594472Y-50444268D01*
X174676660Y-50321265D01*
X174676662Y-50321262D01*
X174781262Y-50216662D01*
X174904267Y-50134473D01*
X174904268Y-50134472D01*
X175040941Y-50077860D01*
X175127996Y-50060544D01*
X175186031Y-50049000D01*
X175333969Y-50049000D01*
X175392004Y-50060544D01*
X175392004Y-50060544D01*
G37*
G36*
X193113665Y-48782622D02*
X193187222Y-48789867D01*
X193328786Y-48832810D01*
X193459252Y-48902546D01*
X193573606Y-48996394D01*
X193667454Y-49110748D01*
X193737190Y-49241214D01*
X193780133Y-49382778D01*
X193794633Y-49530000D01*
X193780133Y-49677222D01*
X193737190Y-49818786D01*
X193667454Y-49949252D01*
X193573606Y-50063606D01*
X193459252Y-50157454D01*
X193328786Y-50227190D01*
X193187222Y-50270133D01*
X193113665Y-50277378D01*
X193076888Y-50281000D01*
X193003112Y-50281000D01*
X192966335Y-50277378D01*
X192892778Y-50270133D01*
X192751214Y-50227190D01*
X192620748Y-50157454D01*
X192506394Y-50063606D01*
X192412546Y-49949252D01*
X192342810Y-49818786D01*
X192299867Y-49677222D01*
X192285367Y-49530000D01*
X192299867Y-49382778D01*
X192342810Y-49241214D01*
X192412546Y-49110748D01*
X192506394Y-48996394D01*
X192620748Y-48902546D01*
X192751214Y-48832810D01*
X192892778Y-48789867D01*
X192966335Y-48782622D01*
X193003112Y-48779000D01*
X193076888Y-48779000D01*
X193113665Y-48782622D01*
X193113665Y-48782622D01*
G37*
G36*
X148663665Y-46242622D02*
X148737222Y-46249867D01*
X148878786Y-46292810D01*
X149009252Y-46362546D01*
X149123606Y-46456394D01*
X149217454Y-46570748D01*
X149287190Y-46701214D01*
X149330133Y-46842778D01*
X149344633Y-46990000D01*
X149330133Y-47137222D01*
X149287190Y-47278786D01*
X149217454Y-47409252D01*
X149123606Y-47523606D01*
X149009252Y-47617454D01*
X148878786Y-47687190D01*
X148737222Y-47730133D01*
X148663665Y-47737378D01*
X148626888Y-47741000D01*
X148553112Y-47741000D01*
X148516335Y-47737378D01*
X148442778Y-47730133D01*
X148301214Y-47687190D01*
X148170748Y-47617454D01*
X148056394Y-47523606D01*
X147962546Y-47409252D01*
X147892810Y-47278786D01*
X147849867Y-47137222D01*
X147835367Y-46990000D01*
X147849867Y-46842778D01*
X147892810Y-46701214D01*
X147962546Y-46570748D01*
X148056394Y-46456394D01*
X148170748Y-46362546D01*
X148301214Y-46292810D01*
X148442778Y-46249867D01*
X148516335Y-46242622D01*
X148553112Y-46239000D01*
X148626888Y-46239000D01*
X148663665Y-46242622D01*
X148663665Y-46242622D01*
G37*
G36*
X153798600Y-46249867D02*
X153889059Y-46267860D01*
X154025732Y-46324472D01*
X154082715Y-46362547D01*
X154148738Y-46406662D01*
X154253338Y-46511262D01*
X154253340Y-46511265D01*
X154335528Y-46634268D01*
X154392140Y-46770941D01*
X154421000Y-46916033D01*
X154421000Y-47063967D01*
X154392140Y-47209059D01*
X154335528Y-47345732D01*
X154254446Y-47467079D01*
X154253338Y-47468738D01*
X154148738Y-47573338D01*
X154148735Y-47573340D01*
X154025732Y-47655528D01*
X153889059Y-47712140D01*
X153802004Y-47729456D01*
X153743969Y-47741000D01*
X153596031Y-47741000D01*
X153537996Y-47729456D01*
X153450941Y-47712140D01*
X153314268Y-47655528D01*
X153191265Y-47573340D01*
X153191262Y-47573338D01*
X153086662Y-47468738D01*
X153085554Y-47467079D01*
X153004472Y-47345732D01*
X152947860Y-47209059D01*
X152919000Y-47063967D01*
X152919000Y-46916033D01*
X152947860Y-46770941D01*
X153004472Y-46634268D01*
X153086660Y-46511265D01*
X153086662Y-46511262D01*
X153191262Y-46406662D01*
X153257285Y-46362547D01*
X153314268Y-46324472D01*
X153450941Y-46267860D01*
X153541400Y-46249867D01*
X153596031Y-46239000D01*
X153743969Y-46239000D01*
X153798600Y-46249867D01*
X153798600Y-46249867D01*
G37*
G36*
X156338600Y-46249867D02*
X156429059Y-46267860D01*
X156565732Y-46324472D01*
X156622715Y-46362547D01*
X156688738Y-46406662D01*
X156793338Y-46511262D01*
X156793340Y-46511265D01*
X156875528Y-46634268D01*
X156932140Y-46770941D01*
X156961000Y-46916033D01*
X156961000Y-47063967D01*
X156932140Y-47209059D01*
X156875528Y-47345732D01*
X156794446Y-47467079D01*
X156793338Y-47468738D01*
X156688738Y-47573338D01*
X156688735Y-47573340D01*
X156565732Y-47655528D01*
X156429059Y-47712140D01*
X156342004Y-47729456D01*
X156283969Y-47741000D01*
X156136031Y-47741000D01*
X156077996Y-47729456D01*
X155990941Y-47712140D01*
X155854268Y-47655528D01*
X155731265Y-47573340D01*
X155731262Y-47573338D01*
X155626662Y-47468738D01*
X155625554Y-47467079D01*
X155544472Y-47345732D01*
X155487860Y-47209059D01*
X155459000Y-47063967D01*
X155459000Y-46916033D01*
X155487860Y-46770941D01*
X155544472Y-46634268D01*
X155626660Y-46511265D01*
X155626662Y-46511262D01*
X155731262Y-46406662D01*
X155797285Y-46362547D01*
X155854268Y-46324472D01*
X155990941Y-46267860D01*
X156081400Y-46249867D01*
X156136031Y-46239000D01*
X156283969Y-46239000D01*
X156338600Y-46249867D01*
X156338600Y-46249867D01*
G37*
G36*
X129868704Y-45349907D02*
X130023576Y-45414057D01*
X130162957Y-45507189D01*
X130281491Y-45625723D01*
X130374623Y-45765104D01*
X130438773Y-45919976D01*
X130471476Y-46084388D01*
X130471476Y-46252020D01*
X130438773Y-46416432D01*
X130374623Y-46571304D01*
X130281491Y-46710685D01*
X130162957Y-46829219D01*
X130023576Y-46922351D01*
X129868704Y-46986501D01*
X129704292Y-47019204D01*
X129536660Y-47019204D01*
X129372248Y-46986501D01*
X129217376Y-46922351D01*
X129077995Y-46829219D01*
X128959461Y-46710685D01*
X128866329Y-46571304D01*
X128802179Y-46416432D01*
X128769476Y-46252020D01*
X128769476Y-46084388D01*
X128802179Y-45919976D01*
X128866329Y-45765104D01*
X128959461Y-45625723D01*
X129077995Y-45507189D01*
X129217376Y-45414057D01*
X129372248Y-45349907D01*
X129536660Y-45317204D01*
X129704292Y-45317204D01*
X129868704Y-45349907D01*
X129868704Y-45349907D01*
G37*
G36*
X124868704Y-45349907D02*
X125023576Y-45414057D01*
X125162957Y-45507189D01*
X125281491Y-45625723D01*
X125374623Y-45765104D01*
X125438773Y-45919976D01*
X125471476Y-46084388D01*
X125471476Y-46252020D01*
X125438773Y-46416432D01*
X125374623Y-46571304D01*
X125281491Y-46710685D01*
X125162957Y-46829219D01*
X125023576Y-46922351D01*
X124868704Y-46986501D01*
X124704292Y-47019204D01*
X124536660Y-47019204D01*
X124372248Y-46986501D01*
X124217376Y-46922351D01*
X124077995Y-46829219D01*
X123959461Y-46710685D01*
X123866329Y-46571304D01*
X123802179Y-46416432D01*
X123769476Y-46252020D01*
X123769476Y-46084388D01*
X123802179Y-45919976D01*
X123866329Y-45765104D01*
X123959461Y-45625723D01*
X124077995Y-45507189D01*
X124217376Y-45414057D01*
X124372248Y-45349907D01*
X124536660Y-45317204D01*
X124704292Y-45317204D01*
X124868704Y-45349907D01*
X124868704Y-45349907D01*
G37*
G36*
X163996821Y-44881313D02*
X163996824Y-44881314D01*
X163996825Y-44881314D01*
X164157239Y-44929975D01*
X164157241Y-44929976D01*
X164157244Y-44929977D01*
X164305078Y-45008995D01*
X164434659Y-45115341D01*
X164541005Y-45244922D01*
X164620023Y-45392756D01*
X164620024Y-45392759D01*
X164620025Y-45392761D01*
X164668686Y-45553175D01*
X164668687Y-45553179D01*
X164685117Y-45720000D01*
X164668687Y-45886821D01*
X164668686Y-45886824D01*
X164668686Y-45886825D01*
X164631690Y-46008786D01*
X164620023Y-46047244D01*
X164541005Y-46195078D01*
X164434659Y-46324659D01*
X164305078Y-46431005D01*
X164157244Y-46510023D01*
X164157241Y-46510024D01*
X164157239Y-46510025D01*
X163996825Y-46558686D01*
X163996824Y-46558686D01*
X163996821Y-46558687D01*
X163871804Y-46571000D01*
X163788196Y-46571000D01*
X163663179Y-46558687D01*
X163663176Y-46558686D01*
X163663175Y-46558686D01*
X163502761Y-46510025D01*
X163502759Y-46510024D01*
X163502756Y-46510023D01*
X163354922Y-46431005D01*
X163225341Y-46324659D01*
X163118995Y-46195078D01*
X163039977Y-46047244D01*
X163028311Y-46008786D01*
X162991314Y-45886825D01*
X162991314Y-45886824D01*
X162991313Y-45886821D01*
X162974883Y-45720000D01*
X162991313Y-45553179D01*
X162991314Y-45553175D01*
X163039975Y-45392761D01*
X163039976Y-45392759D01*
X163039977Y-45392756D01*
X163118995Y-45244922D01*
X163225341Y-45115341D01*
X163354922Y-45008995D01*
X163502756Y-44929977D01*
X163502759Y-44929976D01*
X163502761Y-44929975D01*
X163663175Y-44881314D01*
X163663176Y-44881314D01*
X163663179Y-44881313D01*
X163788196Y-44869000D01*
X163871804Y-44869000D01*
X163996821Y-44881313D01*
X163996821Y-44881313D01*
G37*
G36*
X169761000Y-46571000D02*
X168059000Y-46571000D01*
X168059000Y-44869000D01*
X169761000Y-44869000D01*
X169761000Y-46571000D01*
X169761000Y-46571000D01*
G37*
G36*
X161456821Y-44881313D02*
X161456824Y-44881314D01*
X161456825Y-44881314D01*
X161617239Y-44929975D01*
X161617241Y-44929976D01*
X161617244Y-44929977D01*
X161765078Y-45008995D01*
X161894659Y-45115341D01*
X162001005Y-45244922D01*
X162080023Y-45392756D01*
X162080024Y-45392759D01*
X162080025Y-45392761D01*
X162128686Y-45553175D01*
X162128687Y-45553179D01*
X162145117Y-45720000D01*
X162128687Y-45886821D01*
X162128686Y-45886824D01*
X162128686Y-45886825D01*
X162091690Y-46008786D01*
X162080023Y-46047244D01*
X162001005Y-46195078D01*
X161894659Y-46324659D01*
X161765078Y-46431005D01*
X161617244Y-46510023D01*
X161617241Y-46510024D01*
X161617239Y-46510025D01*
X161456825Y-46558686D01*
X161456824Y-46558686D01*
X161456821Y-46558687D01*
X161331804Y-46571000D01*
X161248196Y-46571000D01*
X161123179Y-46558687D01*
X161123176Y-46558686D01*
X161123175Y-46558686D01*
X160962761Y-46510025D01*
X160962759Y-46510024D01*
X160962756Y-46510023D01*
X160814922Y-46431005D01*
X160685341Y-46324659D01*
X160578995Y-46195078D01*
X160499977Y-46047244D01*
X160488311Y-46008786D01*
X160451314Y-45886825D01*
X160451314Y-45886824D01*
X160451313Y-45886821D01*
X160434883Y-45720000D01*
X160451313Y-45553179D01*
X160451314Y-45553175D01*
X160499975Y-45392761D01*
X160499976Y-45392759D01*
X160499977Y-45392756D01*
X160578995Y-45244922D01*
X160685341Y-45115341D01*
X160814922Y-45008995D01*
X160962756Y-44929977D01*
X160962759Y-44929976D01*
X160962761Y-44929975D01*
X161123175Y-44881314D01*
X161123176Y-44881314D01*
X161123179Y-44881313D01*
X161248196Y-44869000D01*
X161331804Y-44869000D01*
X161456821Y-44881313D01*
X161456821Y-44881313D01*
G37*
G36*
X137326821Y-44881313D02*
X137326824Y-44881314D01*
X137326825Y-44881314D01*
X137487239Y-44929975D01*
X137487241Y-44929976D01*
X137487244Y-44929977D01*
X137635078Y-45008995D01*
X137764659Y-45115341D01*
X137871005Y-45244922D01*
X137950023Y-45392756D01*
X137950024Y-45392759D01*
X137950025Y-45392761D01*
X137998686Y-45553175D01*
X137998687Y-45553179D01*
X138015117Y-45720000D01*
X137998687Y-45886821D01*
X137998686Y-45886824D01*
X137998686Y-45886825D01*
X137961690Y-46008786D01*
X137950023Y-46047244D01*
X137871005Y-46195078D01*
X137764659Y-46324659D01*
X137635078Y-46431005D01*
X137487244Y-46510023D01*
X137487241Y-46510024D01*
X137487239Y-46510025D01*
X137326825Y-46558686D01*
X137326824Y-46558686D01*
X137326821Y-46558687D01*
X137201804Y-46571000D01*
X137118196Y-46571000D01*
X136993179Y-46558687D01*
X136993176Y-46558686D01*
X136993175Y-46558686D01*
X136832761Y-46510025D01*
X136832759Y-46510024D01*
X136832756Y-46510023D01*
X136684922Y-46431005D01*
X136555341Y-46324659D01*
X136448995Y-46195078D01*
X136369977Y-46047244D01*
X136358311Y-46008786D01*
X136321314Y-45886825D01*
X136321314Y-45886824D01*
X136321313Y-45886821D01*
X136304883Y-45720000D01*
X136321313Y-45553179D01*
X136321314Y-45553175D01*
X136369975Y-45392761D01*
X136369976Y-45392759D01*
X136369977Y-45392756D01*
X136448995Y-45244922D01*
X136555341Y-45115341D01*
X136684922Y-45008995D01*
X136832756Y-44929977D01*
X136832759Y-44929976D01*
X136832761Y-44929975D01*
X136993175Y-44881314D01*
X136993176Y-44881314D01*
X136993179Y-44881313D01*
X137118196Y-44869000D01*
X137201804Y-44869000D01*
X137326821Y-44881313D01*
X137326821Y-44881313D01*
G37*
G36*
X139866821Y-44881313D02*
X139866824Y-44881314D01*
X139866825Y-44881314D01*
X140027239Y-44929975D01*
X140027241Y-44929976D01*
X140027244Y-44929977D01*
X140175078Y-45008995D01*
X140304659Y-45115341D01*
X140411005Y-45244922D01*
X140490023Y-45392756D01*
X140490024Y-45392759D01*
X140490025Y-45392761D01*
X140538686Y-45553175D01*
X140538687Y-45553179D01*
X140555117Y-45720000D01*
X140538687Y-45886821D01*
X140538686Y-45886824D01*
X140538686Y-45886825D01*
X140501690Y-46008786D01*
X140490023Y-46047244D01*
X140411005Y-46195078D01*
X140304659Y-46324659D01*
X140175078Y-46431005D01*
X140027244Y-46510023D01*
X140027241Y-46510024D01*
X140027239Y-46510025D01*
X139866825Y-46558686D01*
X139866824Y-46558686D01*
X139866821Y-46558687D01*
X139741804Y-46571000D01*
X139658196Y-46571000D01*
X139533179Y-46558687D01*
X139533176Y-46558686D01*
X139533175Y-46558686D01*
X139372761Y-46510025D01*
X139372759Y-46510024D01*
X139372756Y-46510023D01*
X139224922Y-46431005D01*
X139095341Y-46324659D01*
X138988995Y-46195078D01*
X138909977Y-46047244D01*
X138898311Y-46008786D01*
X138861314Y-45886825D01*
X138861314Y-45886824D01*
X138861313Y-45886821D01*
X138844883Y-45720000D01*
X138861313Y-45553179D01*
X138861314Y-45553175D01*
X138909975Y-45392761D01*
X138909976Y-45392759D01*
X138909977Y-45392756D01*
X138988995Y-45244922D01*
X139095341Y-45115341D01*
X139224922Y-45008995D01*
X139372756Y-44929977D01*
X139372759Y-44929976D01*
X139372761Y-44929975D01*
X139533175Y-44881314D01*
X139533176Y-44881314D01*
X139533179Y-44881313D01*
X139658196Y-44869000D01*
X139741804Y-44869000D01*
X139866821Y-44881313D01*
X139866821Y-44881313D01*
G37*
G36*
X142406821Y-44881313D02*
X142406824Y-44881314D01*
X142406825Y-44881314D01*
X142567239Y-44929975D01*
X142567241Y-44929976D01*
X142567244Y-44929977D01*
X142715078Y-45008995D01*
X142844659Y-45115341D01*
X142951005Y-45244922D01*
X143030023Y-45392756D01*
X143030024Y-45392759D01*
X143030025Y-45392761D01*
X143078686Y-45553175D01*
X143078687Y-45553179D01*
X143095117Y-45720000D01*
X143078687Y-45886821D01*
X143078686Y-45886824D01*
X143078686Y-45886825D01*
X143041690Y-46008786D01*
X143030023Y-46047244D01*
X142951005Y-46195078D01*
X142844659Y-46324659D01*
X142715078Y-46431005D01*
X142567244Y-46510023D01*
X142567241Y-46510024D01*
X142567239Y-46510025D01*
X142406825Y-46558686D01*
X142406824Y-46558686D01*
X142406821Y-46558687D01*
X142281804Y-46571000D01*
X142198196Y-46571000D01*
X142073179Y-46558687D01*
X142073176Y-46558686D01*
X142073175Y-46558686D01*
X141912761Y-46510025D01*
X141912759Y-46510024D01*
X141912756Y-46510023D01*
X141764922Y-46431005D01*
X141635341Y-46324659D01*
X141528995Y-46195078D01*
X141449977Y-46047244D01*
X141438311Y-46008786D01*
X141401314Y-45886825D01*
X141401314Y-45886824D01*
X141401313Y-45886821D01*
X141384883Y-45720000D01*
X141401313Y-45553179D01*
X141401314Y-45553175D01*
X141449975Y-45392761D01*
X141449976Y-45392759D01*
X141449977Y-45392756D01*
X141528995Y-45244922D01*
X141635341Y-45115341D01*
X141764922Y-45008995D01*
X141912756Y-44929977D01*
X141912759Y-44929976D01*
X141912761Y-44929975D01*
X142073175Y-44881314D01*
X142073176Y-44881314D01*
X142073179Y-44881313D01*
X142198196Y-44869000D01*
X142281804Y-44869000D01*
X142406821Y-44881313D01*
X142406821Y-44881313D01*
G37*
G36*
X145631000Y-46571000D02*
X143929000Y-46571000D01*
X143929000Y-44869000D01*
X145631000Y-44869000D01*
X145631000Y-46571000D01*
X145631000Y-46571000D01*
G37*
G36*
X166536821Y-44881313D02*
X166536824Y-44881314D01*
X166536825Y-44881314D01*
X166697239Y-44929975D01*
X166697241Y-44929976D01*
X166697244Y-44929977D01*
X166845078Y-45008995D01*
X166974659Y-45115341D01*
X167081005Y-45244922D01*
X167160023Y-45392756D01*
X167160024Y-45392759D01*
X167160025Y-45392761D01*
X167208686Y-45553175D01*
X167208687Y-45553179D01*
X167225117Y-45720000D01*
X167208687Y-45886821D01*
X167208686Y-45886824D01*
X167208686Y-45886825D01*
X167171690Y-46008786D01*
X167160023Y-46047244D01*
X167081005Y-46195078D01*
X166974659Y-46324659D01*
X166845078Y-46431005D01*
X166697244Y-46510023D01*
X166697241Y-46510024D01*
X166697239Y-46510025D01*
X166536825Y-46558686D01*
X166536824Y-46558686D01*
X166536821Y-46558687D01*
X166411804Y-46571000D01*
X166328196Y-46571000D01*
X166203179Y-46558687D01*
X166203176Y-46558686D01*
X166203175Y-46558686D01*
X166042761Y-46510025D01*
X166042759Y-46510024D01*
X166042756Y-46510023D01*
X165894922Y-46431005D01*
X165765341Y-46324659D01*
X165658995Y-46195078D01*
X165579977Y-46047244D01*
X165568311Y-46008786D01*
X165531314Y-45886825D01*
X165531314Y-45886824D01*
X165531313Y-45886821D01*
X165514883Y-45720000D01*
X165531313Y-45553179D01*
X165531314Y-45553175D01*
X165579975Y-45392761D01*
X165579976Y-45392759D01*
X165579977Y-45392756D01*
X165658995Y-45244922D01*
X165765341Y-45115341D01*
X165894922Y-45008995D01*
X166042756Y-44929977D01*
X166042759Y-44929976D01*
X166042761Y-44929975D01*
X166203175Y-44881314D01*
X166203176Y-44881314D01*
X166203179Y-44881313D01*
X166328196Y-44869000D01*
X166411804Y-44869000D01*
X166536821Y-44881313D01*
X166536821Y-44881313D01*
G37*
G36*
X180468600Y-44979867D02*
X180559059Y-44997860D01*
X180695732Y-45054472D01*
X180752715Y-45092547D01*
X180818738Y-45136662D01*
X180923338Y-45241262D01*
X180923340Y-45241265D01*
X181005528Y-45364268D01*
X181062140Y-45500941D01*
X181091000Y-45646033D01*
X181091000Y-45793967D01*
X181062140Y-45939059D01*
X181005528Y-46075732D01*
X180925784Y-46195078D01*
X180923338Y-46198738D01*
X180818738Y-46303338D01*
X180818735Y-46303340D01*
X180695732Y-46385528D01*
X180559059Y-46442140D01*
X180472004Y-46459456D01*
X180413969Y-46471000D01*
X180266031Y-46471000D01*
X180207996Y-46459456D01*
X180120941Y-46442140D01*
X179984268Y-46385528D01*
X179861265Y-46303340D01*
X179861262Y-46303338D01*
X179756662Y-46198738D01*
X179754216Y-46195078D01*
X179674472Y-46075732D01*
X179617860Y-45939059D01*
X179589000Y-45793967D01*
X179589000Y-45646033D01*
X179617860Y-45500941D01*
X179674472Y-45364268D01*
X179756660Y-45241265D01*
X179756662Y-45241262D01*
X179861262Y-45136662D01*
X179927285Y-45092547D01*
X179984268Y-45054472D01*
X180120941Y-44997860D01*
X180211400Y-44979867D01*
X180266031Y-44969000D01*
X180413969Y-44969000D01*
X180468600Y-44979867D01*
X180468600Y-44979867D01*
G37*
G36*
X175333665Y-44972622D02*
X175407222Y-44979867D01*
X175548786Y-45022810D01*
X175679252Y-45092546D01*
X175793606Y-45186394D01*
X175887454Y-45300748D01*
X175957190Y-45431214D01*
X176000133Y-45572778D01*
X176014633Y-45720000D01*
X176000133Y-45867222D01*
X175957190Y-46008786D01*
X175887454Y-46139252D01*
X175793606Y-46253606D01*
X175679252Y-46347454D01*
X175548786Y-46417190D01*
X175407222Y-46460133D01*
X175333665Y-46467378D01*
X175296888Y-46471000D01*
X175223112Y-46471000D01*
X175186335Y-46467378D01*
X175112778Y-46460133D01*
X174971214Y-46417190D01*
X174840748Y-46347454D01*
X174726394Y-46253606D01*
X174632546Y-46139252D01*
X174562810Y-46008786D01*
X174519867Y-45867222D01*
X174505367Y-45720000D01*
X174519867Y-45572778D01*
X174562810Y-45431214D01*
X174632546Y-45300748D01*
X174726394Y-45186394D01*
X174840748Y-45092546D01*
X174971214Y-45022810D01*
X175112778Y-44979867D01*
X175186335Y-44972622D01*
X175223112Y-44969000D01*
X175296888Y-44969000D01*
X175333665Y-44972622D01*
X175333665Y-44972622D01*
G37*
G36*
X193172004Y-43710544D02*
X193259059Y-43727860D01*
X193395732Y-43784472D01*
X193395733Y-43784473D01*
X193518738Y-43866662D01*
X193623338Y-43971262D01*
X193623340Y-43971265D01*
X193705528Y-44094268D01*
X193762140Y-44230941D01*
X193791000Y-44376033D01*
X193791000Y-44523967D01*
X193762140Y-44669059D01*
X193705528Y-44805732D01*
X193705527Y-44805733D01*
X193623338Y-44928738D01*
X193518738Y-45033338D01*
X193518735Y-45033340D01*
X193395732Y-45115528D01*
X193259059Y-45172140D01*
X193172004Y-45189456D01*
X193113969Y-45201000D01*
X192966031Y-45201000D01*
X192907996Y-45189456D01*
X192820941Y-45172140D01*
X192684268Y-45115528D01*
X192561265Y-45033340D01*
X192561262Y-45033338D01*
X192456662Y-44928738D01*
X192374473Y-44805733D01*
X192374472Y-44805732D01*
X192317860Y-44669059D01*
X192289000Y-44523967D01*
X192289000Y-44376033D01*
X192317860Y-44230941D01*
X192374472Y-44094268D01*
X192456660Y-43971265D01*
X192456662Y-43971262D01*
X192561262Y-43866662D01*
X192684267Y-43784473D01*
X192684268Y-43784472D01*
X192820941Y-43727860D01*
X192907996Y-43710544D01*
X192966031Y-43699000D01*
X193113969Y-43699000D01*
X193172004Y-43710544D01*
X193172004Y-43710544D01*
G37*
G36*
X180472004Y-42480544D02*
X180559059Y-42497860D01*
X180695732Y-42554472D01*
X180695733Y-42554473D01*
X180818738Y-42636662D01*
X180923338Y-42741262D01*
X180923340Y-42741265D01*
X181005528Y-42864268D01*
X181062140Y-43000941D01*
X181091000Y-43146033D01*
X181091000Y-43293967D01*
X181062140Y-43439059D01*
X181005528Y-43575732D01*
X181005527Y-43575733D01*
X180923338Y-43698738D01*
X180818738Y-43803338D01*
X180818735Y-43803340D01*
X180695732Y-43885528D01*
X180559059Y-43942140D01*
X180472004Y-43959456D01*
X180413969Y-43971000D01*
X180266031Y-43971000D01*
X180207996Y-43959456D01*
X180120941Y-43942140D01*
X179984268Y-43885528D01*
X179861265Y-43803340D01*
X179861262Y-43803338D01*
X179756662Y-43698738D01*
X179674473Y-43575733D01*
X179674472Y-43575732D01*
X179617860Y-43439059D01*
X179589000Y-43293967D01*
X179589000Y-43146033D01*
X179617860Y-43000941D01*
X179674472Y-42864268D01*
X179756660Y-42741265D01*
X179756662Y-42741262D01*
X179861262Y-42636662D01*
X179984267Y-42554473D01*
X179984268Y-42554472D01*
X180120941Y-42497860D01*
X180207996Y-42480544D01*
X180266031Y-42469000D01*
X180413969Y-42469000D01*
X180472004Y-42480544D01*
X180472004Y-42480544D01*
G37*
G36*
X125510490Y-41690490D02*
X123409510Y-41690490D01*
X123409510Y-39589510D01*
X125510490Y-39589510D01*
X125510490Y-41690490D01*
X125510490Y-41690490D01*
G37*
G36*
X128576414Y-39629879D02*
X128576416Y-39629880D01*
X128576417Y-39629880D01*
X128646202Y-39658786D01*
X128767594Y-39709068D01*
X128939651Y-39824033D01*
X129085967Y-39970349D01*
X129200932Y-40142406D01*
X129280121Y-40333586D01*
X129320490Y-40536534D01*
X129320490Y-40743466D01*
X129280121Y-40946414D01*
X129200932Y-41137594D01*
X129085967Y-41309651D01*
X128939651Y-41455967D01*
X128939648Y-41455969D01*
X128767594Y-41570932D01*
X128576417Y-41650120D01*
X128576416Y-41650120D01*
X128576414Y-41650121D01*
X128373466Y-41690490D01*
X128166534Y-41690490D01*
X127963586Y-41650121D01*
X127963584Y-41650120D01*
X127963583Y-41650120D01*
X127772406Y-41570932D01*
X127600352Y-41455969D01*
X127600349Y-41455967D01*
X127454033Y-41309651D01*
X127339068Y-41137594D01*
X127259879Y-40946414D01*
X127219510Y-40743466D01*
X127219510Y-40536534D01*
X127259879Y-40333586D01*
X127339068Y-40142406D01*
X127454033Y-39970349D01*
X127600349Y-39824033D01*
X127772406Y-39709068D01*
X127893798Y-39658786D01*
X127963583Y-39629880D01*
X127963584Y-39629880D01*
X127963586Y-39629879D01*
X128166534Y-39589510D01*
X128373466Y-39589510D01*
X128576414Y-39629879D01*
X128576414Y-39629879D01*
G37*
G36*
X191288228Y-38551703D02*
X191443100Y-38615853D01*
X191582481Y-38708985D01*
X191701015Y-38827519D01*
X191794147Y-38966900D01*
X191858297Y-39121772D01*
X191891000Y-39286184D01*
X191891000Y-39453816D01*
X191858297Y-39618228D01*
X191794147Y-39773100D01*
X191701015Y-39912481D01*
X191582481Y-40031015D01*
X191443100Y-40124147D01*
X191288228Y-40188297D01*
X191123816Y-40221000D01*
X190956184Y-40221000D01*
X190791772Y-40188297D01*
X190636900Y-40124147D01*
X190497519Y-40031015D01*
X190378985Y-39912481D01*
X190285853Y-39773100D01*
X190221703Y-39618228D01*
X190189000Y-39453816D01*
X190189000Y-39286184D01*
X190221703Y-39121772D01*
X190285853Y-38966900D01*
X190378985Y-38827519D01*
X190497519Y-38708985D01*
X190636900Y-38615853D01*
X190791772Y-38551703D01*
X190956184Y-38519000D01*
X191123816Y-38519000D01*
X191288228Y-38551703D01*
X191288228Y-38551703D01*
G37*
G36*
X193288228Y-38551703D02*
X193443100Y-38615853D01*
X193582481Y-38708985D01*
X193701015Y-38827519D01*
X193794147Y-38966900D01*
X193858297Y-39121772D01*
X193891000Y-39286184D01*
X193891000Y-39453816D01*
X193858297Y-39618228D01*
X193794147Y-39773100D01*
X193701015Y-39912481D01*
X193582481Y-40031015D01*
X193443100Y-40124147D01*
X193288228Y-40188297D01*
X193123816Y-40221000D01*
X192956184Y-40221000D01*
X192791772Y-40188297D01*
X192636900Y-40124147D01*
X192497519Y-40031015D01*
X192378985Y-39912481D01*
X192285853Y-39773100D01*
X192221703Y-39618228D01*
X192189000Y-39453816D01*
X192189000Y-39286184D01*
X192221703Y-39121772D01*
X192285853Y-38966900D01*
X192378985Y-38827519D01*
X192497519Y-38708985D01*
X192636900Y-38615853D01*
X192791772Y-38551703D01*
X192956184Y-38519000D01*
X193123816Y-38519000D01*
X193288228Y-38551703D01*
X193288228Y-38551703D01*
G37*
G36*
X167713665Y-38622622D02*
X167787222Y-38629867D01*
X167928786Y-38672810D01*
X168059252Y-38742546D01*
X168173606Y-38836394D01*
X168267454Y-38950748D01*
X168337190Y-39081214D01*
X168380133Y-39222778D01*
X168394633Y-39370000D01*
X168380133Y-39517222D01*
X168337190Y-39658786D01*
X168267454Y-39789252D01*
X168173606Y-39903606D01*
X168059252Y-39997454D01*
X167928786Y-40067190D01*
X167787222Y-40110133D01*
X167713665Y-40117378D01*
X167676888Y-40121000D01*
X167603112Y-40121000D01*
X167566335Y-40117378D01*
X167492778Y-40110133D01*
X167351214Y-40067190D01*
X167220748Y-39997454D01*
X167106394Y-39903606D01*
X167012546Y-39789252D01*
X166942810Y-39658786D01*
X166899867Y-39517222D01*
X166885367Y-39370000D01*
X166899867Y-39222778D01*
X166942810Y-39081214D01*
X167012546Y-38950748D01*
X167106394Y-38836394D01*
X167220748Y-38742546D01*
X167351214Y-38672810D01*
X167492778Y-38629867D01*
X167566335Y-38622622D01*
X167603112Y-38619000D01*
X167676888Y-38619000D01*
X167713665Y-38622622D01*
X167713665Y-38622622D01*
G37*
G36*
X161418600Y-38629867D02*
X161509059Y-38647860D01*
X161645732Y-38704472D01*
X161737107Y-38765527D01*
X161768738Y-38786662D01*
X161873338Y-38891262D01*
X161873340Y-38891265D01*
X161955528Y-39014268D01*
X162012140Y-39150941D01*
X162041000Y-39296033D01*
X162041000Y-39443967D01*
X162012140Y-39589059D01*
X161955528Y-39725732D01*
X161889847Y-39824031D01*
X161873338Y-39848738D01*
X161768738Y-39953338D01*
X161768735Y-39953340D01*
X161645732Y-40035528D01*
X161509059Y-40092140D01*
X161422004Y-40109456D01*
X161363969Y-40121000D01*
X161216031Y-40121000D01*
X161157996Y-40109456D01*
X161070941Y-40092140D01*
X160934268Y-40035528D01*
X160811265Y-39953340D01*
X160811262Y-39953338D01*
X160706662Y-39848738D01*
X160690153Y-39824031D01*
X160624472Y-39725732D01*
X160567860Y-39589059D01*
X160539000Y-39443967D01*
X160539000Y-39296033D01*
X160567860Y-39150941D01*
X160624472Y-39014268D01*
X160706660Y-38891265D01*
X160706662Y-38891262D01*
X160811262Y-38786662D01*
X160842893Y-38765527D01*
X160934268Y-38704472D01*
X161070941Y-38647860D01*
X161161400Y-38629867D01*
X161216031Y-38619000D01*
X161363969Y-38619000D01*
X161418600Y-38629867D01*
X161418600Y-38629867D01*
G37*
G36*
X172968228Y-37281703D02*
X173123100Y-37345853D01*
X173262481Y-37438985D01*
X173381015Y-37557519D01*
X173474147Y-37696900D01*
X173538297Y-37851772D01*
X173571000Y-38016184D01*
X173571000Y-38183816D01*
X173538297Y-38348228D01*
X173474147Y-38503100D01*
X173381015Y-38642481D01*
X173262481Y-38761015D01*
X173123100Y-38854147D01*
X172968228Y-38918297D01*
X172803816Y-38951000D01*
X172636184Y-38951000D01*
X172471772Y-38918297D01*
X172316900Y-38854147D01*
X172177519Y-38761015D01*
X172058985Y-38642481D01*
X171965853Y-38503100D01*
X171901703Y-38348228D01*
X171869000Y-38183816D01*
X171869000Y-38016184D01*
X171901703Y-37851772D01*
X171965853Y-37696900D01*
X172058985Y-37557519D01*
X172177519Y-37438985D01*
X172316900Y-37345853D01*
X172471772Y-37281703D01*
X172636184Y-37249000D01*
X172803816Y-37249000D01*
X172968228Y-37281703D01*
X172968228Y-37281703D01*
G37*
G36*
X180472004Y-37360544D02*
X180559059Y-37377860D01*
X180695732Y-37434472D01*
X180817079Y-37515554D01*
X180818738Y-37516662D01*
X180923338Y-37621262D01*
X180923340Y-37621265D01*
X181005528Y-37744268D01*
X181062140Y-37880941D01*
X181091000Y-38026033D01*
X181091000Y-38173967D01*
X181062140Y-38319059D01*
X181005528Y-38455732D01*
X180924446Y-38577079D01*
X180923338Y-38578738D01*
X180818738Y-38683338D01*
X180818735Y-38683340D01*
X180695732Y-38765528D01*
X180559059Y-38822140D01*
X180472004Y-38839456D01*
X180413969Y-38851000D01*
X180266031Y-38851000D01*
X180207996Y-38839456D01*
X180120941Y-38822140D01*
X179984268Y-38765528D01*
X179861265Y-38683340D01*
X179861262Y-38683338D01*
X179756662Y-38578738D01*
X179755554Y-38577079D01*
X179674472Y-38455732D01*
X179617860Y-38319059D01*
X179589000Y-38173967D01*
X179589000Y-38026033D01*
X179617860Y-37880941D01*
X179674472Y-37744268D01*
X179756660Y-37621265D01*
X179756662Y-37621262D01*
X179861262Y-37516662D01*
X179862921Y-37515554D01*
X179984268Y-37434472D01*
X180120941Y-37377860D01*
X180207996Y-37360544D01*
X180266031Y-37349000D01*
X180413969Y-37349000D01*
X180472004Y-37360544D01*
X180472004Y-37360544D01*
G37*
G36*
X172968228Y-34781703D02*
X173123100Y-34845853D01*
X173262481Y-34938985D01*
X173381015Y-35057519D01*
X173474147Y-35196900D01*
X173538297Y-35351772D01*
X173571000Y-35516184D01*
X173571000Y-35683816D01*
X173538297Y-35848228D01*
X173474147Y-36003100D01*
X173381015Y-36142481D01*
X173262481Y-36261015D01*
X173123100Y-36354147D01*
X172968228Y-36418297D01*
X172803816Y-36451000D01*
X172636184Y-36451000D01*
X172471772Y-36418297D01*
X172316900Y-36354147D01*
X172177519Y-36261015D01*
X172058985Y-36142481D01*
X171965853Y-36003100D01*
X171901703Y-35848228D01*
X171869000Y-35683816D01*
X171869000Y-35516184D01*
X171901703Y-35351772D01*
X171965853Y-35196900D01*
X172058985Y-35057519D01*
X172177519Y-34938985D01*
X172316900Y-34845853D01*
X172471772Y-34781703D01*
X172636184Y-34749000D01*
X172803816Y-34749000D01*
X172968228Y-34781703D01*
X172968228Y-34781703D01*
G37*
G36*
X180472004Y-34860544D02*
X180559059Y-34877860D01*
X180695732Y-34934472D01*
X180733415Y-34959651D01*
X180818738Y-35016662D01*
X180923338Y-35121262D01*
X180923340Y-35121265D01*
X181005528Y-35244268D01*
X181062140Y-35380941D01*
X181091000Y-35526033D01*
X181091000Y-35673967D01*
X181062140Y-35819059D01*
X181005528Y-35955732D01*
X181005527Y-35955733D01*
X180923338Y-36078738D01*
X180818738Y-36183338D01*
X180818735Y-36183340D01*
X180695732Y-36265528D01*
X180559059Y-36322140D01*
X180472004Y-36339456D01*
X180413969Y-36351000D01*
X180266031Y-36351000D01*
X180207996Y-36339456D01*
X180120941Y-36322140D01*
X179984268Y-36265528D01*
X179861265Y-36183340D01*
X179861262Y-36183338D01*
X179756662Y-36078738D01*
X179674473Y-35955733D01*
X179674472Y-35955732D01*
X179617860Y-35819059D01*
X179589000Y-35673967D01*
X179589000Y-35526033D01*
X179617860Y-35380941D01*
X179674472Y-35244268D01*
X179756660Y-35121265D01*
X179756662Y-35121262D01*
X179861262Y-35016662D01*
X179946585Y-34959651D01*
X179984268Y-34934472D01*
X180120941Y-34877860D01*
X180207996Y-34860544D01*
X180266031Y-34849000D01*
X180413969Y-34849000D01*
X180472004Y-34860544D01*
X180472004Y-34860544D01*
G37*
G36*
X150166414Y-33279879D02*
X150166416Y-33279880D01*
X150166417Y-33279880D01*
X150278760Y-33326414D01*
X150357594Y-33359068D01*
X150529651Y-33474033D01*
X150675967Y-33620349D01*
X150675969Y-33620352D01*
X150790932Y-33792406D01*
X150856596Y-33950932D01*
X150870121Y-33983586D01*
X150910490Y-34186534D01*
X150910490Y-34393466D01*
X150887498Y-34509056D01*
X150870120Y-34596417D01*
X150823382Y-34709252D01*
X150790932Y-34787594D01*
X150675967Y-34959651D01*
X150529651Y-35105967D01*
X150529648Y-35105969D01*
X150357594Y-35220932D01*
X150166417Y-35300120D01*
X150166416Y-35300120D01*
X150166414Y-35300121D01*
X149963466Y-35340490D01*
X149756534Y-35340490D01*
X149553586Y-35300121D01*
X149553584Y-35300120D01*
X149553583Y-35300120D01*
X149362406Y-35220932D01*
X149190352Y-35105969D01*
X149190349Y-35105967D01*
X149044033Y-34959651D01*
X148929068Y-34787594D01*
X148896618Y-34709252D01*
X148849880Y-34596417D01*
X148832503Y-34509056D01*
X148809510Y-34393466D01*
X148809510Y-34186534D01*
X148849879Y-33983586D01*
X148863405Y-33950932D01*
X148929068Y-33792406D01*
X149044031Y-33620352D01*
X149044033Y-33620349D01*
X149190349Y-33474033D01*
X149362406Y-33359068D01*
X149441240Y-33326414D01*
X149553583Y-33279880D01*
X149553584Y-33279880D01*
X149553586Y-33279879D01*
X149756534Y-33239510D01*
X149963466Y-33239510D01*
X150166414Y-33279879D01*
X150166414Y-33279879D01*
G37*
G36*
X154720490Y-35340490D02*
X152619510Y-35340490D01*
X152619510Y-33239510D01*
X154720490Y-33239510D01*
X154720490Y-35340490D01*
X154720490Y-35340490D01*
G37*
G36*
X139773665Y-33542622D02*
X139847222Y-33549867D01*
X139988786Y-33592810D01*
X140119252Y-33662546D01*
X140233606Y-33756394D01*
X140327454Y-33870748D01*
X140397190Y-34001214D01*
X140440133Y-34142778D01*
X140454633Y-34290000D01*
X140440133Y-34437222D01*
X140397190Y-34578786D01*
X140327454Y-34709252D01*
X140233606Y-34823606D01*
X140119252Y-34917454D01*
X139988786Y-34987190D01*
X139847222Y-35030133D01*
X139773665Y-35037378D01*
X139736888Y-35041000D01*
X139663112Y-35041000D01*
X139626335Y-35037378D01*
X139552778Y-35030133D01*
X139411214Y-34987190D01*
X139280748Y-34917454D01*
X139166394Y-34823606D01*
X139072546Y-34709252D01*
X139002810Y-34578786D01*
X138959867Y-34437222D01*
X138945367Y-34290000D01*
X138959867Y-34142778D01*
X139002810Y-34001214D01*
X139072546Y-33870748D01*
X139166394Y-33756394D01*
X139280748Y-33662546D01*
X139411214Y-33592810D01*
X139552778Y-33549867D01*
X139626335Y-33542622D01*
X139663112Y-33539000D01*
X139736888Y-33539000D01*
X139773665Y-33542622D01*
X139773665Y-33542622D01*
G37*
G36*
X130883665Y-33542622D02*
X130957222Y-33549867D01*
X131098786Y-33592810D01*
X131229252Y-33662546D01*
X131343606Y-33756394D01*
X131437454Y-33870748D01*
X131507190Y-34001214D01*
X131550133Y-34142778D01*
X131564633Y-34290000D01*
X131550133Y-34437222D01*
X131507190Y-34578786D01*
X131437454Y-34709252D01*
X131343606Y-34823606D01*
X131229252Y-34917454D01*
X131098786Y-34987190D01*
X130957222Y-35030133D01*
X130883665Y-35037378D01*
X130846888Y-35041000D01*
X130773112Y-35041000D01*
X130736335Y-35037378D01*
X130662778Y-35030133D01*
X130521214Y-34987190D01*
X130390748Y-34917454D01*
X130276394Y-34823606D01*
X130182546Y-34709252D01*
X130112810Y-34578786D01*
X130069867Y-34437222D01*
X130055367Y-34290000D01*
X130069867Y-34142778D01*
X130112810Y-34001214D01*
X130182546Y-33870748D01*
X130276394Y-33756394D01*
X130390748Y-33662546D01*
X130521214Y-33592810D01*
X130662778Y-33549867D01*
X130736335Y-33542622D01*
X130773112Y-33539000D01*
X130846888Y-33539000D01*
X130883665Y-33542622D01*
X130883665Y-33542622D01*
G37*
G36*
X121993665Y-33542622D02*
X122067222Y-33549867D01*
X122208786Y-33592810D01*
X122339252Y-33662546D01*
X122453606Y-33756394D01*
X122547454Y-33870748D01*
X122617190Y-34001214D01*
X122660133Y-34142778D01*
X122674633Y-34290000D01*
X122660133Y-34437222D01*
X122617190Y-34578786D01*
X122547454Y-34709252D01*
X122453606Y-34823606D01*
X122339252Y-34917454D01*
X122208786Y-34987190D01*
X122067222Y-35030133D01*
X121993665Y-35037378D01*
X121956888Y-35041000D01*
X121883112Y-35041000D01*
X121846335Y-35037378D01*
X121772778Y-35030133D01*
X121631214Y-34987190D01*
X121500748Y-34917454D01*
X121386394Y-34823606D01*
X121292546Y-34709252D01*
X121222810Y-34578786D01*
X121179867Y-34437222D01*
X121165367Y-34290000D01*
X121179867Y-34142778D01*
X121222810Y-34001214D01*
X121292546Y-33870748D01*
X121386394Y-33756394D01*
X121500748Y-33662546D01*
X121631214Y-33592810D01*
X121772778Y-33549867D01*
X121846335Y-33542622D01*
X121883112Y-33539000D01*
X121956888Y-33539000D01*
X121993665Y-33542622D01*
X121993665Y-33542622D01*
G37*
G36*
X125858600Y-33549867D02*
X125949059Y-33567860D01*
X126085732Y-33624472D01*
X126142715Y-33662547D01*
X126208738Y-33706662D01*
X126313338Y-33811262D01*
X126313340Y-33811265D01*
X126395528Y-33934268D01*
X126452140Y-34070941D01*
X126466429Y-34142778D01*
X126481000Y-34216031D01*
X126481000Y-34363969D01*
X126469456Y-34422004D01*
X126452140Y-34509059D01*
X126395528Y-34645732D01*
X126314446Y-34767079D01*
X126313338Y-34768738D01*
X126208738Y-34873338D01*
X126208735Y-34873340D01*
X126085732Y-34955528D01*
X125949059Y-35012140D01*
X125862004Y-35029456D01*
X125803969Y-35041000D01*
X125656031Y-35041000D01*
X125597996Y-35029456D01*
X125510941Y-35012140D01*
X125374268Y-34955528D01*
X125251265Y-34873340D01*
X125251262Y-34873338D01*
X125146662Y-34768738D01*
X125145554Y-34767079D01*
X125064472Y-34645732D01*
X125007860Y-34509059D01*
X124990544Y-34422004D01*
X124979000Y-34363969D01*
X124979000Y-34216031D01*
X124993571Y-34142778D01*
X125007860Y-34070941D01*
X125064472Y-33934268D01*
X125146660Y-33811265D01*
X125146662Y-33811262D01*
X125251262Y-33706662D01*
X125317285Y-33662547D01*
X125374268Y-33624472D01*
X125510941Y-33567860D01*
X125601400Y-33549867D01*
X125656031Y-33539000D01*
X125803969Y-33539000D01*
X125858600Y-33549867D01*
X125858600Y-33549867D01*
G37*
G36*
X161363665Y-33542622D02*
X161437222Y-33549867D01*
X161578786Y-33592810D01*
X161709252Y-33662546D01*
X161823606Y-33756394D01*
X161917454Y-33870748D01*
X161987190Y-34001214D01*
X162030133Y-34142778D01*
X162044633Y-34290000D01*
X162030133Y-34437222D01*
X161987190Y-34578786D01*
X161917454Y-34709252D01*
X161823606Y-34823606D01*
X161709252Y-34917454D01*
X161578786Y-34987190D01*
X161437222Y-35030133D01*
X161363665Y-35037378D01*
X161326888Y-35041000D01*
X161253112Y-35041000D01*
X161216335Y-35037378D01*
X161142778Y-35030133D01*
X161001214Y-34987190D01*
X160870748Y-34917454D01*
X160756394Y-34823606D01*
X160662546Y-34709252D01*
X160592810Y-34578786D01*
X160549867Y-34437222D01*
X160535367Y-34290000D01*
X160549867Y-34142778D01*
X160592810Y-34001214D01*
X160662546Y-33870748D01*
X160756394Y-33756394D01*
X160870748Y-33662546D01*
X161001214Y-33592810D01*
X161142778Y-33549867D01*
X161216335Y-33542622D01*
X161253112Y-33539000D01*
X161326888Y-33539000D01*
X161363665Y-33542622D01*
X161363665Y-33542622D01*
G37*
G36*
X135963665Y-33542622D02*
X136037222Y-33549867D01*
X136178786Y-33592810D01*
X136309252Y-33662546D01*
X136423606Y-33756394D01*
X136517454Y-33870748D01*
X136587190Y-34001214D01*
X136630133Y-34142778D01*
X136644633Y-34290000D01*
X136630133Y-34437222D01*
X136587190Y-34578786D01*
X136517454Y-34709252D01*
X136423606Y-34823606D01*
X136309252Y-34917454D01*
X136178786Y-34987190D01*
X136037222Y-35030133D01*
X135963665Y-35037378D01*
X135926888Y-35041000D01*
X135853112Y-35041000D01*
X135816335Y-35037378D01*
X135742778Y-35030133D01*
X135601214Y-34987190D01*
X135470748Y-34917454D01*
X135356394Y-34823606D01*
X135262546Y-34709252D01*
X135192810Y-34578786D01*
X135149867Y-34437222D01*
X135135367Y-34290000D01*
X135149867Y-34142778D01*
X135192810Y-34001214D01*
X135262546Y-33870748D01*
X135356394Y-33756394D01*
X135470748Y-33662546D01*
X135601214Y-33592810D01*
X135742778Y-33549867D01*
X135816335Y-33542622D01*
X135853112Y-33539000D01*
X135926888Y-33539000D01*
X135963665Y-33542622D01*
X135963665Y-33542622D01*
G37*
G36*
X167768600Y-33549867D02*
X167859059Y-33567860D01*
X167995732Y-33624472D01*
X168052715Y-33662547D01*
X168118738Y-33706662D01*
X168223338Y-33811262D01*
X168223340Y-33811265D01*
X168305528Y-33934268D01*
X168362140Y-34070941D01*
X168376429Y-34142778D01*
X168391000Y-34216031D01*
X168391000Y-34363969D01*
X168379456Y-34422004D01*
X168362140Y-34509059D01*
X168305528Y-34645732D01*
X168224446Y-34767079D01*
X168223338Y-34768738D01*
X168118738Y-34873338D01*
X168118735Y-34873340D01*
X167995732Y-34955528D01*
X167859059Y-35012140D01*
X167772004Y-35029456D01*
X167713969Y-35041000D01*
X167566031Y-35041000D01*
X167507996Y-35029456D01*
X167420941Y-35012140D01*
X167284268Y-34955528D01*
X167161265Y-34873340D01*
X167161262Y-34873338D01*
X167056662Y-34768738D01*
X167055554Y-34767079D01*
X166974472Y-34645732D01*
X166917860Y-34509059D01*
X166900544Y-34422004D01*
X166889000Y-34363969D01*
X166889000Y-34216031D01*
X166903571Y-34142778D01*
X166917860Y-34070941D01*
X166974472Y-33934268D01*
X167056660Y-33811265D01*
X167056662Y-33811262D01*
X167161262Y-33706662D01*
X167227285Y-33662547D01*
X167284268Y-33624472D01*
X167420941Y-33567860D01*
X167511400Y-33549867D01*
X167566031Y-33539000D01*
X167713969Y-33539000D01*
X167768600Y-33549867D01*
X167768600Y-33549867D01*
G37*
G36*
X192076414Y-32009879D02*
X192076416Y-32009880D01*
X192076417Y-32009880D01*
X192193468Y-32058364D01*
X192267594Y-32089068D01*
X192439651Y-32204033D01*
X192585967Y-32350349D01*
X192585969Y-32350352D01*
X192700932Y-32522406D01*
X192780120Y-32713583D01*
X192820490Y-32916536D01*
X192820490Y-33123464D01*
X192780120Y-33326417D01*
X192700932Y-33517594D01*
X192585967Y-33689651D01*
X192439651Y-33835967D01*
X192439648Y-33835969D01*
X192267594Y-33950932D01*
X192076417Y-34030120D01*
X192076416Y-34030120D01*
X192076414Y-34030121D01*
X191873466Y-34070490D01*
X191666534Y-34070490D01*
X191463586Y-34030121D01*
X191463584Y-34030120D01*
X191463583Y-34030120D01*
X191272406Y-33950932D01*
X191100352Y-33835969D01*
X191100349Y-33835967D01*
X190954033Y-33689651D01*
X190839068Y-33517594D01*
X190759880Y-33326417D01*
X190719510Y-33123464D01*
X190719510Y-32916536D01*
X190759880Y-32713583D01*
X190839068Y-32522406D01*
X190954031Y-32350352D01*
X190954033Y-32350349D01*
X191100349Y-32204033D01*
X191272406Y-32089068D01*
X191346532Y-32058364D01*
X191463583Y-32009880D01*
X191463584Y-32009880D01*
X191463586Y-32009879D01*
X191666534Y-31969510D01*
X191873466Y-31969510D01*
X192076414Y-32009879D01*
X192076414Y-32009879D01*
G37*
G36*
X189010490Y-34070490D02*
X186909510Y-34070490D01*
X186909510Y-31969510D01*
X189010490Y-31969510D01*
X189010490Y-34070490D01*
X189010490Y-34070490D01*
G37*
G36*
X116221000Y-30901000D02*
X115849896Y-30901000D01*
X115825510Y-30903402D01*
X115802061Y-30910515D01*
X115780450Y-30922066D01*
X115761508Y-30937612D01*
X115745962Y-30956554D01*
X115734411Y-30978165D01*
X115727298Y-31001614D01*
X115724896Y-31026000D01*
X115727298Y-31050386D01*
X115734411Y-31073835D01*
X115745962Y-31095446D01*
X115761508Y-31114388D01*
X115780450Y-31129934D01*
X115802061Y-31141485D01*
X115878361Y-31173089D01*
X115984992Y-31244338D01*
X116075662Y-31335008D01*
X116146911Y-31441639D01*
X116195983Y-31560110D01*
X116221000Y-31685881D01*
X116221000Y-31814119D01*
X116195983Y-31939890D01*
X116146911Y-32058361D01*
X116075662Y-32164992D01*
X115984992Y-32255662D01*
X115878361Y-32326911D01*
X115759890Y-32375983D01*
X115634119Y-32401000D01*
X115505881Y-32401000D01*
X115380110Y-32375983D01*
X115261639Y-32326911D01*
X115155008Y-32255662D01*
X115064338Y-32164992D01*
X114993089Y-32058361D01*
X114944017Y-31939890D01*
X114919000Y-31814119D01*
X114919000Y-31685881D01*
X114944017Y-31560110D01*
X114993089Y-31441639D01*
X115064338Y-31335008D01*
X115155008Y-31244338D01*
X115261639Y-31173089D01*
X115337939Y-31141485D01*
X115359550Y-31129934D01*
X115378492Y-31114389D01*
X115394037Y-31095447D01*
X115405589Y-31073836D01*
X115412702Y-31050387D01*
X115415104Y-31026001D01*
X115412702Y-31001614D01*
X115405589Y-30978165D01*
X115394038Y-30956554D01*
X115378493Y-30937612D01*
X115359551Y-30922067D01*
X115337940Y-30910515D01*
X115314491Y-30903402D01*
X115290104Y-30901000D01*
X114919000Y-30901000D01*
X114919000Y-29599000D01*
X116221000Y-29599000D01*
X116221000Y-30901000D01*
X116221000Y-30901000D01*
G37*
G36*
X152180490Y-30260490D02*
X150079510Y-30260490D01*
X150079510Y-28159510D01*
X152180490Y-28159510D01*
X152180490Y-30260490D01*
X152180490Y-30260490D01*
G37*
G36*
X147626414Y-28199879D02*
X147626416Y-28199880D01*
X147626417Y-28199880D01*
X147817594Y-28279068D01*
X147989651Y-28394033D01*
X148135967Y-28540349D01*
X148135969Y-28540352D01*
X148250932Y-28712406D01*
X148309693Y-28854267D01*
X148330121Y-28903586D01*
X148370490Y-29106534D01*
X148370490Y-29313466D01*
X148347498Y-29429056D01*
X148330120Y-29516417D01*
X148295913Y-29599000D01*
X148250932Y-29707594D01*
X148135967Y-29879651D01*
X147989651Y-30025967D01*
X147989648Y-30025969D01*
X147817594Y-30140932D01*
X147626417Y-30220120D01*
X147626416Y-30220120D01*
X147626414Y-30220121D01*
X147423466Y-30260490D01*
X147216534Y-30260490D01*
X147013586Y-30220121D01*
X147013584Y-30220120D01*
X147013583Y-30220120D01*
X146822406Y-30140932D01*
X146650352Y-30025969D01*
X146650349Y-30025967D01*
X146504033Y-29879651D01*
X146389068Y-29707594D01*
X146344087Y-29599000D01*
X146309880Y-29516417D01*
X146292503Y-29429056D01*
X146269510Y-29313466D01*
X146269510Y-29106534D01*
X146309879Y-28903586D01*
X146330308Y-28854267D01*
X146389068Y-28712406D01*
X146504031Y-28540352D01*
X146504033Y-28540349D01*
X146650349Y-28394033D01*
X146822406Y-28279068D01*
X147013583Y-28199880D01*
X147013584Y-28199880D01*
X147013586Y-28199879D01*
X147216534Y-28159510D01*
X147423466Y-28159510D01*
X147626414Y-28199879D01*
X147626414Y-28199879D01*
G37*
G36*
X139828600Y-28469867D02*
X139919059Y-28487860D01*
X140055732Y-28544472D01*
X140112715Y-28582547D01*
X140178738Y-28626662D01*
X140283338Y-28731262D01*
X140283340Y-28731265D01*
X140365528Y-28854268D01*
X140422140Y-28990941D01*
X140436429Y-29062778D01*
X140451000Y-29136031D01*
X140451000Y-29283969D01*
X140439456Y-29342004D01*
X140422140Y-29429059D01*
X140365528Y-29565732D01*
X140284446Y-29687079D01*
X140283338Y-29688738D01*
X140178738Y-29793338D01*
X140178735Y-29793340D01*
X140055732Y-29875528D01*
X139919059Y-29932140D01*
X139832004Y-29949456D01*
X139773969Y-29961000D01*
X139626031Y-29961000D01*
X139567996Y-29949456D01*
X139480941Y-29932140D01*
X139344268Y-29875528D01*
X139221265Y-29793340D01*
X139221262Y-29793338D01*
X139116662Y-29688738D01*
X139115554Y-29687079D01*
X139034472Y-29565732D01*
X138977860Y-29429059D01*
X138960544Y-29342004D01*
X138949000Y-29283969D01*
X138949000Y-29136031D01*
X138963571Y-29062778D01*
X138977860Y-28990941D01*
X139034472Y-28854268D01*
X139116660Y-28731265D01*
X139116662Y-28731262D01*
X139221262Y-28626662D01*
X139287285Y-28582547D01*
X139344268Y-28544472D01*
X139480941Y-28487860D01*
X139571400Y-28469867D01*
X139626031Y-28459000D01*
X139773969Y-28459000D01*
X139828600Y-28469867D01*
X139828600Y-28469867D01*
G37*
G36*
X136018600Y-28469867D02*
X136109059Y-28487860D01*
X136245732Y-28544472D01*
X136302715Y-28582547D01*
X136368738Y-28626662D01*
X136473338Y-28731262D01*
X136473340Y-28731265D01*
X136555528Y-28854268D01*
X136612140Y-28990941D01*
X136626429Y-29062778D01*
X136641000Y-29136031D01*
X136641000Y-29283969D01*
X136629456Y-29342004D01*
X136612140Y-29429059D01*
X136555528Y-29565732D01*
X136474446Y-29687079D01*
X136473338Y-29688738D01*
X136368738Y-29793338D01*
X136368735Y-29793340D01*
X136245732Y-29875528D01*
X136109059Y-29932140D01*
X136022004Y-29949456D01*
X135963969Y-29961000D01*
X135816031Y-29961000D01*
X135757996Y-29949456D01*
X135670941Y-29932140D01*
X135534268Y-29875528D01*
X135411265Y-29793340D01*
X135411262Y-29793338D01*
X135306662Y-29688738D01*
X135305554Y-29687079D01*
X135224472Y-29565732D01*
X135167860Y-29429059D01*
X135150544Y-29342004D01*
X135139000Y-29283969D01*
X135139000Y-29136031D01*
X135153571Y-29062778D01*
X135167860Y-28990941D01*
X135224472Y-28854268D01*
X135306660Y-28731265D01*
X135306662Y-28731262D01*
X135411262Y-28626662D01*
X135477285Y-28582547D01*
X135534268Y-28544472D01*
X135670941Y-28487860D01*
X135761400Y-28469867D01*
X135816031Y-28459000D01*
X135963969Y-28459000D01*
X136018600Y-28469867D01*
X136018600Y-28469867D01*
G37*
G36*
X130938600Y-28469867D02*
X131029059Y-28487860D01*
X131165732Y-28544472D01*
X131222715Y-28582547D01*
X131288738Y-28626662D01*
X131393338Y-28731262D01*
X131393340Y-28731265D01*
X131475528Y-28854268D01*
X131532140Y-28990941D01*
X131546429Y-29062778D01*
X131561000Y-29136031D01*
X131561000Y-29283969D01*
X131549456Y-29342004D01*
X131532140Y-29429059D01*
X131475528Y-29565732D01*
X131394446Y-29687079D01*
X131393338Y-29688738D01*
X131288738Y-29793338D01*
X131288735Y-29793340D01*
X131165732Y-29875528D01*
X131029059Y-29932140D01*
X130942004Y-29949456D01*
X130883969Y-29961000D01*
X130736031Y-29961000D01*
X130677996Y-29949456D01*
X130590941Y-29932140D01*
X130454268Y-29875528D01*
X130331265Y-29793340D01*
X130331262Y-29793338D01*
X130226662Y-29688738D01*
X130225554Y-29687079D01*
X130144472Y-29565732D01*
X130087860Y-29429059D01*
X130070544Y-29342004D01*
X130059000Y-29283969D01*
X130059000Y-29136031D01*
X130073571Y-29062778D01*
X130087860Y-28990941D01*
X130144472Y-28854268D01*
X130226660Y-28731265D01*
X130226662Y-28731262D01*
X130331262Y-28626662D01*
X130397285Y-28582547D01*
X130454268Y-28544472D01*
X130590941Y-28487860D01*
X130681400Y-28469867D01*
X130736031Y-28459000D01*
X130883969Y-28459000D01*
X130938600Y-28469867D01*
X130938600Y-28469867D01*
G37*
G36*
X125803665Y-28462622D02*
X125877222Y-28469867D01*
X126018786Y-28512810D01*
X126149252Y-28582546D01*
X126263606Y-28676394D01*
X126357454Y-28790748D01*
X126427190Y-28921214D01*
X126470133Y-29062778D01*
X126484633Y-29210000D01*
X126470133Y-29357222D01*
X126427190Y-29498786D01*
X126357454Y-29629252D01*
X126263606Y-29743606D01*
X126149252Y-29837454D01*
X126018786Y-29907190D01*
X125877222Y-29950133D01*
X125803665Y-29957378D01*
X125766888Y-29961000D01*
X125693112Y-29961000D01*
X125656335Y-29957378D01*
X125582778Y-29950133D01*
X125441214Y-29907190D01*
X125310748Y-29837454D01*
X125196394Y-29743606D01*
X125102546Y-29629252D01*
X125032810Y-29498786D01*
X124989867Y-29357222D01*
X124975367Y-29210000D01*
X124989867Y-29062778D01*
X125032810Y-28921214D01*
X125102546Y-28790748D01*
X125196394Y-28676394D01*
X125310748Y-28582546D01*
X125441214Y-28512810D01*
X125582778Y-28469867D01*
X125656335Y-28462622D01*
X125693112Y-28459000D01*
X125766888Y-28459000D01*
X125803665Y-28462622D01*
X125803665Y-28462622D01*
G37*
G36*
X122048600Y-28469867D02*
X122139059Y-28487860D01*
X122275732Y-28544472D01*
X122332715Y-28582547D01*
X122398738Y-28626662D01*
X122503338Y-28731262D01*
X122503340Y-28731265D01*
X122585528Y-28854268D01*
X122642140Y-28990941D01*
X122656429Y-29062778D01*
X122671000Y-29136031D01*
X122671000Y-29283969D01*
X122659456Y-29342004D01*
X122642140Y-29429059D01*
X122585528Y-29565732D01*
X122504446Y-29687079D01*
X122503338Y-29688738D01*
X122398738Y-29793338D01*
X122398735Y-29793340D01*
X122275732Y-29875528D01*
X122139059Y-29932140D01*
X122052004Y-29949456D01*
X121993969Y-29961000D01*
X121846031Y-29961000D01*
X121787996Y-29949456D01*
X121700941Y-29932140D01*
X121564268Y-29875528D01*
X121441265Y-29793340D01*
X121441262Y-29793338D01*
X121336662Y-29688738D01*
X121335554Y-29687079D01*
X121254472Y-29565732D01*
X121197860Y-29429059D01*
X121180544Y-29342004D01*
X121169000Y-29283969D01*
X121169000Y-29136031D01*
X121183571Y-29062778D01*
X121197860Y-28990941D01*
X121254472Y-28854268D01*
X121336660Y-28731265D01*
X121336662Y-28731262D01*
X121441262Y-28626662D01*
X121507285Y-28582547D01*
X121564268Y-28544472D01*
X121700941Y-28487860D01*
X121791400Y-28469867D01*
X121846031Y-28459000D01*
X121993969Y-28459000D01*
X122048600Y-28469867D01*
X122048600Y-28469867D01*
G37*
M02*
