<?xml version="1.0" standalone="no"?>
 <!DOCTYPE svg PUBLIC "-//W3C//DTD SVG 1.1//EN" 
 "http://www.w3.org/Graphics/SVG/1.1/DTD/svg11.dtd"> 
<svg xmlns="http://www.w3.org/2000/svg" version="1.1" 
    width="29.7002cm" height="21.0007cm" viewBox="0 0 116930 82680 ">
<title>SVG Picture created as fuzz-F.SilkS.svg date 2020/11/27 23:03:47 </title>
  <desc>Picture generated by PCBNEW </desc>
<g style="fill:#000000; fill-opacity:1;stroke:#000000; stroke-opacity:1;
stroke-linecap:round; stroke-linejoin:round; "
 transform="translate(0 0) scale(1 1)">
</g>
<g style="fill:#000000; fill-opacity:0.0; 
stroke:#000000; stroke-width:-0.000393701; stroke-opacity:1; 
stroke-linecap:round; stroke-linejoin:round;">
</g>
<g style="fill:#000000; fill-opacity:0.0; 
stroke:#000000; stroke-width:78.7402; stroke-opacity:1; 
stroke-linecap:round; stroke-linejoin:round;">
<path d="M71930 45500
L71930 31000
" />
<path d="M51430 45500
L71930 45500
" />
<path d="M51430 31000
L51430 45500
" />
<path d="M71930 45500
L71930 31000
" />
<path d="M51430 45500
L71930 45500
" />
<path d="M51430 31000
L51430 45500
" />
<path d="M71930 31000
L51430 31000
" />
</g>
<g style="fill:#000000; fill-opacity:0.0; 
stroke:#000000; stroke-width:47.2441; stroke-opacity:1; 
stroke-linecap:round; stroke-linejoin:round;">
<path d="M60479 43519
L60321 43519
" />
<path d="M60400 43598
L60400 43440
" />
<path d="M60075 41885
L59784 41885
" />
<path d="M60141 41901
L59718 41901
" />
<path d="M60191 41916
L59668 41916
" />
<path d="M60232 41932
L59627 41932
" />
<path d="M60268 41948
L59591 41948
" />
<path d="M60300 41964
L59559 41964
" />
<path d="M60328 41979
L59531 41979
" />
<path d="M60355 41995
L59504 41995
" />
<path d="M60379 42011
L59480 42011
" />
<path d="M60402 42027
L59457 42027
" />
<path d="M60423 42042
L59436 42042
" />
<path d="M60443 42058
L59416 42058
" />
<path d="M60461 42074
L59398 42074
" />
<path d="M59599 42090
L59380 42090
" />
<path d="M60479 42090
L60260 42090
" />
<path d="M59599 42105
L59363 42105
" />
<path d="M60496 42105
L60260 42105
" />
<path d="M59599 42121
L59348 42121
" />
<path d="M60511 42121
L60260 42121
" />
<path d="M59599 42137
L59333 42137
" />
<path d="M60526 42137
L60260 42137
" />
<path d="M59599 42153
L59318 42153
" />
<path d="M60541 42153
L60260 42153
" />
<path d="M59599 42168
L59305 42168
" />
<path d="M60554 42168
L60260 42168
" />
<path d="M59599 42184
L59292 42184
" />
<path d="M60567 42184
L60260 42184
" />
<path d="M59599 42200
L59280 42200
" />
<path d="M60579 42200
L60260 42200
" />
<path d="M59599 42216
L59268 42216
" />
<path d="M60591 42216
L60260 42216
" />
<path d="M59599 42231
L59257 42231
" />
<path d="M60602 42231
L60260 42231
" />
<path d="M59599 42247
L59246 42247
" />
<path d="M60613 42247
L60260 42247
" />
<path d="M59599 42263
L59237 42263
" />
<path d="M60622 42263
L60260 42263
" />
<path d="M59599 42279
L59227 42279
" />
<path d="M60632 42279
L60260 42279
" />
<path d="M59599 42294
L59218 42294
" />
<path d="M60641 42294
L60260 42294
" />
<path d="M59599 42310
L59209 42310
" />
<path d="M60650 42310
L60260 42310
" />
<path d="M59599 42326
L59201 42326
" />
<path d="M60658 42326
L60260 42326
" />
<path d="M59599 42342
L59193 42342
" />
<path d="M60666 42342
L60260 42342
" />
<path d="M59599 42357
L59186 42357
" />
<path d="M60673 42357
L60260 42357
" />
<path d="M59599 42373
L59179 42373
" />
<path d="M60680 42373
L60260 42373
" />
<path d="M59599 42389
L59172 42389
" />
<path d="M60687 42389
L60260 42389
" />
<path d="M59599 42405
L59166 42405
" />
<path d="M60693 42405
L60260 42405
" />
<path d="M59599 42420
L59160 42420
" />
<path d="M60699 42420
L60260 42420
" />
<path d="M59599 42437
L59155 42437
" />
<path d="M60704 42437
L60260 42437
" />
<path d="M59599 42452
L59149 42452
" />
<path d="M60710 42452
L60260 42452
" />
<path d="M59599 42468
L59144 42468
" />
<path d="M60715 42468
L60260 42468
" />
<path d="M59599 42484
L59140 42484
" />
<path d="M60719 42484
L60260 42484
" />
<path d="M59599 42500
L59136 42500
" />
<path d="M60723 42500
L60260 42500
" />
<path d="M59599 42515
L59132 42515
" />
<path d="M60727 42515
L60260 42515
" />
<path d="M59599 42531
L59129 42531
" />
<path d="M60730 42531
L60260 42531
" />
<path d="M59599 42547
L59126 42547
" />
<path d="M60733 42547
L60260 42547
" />
<path d="M59599 42562
L59122 42562
" />
<path d="M60737 42562
L60260 42562
" />
<path d="M59599 42578
L59120 42578
" />
<path d="M60739 42578
L60260 42578
" />
<path d="M59599 42594
L59118 42594
" />
<path d="M60741 42594
L60260 42594
" />
<path d="M59599 42610
L59116 42610
" />
<path d="M60743 42610
L60260 42610
" />
<path d="M59599 42625
L59114 42625
" />
<path d="M60745 42625
L60260 42625
" />
<path d="M59599 42641
L59113 42641
" />
<path d="M60746 42641
L60260 42641
" />
<path d="M59599 42657
L59112 42657
" />
<path d="M60747 42657
L60260 42657
" />
<path d="M60748 42673
L60260 42673
" />
<path d="M59599 42673
L59111 42673
" />
<path d="M60748 42688
L60260 42688
" />
<path d="M59599 42688
L59111 42688
" />
<path d="M60748 42704
L60260 42704
" />
<path d="M59599 42704
L59111 42704
" />
<circle cx="59930" cy="42704.7" r="834.646" /> 
<circle cx="63634.7" cy="42500" r="834.646" /> 
<path d="M63634 42830
L63634 43318
" />
<path d="M63634 41681
L63634 42169
" />
<path d="M63618 42830
L63618 43318
" />
<path d="M63618 41681
L63618 42169
" />
<path d="M63603 42830
L63603 43318
" />
<path d="M63603 41681
L63603 42169
" />
<path d="M63587 41682
L63587 42169
" />
<path d="M63587 42830
L63587 43317
" />
<path d="M63571 41683
L63571 42169
" />
<path d="M63571 42830
L63571 43316
" />
<path d="M63555 41684
L63555 42169
" />
<path d="M63555 42830
L63555 43315
" />
<path d="M63540 41686
L63540 42169
" />
<path d="M63540 42830
L63540 43313
" />
<path d="M63524 41688
L63524 42169
" />
<path d="M63524 42830
L63524 43311
" />
<path d="M63508 41690
L63508 42169
" />
<path d="M63508 42830
L63508 43309
" />
<path d="M63492 41692
L63492 42169
" />
<path d="M63492 42830
L63492 43307
" />
<path d="M63477 41696
L63477 42169
" />
<path d="M63477 42830
L63477 43303
" />
<path d="M63461 41699
L63461 42169
" />
<path d="M63461 42830
L63461 43300
" />
<path d="M63445 41702
L63445 42169
" />
<path d="M63445 42830
L63445 43297
" />
<path d="M63430 41706
L63430 42169
" />
<path d="M63430 42830
L63430 43293
" />
<path d="M63414 41710
L63414 42169
" />
<path d="M63414 42830
L63414 43289
" />
<path d="M63398 41714
L63398 42169
" />
<path d="M63398 42830
L63398 43285
" />
<path d="M63382 41719
L63382 42169
" />
<path d="M63382 42830
L63382 43280
" />
<path d="M63367 41725
L63367 42169
" />
<path d="M63367 42830
L63367 43274
" />
<path d="M63350 41730
L63350 42169
" />
<path d="M63350 42830
L63350 43269
" />
<path d="M63335 41736
L63335 42169
" />
<path d="M63335 42830
L63335 43263
" />
<path d="M63319 41742
L63319 42169
" />
<path d="M63319 42830
L63319 43257
" />
<path d="M63303 41749
L63303 42169
" />
<path d="M63303 42830
L63303 43250
" />
<path d="M63287 41756
L63287 42169
" />
<path d="M63287 42830
L63287 43243
" />
<path d="M63272 41763
L63272 42169
" />
<path d="M63272 42830
L63272 43236
" />
<path d="M63256 41771
L63256 42169
" />
<path d="M63256 42830
L63256 43228
" />
<path d="M63240 41779
L63240 42169
" />
<path d="M63240 42830
L63240 43220
" />
<path d="M63224 41788
L63224 42169
" />
<path d="M63224 42830
L63224 43211
" />
<path d="M63209 41797
L63209 42169
" />
<path d="M63209 42830
L63209 43202
" />
<path d="M63193 41807
L63193 42169
" />
<path d="M63193 42830
L63193 43192
" />
<path d="M63177 41816
L63177 42169
" />
<path d="M63177 42830
L63177 43183
" />
<path d="M63161 41827
L63161 42169
" />
<path d="M63161 42830
L63161 43172
" />
<path d="M63146 41838
L63146 42169
" />
<path d="M63146 42830
L63146 43161
" />
<path d="M63130 41850
L63130 42169
" />
<path d="M63130 42830
L63130 43149
" />
<path d="M63114 41862
L63114 42169
" />
<path d="M63114 42830
L63114 43137
" />
<path d="M63098 41875
L63098 42169
" />
<path d="M63098 42830
L63098 43124
" />
<path d="M63083 41888
L63083 42169
" />
<path d="M63083 42830
L63083 43111
" />
<path d="M63067 41903
L63067 42169
" />
<path d="M63067 42830
L63067 43096
" />
<path d="M63051 41918
L63051 42169
" />
<path d="M63051 42830
L63051 43081
" />
<path d="M63035 41933
L63035 42169
" />
<path d="M63035 42830
L63035 43066
" />
<path d="M63020 41950
L63020 42169
" />
<path d="M63020 42830
L63020 43049
" />
<path d="M63004 41968
L63004 43031
" />
<path d="M62988 41986
L62988 43013
" />
<path d="M62972 42006
L62972 42993
" />
<path d="M62957 42027
L62957 42972
" />
<path d="M62941 42050
L62941 42949
" />
<path d="M62925 42074
L62925 42925
" />
<path d="M62909 42101
L62909 42898
" />
<path d="M62894 42129
L62894 42870
" />
<path d="M62878 42161
L62878 42838
" />
<path d="M62862 42197
L62862 42802
" />
<path d="M62846 42238
L62846 42761
" />
<path d="M62831 42288
L62831 42711
" />
<path d="M62815 42354
L62815 42645
" />
<path d="M64528 42029
L64370 42029
" />
<path d="M64449 41950
L64449 42108
" />
<path d="M58469 31960
L56406 31960
" />
<path d="M58469 33039
L56406 33039
" />
<path d="M58469 31960
L58469 33039
" />
<path d="M56406 31960
L56406 33039
" />
<path d="M71916 40179
L72266 40530
" />
<path d="M72266 40530
L71960 40836
" />
<path d="M71960 40836
L71609 40486
" />
<path d="M71916.2 40180 A1897.64 1897.64 0.0 1 0 71610.1 40486.1 " />
<path d="M61416.2 39180 A1897.64 1897.64 0.0 1 0 61110.1 39486.1 " />
<path d="M61460 39836
L61109 39486
" />
<path d="M61766 39530
L61460 39836
" />
<path d="M61416 39179
L61766 39530
" />
<path d="M63642 40409
L63642 40539
" />
<path d="M63642 40539
L66217 40539
" />
<path d="M66217 40539
L66217 40409
" />
<path d="M63642 39590
L63642 39460
" />
<path d="M63642 39460
L66217 39460
" />
<path d="M66217 39460
L66217 39590
" />
<path d="M66717 31460
L66717 31590
" />
<path d="M64142 31460
L66717 31460
" />
<path d="M64142 31590
L64142 31460
" />
<path d="M66717 32539
L66717 32409
" />
<path d="M64142 32539
L66717 32539
" />
<path d="M64142 32409
L64142 32539
" />
<path d="M63552 37423
L67398 37423
" />
<path d="M63552 33576
L67398 33576
" />
<path d="M63552 37423
L63552 33576
" />
<path d="M67398 37423
L67398 33576
" />
<path d="M62898 35423
L62898 31576
" />
<path d="M59052 35423
L59052 31576
" />
<path d="M59052 31576
L62898 31576
" />
<path d="M59052 35423
L62898 35423
" />
<path d="M52520 45165
L55567 45165
" />
<path d="M52520 38771
L55567 38771
" />
<path d="M52520 45165
L52520 38771
" />
<path d="M55567 45165
L55567 38771
" />
<path d="M55567 43393
L57536 43393
" />
<path d="M55567 40543
L57536 40543
" />
<path d="M55567 43393
L55567 40543
" />
<path d="M57536 43393
L57536 40543
" />
<path d="M57536 42803
L61473 42803
" />
<path d="M57536 41133
L61473 41133
" />
<path d="M57536 42803
L57536 41133
" />
<path d="M61473 42803
L61473 41133
" />
<path d="M61473 35803
L61473 34133
" />
<path d="M57536 35803
L57536 34133
" />
<path d="M57536 34133
L61473 34133
" />
<path d="M57536 35803
L61473 35803
" />
<path d="M57536 36393
L57536 33543
" />
<path d="M55567 36393
L55567 33543
" />
<path d="M55567 33543
L57536 33543
" />
<path d="M55567 36393
L57536 36393
" />
<path d="M55567 38165
L55567 31771
" />
<path d="M52520 38165
L52520 31771
" />
<path d="M52520 31771
L55567 31771
" />
<path d="M52520 38165
L55567 38165
" />
</g>
<g style="fill:#000000; fill-opacity:0.0; 
stroke:#000000; stroke-width:59.0551; stroke-opacity:1; 
stroke-linecap:round; stroke-linejoin:round;">
<path d="M51645 35881
L51364 35881
L51308 35899
L51270 35937
L51251 35993
L51251 36031
" />
<path d="M51645 35731
L51645 35487
L51495 35618
L51495 35562
L51476 35525
L51458 35506
L51420 35487
L51326 35487
L51289 35506
L51270 35525
L51251 35562
L51251 35675
L51270 35712
L51289 35731
" />
<path d="M61068 42770
L61050 42789
L61031 42845
L61031 42882
L61050 42939
L61087 42976
L61125 42995
L61200 43014
L61256 43014
L61331 42995
L61368 42976
L61406 42939
L61425 42882
L61425 42845
L61406 42789
L61387 42770
" />
<path d="M61387 42620
L61406 42601
L61425 42564
L61425 42470
L61406 42432
L61387 42414
L61350 42395
L61312 42395
L61256 42414
L61031 42639
L61031 42395
" />
<path d="M63700 41361
L63719 41379
L63775 41398
L63812 41398
L63869 41379
L63906 41342
L63925 41304
L63944 41229
L63944 41173
L63925 41098
L63906 41061
L63869 41023
L63812 41004
L63775 41004
L63719 41023
L63700 41042
" />
<path d="M63325 41398
L63550 41398
" />
<path d="M63437 41398
L63437 41004
L63475 41061
L63512 41098
L63550 41117
" />
<path d="M57503 31656
L57522 31675
L57578 31693
L57615 31693
L57672 31675
L57709 31637
L57728 31600
L57747 31525
L57747 31468
L57728 31393
L57709 31356
L57672 31318
L57615 31300
L57578 31300
L57522 31318
L57503 31337
" />
<path d="M57372 31300
L57128 31300
L57259 31450
L57203 31450
L57166 31468
L57147 31487
L57128 31525
L57128 31618
L57147 31656
L57166 31675
L57203 31693
L57316 31693
L57353 31675
L57372 31656
" />
<path d="M69145 33881
L68864 33881
L68808 33899
L68770 33937
L68751 33993
L68751 34031
" />
<path d="M68751 33487
L68751 33712
" />
<path d="M68751 33600
L69145 33600
L69089 33637
L69051 33675
L69033 33712
" />
<path d="M68811 41284
L68811 41565
L68829 41621
L68867 41659
L68923 41678
L68961 41678
" />
<path d="M68642 41321
L68623 41303
L68586 41284
L68492 41284
L68455 41303
L68436 41321
L68417 41359
L68417 41396
L68436 41453
L68661 41678
L68417 41678
" />
<path d="M70214 39037
L70233 39074
L70270 39112
L70326 39168
L70345 39206
L70345 39243
" />
<path d="M70251 39224
L70270 39262
L70308 39299
L70383 39318
L70514 39318
L70589 39299
L70626 39262
L70645 39224
L70645 39149
L70626 39112
L70589 39074
L70514 39056
L70383 39056
L70308 39074
L70270 39112
L70251 39149
L70251 39224
" />
<path d="M70251 38681
L70251 38906
" />
<path d="M70251 38793
L70645 38793
L70589 38831
L70551 38868
L70533 38906
" />
<path d="M62005 38037
L62024 38074
L62061 38112
L62118 38168
L62136 38206
L62136 38243
" />
<path d="M62043 38224
L62061 38262
L62099 38299
L62174 38318
L62305 38318
L62380 38299
L62418 38262
L62436 38224
L62436 38149
L62418 38112
L62380 38074
L62305 38056
L62174 38056
L62099 38074
L62061 38112
L62043 38149
L62043 38224
" />
<path d="M62399 37906
L62418 37887
L62436 37850
L62436 37756
L62418 37718
L62399 37700
L62361 37681
L62324 37681
L62268 37700
L62043 37925
L62043 37681
" />
<path d="M64995 41111
L65126 40923
" />
<path d="M65220 41111
L65220 40717
L65070 40717
L65033 40736
L65014 40754
L64995 40792
L64995 40848
L65014 40886
L65033 40904
L65070 40923
L65220 40923
" />
<path d="M64620 41111
L64845 41111
" />
<path d="M64733 41111
L64733 40717
L64770 40773
L64808 40811
L64845 40829
" />
<path d="M65495 33111
L65626 32923
" />
<path d="M65720 33111
L65720 32717
L65570 32717
L65533 32736
L65514 32754
L65495 32792
L65495 32848
L65514 32886
L65533 32904
L65570 32923
L65720 32923
" />
<path d="M65345 32754
L65326 32736
L65289 32717
L65195 32717
L65158 32736
L65139 32754
L65120 32792
L65120 32829
L65139 32886
L65364 33111
L65120 33111
" />
<path d="M65709 38046
L65840 37858
" />
<path d="M65934 38046
L65934 37652
L65784 37652
L65747 37671
L65728 37690
L65709 37727
L65709 37783
L65728 37821
L65747 37839
L65784 37858
L65934 37858
" />
<path d="M65597 37652
L65465 38046
L65334 37652
" />
<path d="M64997 38046
L65222 38046
" />
<path d="M65109 38046
L65109 37652
L65147 37708
L65184 37746
L65222 37764
" />
<path d="M61209 36046
L61340 35858
" />
<path d="M61434 36046
L61434 35652
L61284 35652
L61247 35671
L61228 35690
L61209 35727
L61209 35783
L61228 35821
L61247 35839
L61284 35858
L61434 35858
" />
<path d="M61097 35652
L60965 36046
L60834 35652
" />
<path d="M60722 35690
L60703 35671
L60665 35652
L60572 35652
L60534 35671
L60515 35690
L60497 35727
L60497 35764
L60515 35821
L60740 36046
L60497 36046
" />
<path d="M55164 45788
L55295 45600
" />
<path d="M55389 45788
L55389 45394
L55239 45394
L55201 45413
L55183 45432
L55164 45469
L55164 45525
L55183 45563
L55201 45582
L55239 45600
L55389 45600
" />
<path d="M55051 45394
L54920 45788
L54789 45394
" />
<path d="M54695 45394
L54451 45394
L54583 45544
L54526 45544
L54489 45563
L54470 45582
L54451 45619
L54451 45713
L54470 45750
L54489 45769
L54526 45788
L54639 45788
L54676 45769
L54695 45750
" />
<path d="M55164 38788
L55295 38600
" />
<path d="M55389 38788
L55389 38394
L55239 38394
L55201 38413
L55183 38432
L55164 38469
L55164 38525
L55183 38563
L55201 38582
L55239 38600
L55389 38600
" />
<path d="M55051 38394
L54920 38788
L54789 38394
" />
<path d="M54489 38525
L54489 38788
" />
<path d="M54583 38375
L54676 38657
L54433 38657
" />
</g> 
</svg>
