<?xml version="1.0" standalone="no"?>
 <!DOCTYPE svg PUBLIC "-//W3C//DTD SVG 1.1//EN" 
 "http://www.w3.org/Graphics/SVG/1.1/DTD/svg11.dtd"> 
<svg xmlns="http://www.w3.org/2000/svg" version="1.1" 
    width="29.7002cm" height="21.0007cm" viewBox="0 0 116930 82680 ">
<title>SVG Picture created as fuzz-F.Fab.svg date 2020/11/28 13:20:59 </title>
  <desc>Picture generated by PCBNEW </desc>
<g style="fill:#000000; fill-opacity:1;stroke:#000000; stroke-opacity:1;
stroke-linecap:round; stroke-linejoin:round; "
 transform="translate(0 0) scale(1 1)">
</g>
<g style="fill:#000000; fill-opacity:0.0; 
stroke:#000000; stroke-width:-0.000393701; stroke-opacity:1; 
stroke-linecap:round; stroke-linejoin:round;">
</g>
<g style="fill:#000000; fill-opacity:0.0; 
stroke:#000000; stroke-width:78.7402; stroke-opacity:1; 
stroke-linecap:round; stroke-linejoin:round;">
<path d="M69930 43000
L69930 31000
" />
<path d="M54430 43000
L69930 43000
" />
<path d="M54430 31000
L54430 43000
" />
<path d="M69930 31000
L54430 31000
" />
</g>
<g style="fill:#000000; fill-opacity:0.0; 
stroke:#000000; stroke-width:39.3701; stroke-opacity:1; 
stroke-linecap:round; stroke-linejoin:round;">
<path d="M61350 41796
L61192 41796
" />
<path d="M61271 41875
L61271 41717
" />
<circle cx="60930" cy="41204.7" r="787.402" /> 
<circle cx="64134.7" cy="40500" r="787.402" /> 
<path d="M64805 40158
L64647 40158
" />
<path d="M64726 40079
L64726 40237
" />
<path d="M58422 32007
L58422 32992
" />
<path d="M58422 32992
L56453 32992
" />
<path d="M56453 32992
L56453 32007
" />
<path d="M56453 32007
L58422 32007
" />
<path d="M69852 39183
L70170 39500
" />
<path d="M70170 39500
L69930 39740
" />
<path d="M69930 39740
L69613 39422
" />
<circle cx="68430" cy="38000" r="1673.23" /> 
<path d="M69852.6 39183.2 A1850.39 1850.39 0.0 1 0 69613.2 39422.7 " />
<path d="M61352.6 39183.2 A1850.39 1850.39 0.0 1 0 61113.2 39422.7 " />
<circle cx="59930" cy="38000" r="1673.23" /> 
<path d="M61430 39740
L61113 39422
" />
<path d="M61670 39500
L61430 39740
" />
<path d="M61352 39183
L61670 39500
" />
<path d="M62689 38992
L62689 38007
" />
<path d="M62689 38007
L65170 38007
" />
<path d="M65170 38007
L65170 38992
" />
<path d="M65170 38992
L62689 38992
" />
<path d="M62430 38500
L62689 38500
" />
<path d="M65430 38500
L65170 38500
" />
<path d="M66930 32000
L66670 32000
" />
<path d="M63930 32000
L64189 32000
" />
<path d="M66670 32492
L64189 32492
" />
<path d="M66670 31507
L66670 32492
" />
<path d="M64189 31507
L66670 31507
" />
<path d="M64189 32492
L64189 31507
" />
<circle cx="64631.2" cy="35000" r="620.079" /> 
<path d="M63099 36875
L63099 33124
" />
<path d="M63099 33124
L66851 33124
" />
<path d="M66851 33124
L66851 36875
" />
<path d="M66851 36875
L63099 36875
" />
<path d="M64631 34385
L64631 35613
" />
<path d="M64631 34385
L64631 35613
" />
<path d="M60631 32885
L60631 34113
" />
<path d="M60631 32885
L60631 34113
" />
<path d="M62851 35375
L59099 35375
" />
<path d="M62851 31624
L62851 35375
" />
<path d="M59099 31624
L62851 31624
" />
<path d="M59099 35375
L59099 31624
" />
<circle cx="60631.2" cy="33500" r="620.079" /> 
<path d="M53067 43118
L53067 36818
" />
<path d="M53067 36818
L56020 36818
" />
<path d="M56020 36818
L56020 43118
" />
<path d="M56020 43118
L53067 43118
" />
<path d="M56020 41346
L56020 38590
" />
<path d="M56020 38590
L57989 38590
" />
<path d="M57989 38590
L57989 41346
" />
<path d="M57989 41346
L56020 41346
" />
<path d="M57989 40755
L57989 39181
" />
<path d="M57989 39181
L61926 39181
" />
<path d="M61926 39181
L61926 40755
" />
<path d="M61926 40755
L57989 40755
" />
<path d="M61926 35255
L57989 35255
" />
<path d="M61926 33681
L61926 35255
" />
<path d="M57989 33681
L61926 33681
" />
<path d="M57989 35255
L57989 33681
" />
<path d="M57989 35846
L56020 35846
" />
<path d="M57989 33090
L57989 35846
" />
<path d="M56020 33090
L57989 33090
" />
<path d="M56020 35846
L56020 33090
" />
<path d="M56020 37618
L53067 37618
" />
<path d="M56020 31318
L56020 37618
" />
<path d="M53067 31318
L56020 31318
" />
<path d="M53067 37618
L53067 31318
" />
</g>
<g style="fill:#000000; fill-opacity:0.0; 
stroke:#000000; stroke-width:59.0551; stroke-opacity:1; 
stroke-linecap:round; stroke-linejoin:round;">
<path d="M58751 36068
L58770 36106
L58789 36124
L58826 36143
L58939 36143
L58976 36124
L58995 36106
L59014 36068
L59014 36012
L58995 35974
L58976 35956
L58939 35937
L58826 35937
L58789 35956
L58770 35974
L58751 36012
L58751 36068
" />
<path d="M59014 35600
L58751 35600
" />
<path d="M59014 35768
L58808 35768
L58770 35750
L58751 35712
L58751 35656
L58770 35618
L58789 35600
" />
<path d="M59014 35468
L59014 35318
" />
<path d="M59145 35412
L58808 35412
L58770 35393
L58751 35356
L58751 35318
" />
<path d="M57645 35881
L57364 35881
L57308 35899
L57270 35937
L57251 35993
L57251 36031
" />
<path d="M57645 35731
L57645 35487
L57495 35618
L57495 35562
L57476 35525
L57458 35506
L57420 35487
L57326 35487
L57289 35506
L57270 35525
L57251 35562
L57251 35675
L57270 35712
L57289 35731
" />
<path d="M59828 41851
L59847 41832
L59866 41795
L59866 41701
L59847 41664
L59828 41645
L59791 41626
L59753 41626
L59697 41645
L59472 41870
L59472 41626
" />
<path d="M59828 41476
L59847 41457
L59866 41420
L59866 41326
L59847 41289
L59828 41270
L59791 41251
L59753 41251
L59697 41270
L59472 41495
L59472 41251
" />
<path d="M59734 40914
L59472 40914
" />
<path d="M59734 41082
L59528 41082
L59491 41064
L59472 41026
L59472 40970
L59491 40932
L59509 40914
" />
<path d="M59678 40595
L59678 40726
" />
<path d="M59472 40726
L59866 40726
L59866 40539
" />
</g>
<g style="fill:#000000; fill-opacity:0.0; 
stroke:#000000; stroke-width:47.2441; stroke-opacity:1; 
stroke-linecap:round; stroke-linejoin:round;">
<path d="M60817 41257
L60802 41272
L60787 41317
L60787 41347
L60802 41392
L60832 41422
L60862 41437
L60922 41452
L60967 41452
L61027 41437
L61057 41422
L61087 41392
L61102 41347
L61102 41317
L61087 41272
L61072 41257
" />
<path d="M61072 41137
L61087 41122
L61102 41092
L61102 41017
L61087 40987
L61072 40972
L61042 40957
L61012 40957
L60967 40972
L60787 41152
L60787 40957
" />
</g>
<g style="fill:#000000; fill-opacity:0.0; 
stroke:#000000; stroke-width:59.0551; stroke-opacity:1; 
stroke-linecap:round; stroke-linejoin:round;">
<path d="M64875 41601
L64856 41582
L64819 41563
L64725 41563
L64687 41582
L64669 41601
L64650 41638
L64650 41676
L64669 41732
L64894 41957
L64650 41957
" />
<path d="M64481 41920
L64462 41938
L64481 41957
L64500 41938
L64481 41920
L64481 41957
" />
<path d="M64312 41601
L64294 41582
L64256 41563
L64162 41563
L64125 41582
L64106 41601
L64087 41638
L64087 41676
L64106 41732
L64331 41957
L64087 41957
" />
<path d="M63750 41695
L63750 41957
" />
<path d="M63919 41695
L63919 41901
L63900 41938
L63862 41957
L63806 41957
L63769 41938
L63750 41920
" />
<path d="M63431 41751
L63562 41751
" />
<path d="M63562 41957
L63562 41563
L63375 41563
" />
</g>
<g style="fill:#000000; fill-opacity:0.0; 
stroke:#000000; stroke-width:47.2441; stroke-opacity:1; 
stroke-linecap:round; stroke-linejoin:round;">
<path d="M64187 40612
L64202 40627
L64247 40642
L64277 40642
L64322 40627
L64352 40597
L64367 40567
L64382 40507
L64382 40462
L64367 40402
L64352 40372
L64322 40342
L64277 40327
L64247 40327
L64202 40342
L64187 40357
" />
<path d="M63887 40642
L64067 40642
" />
<path d="M63977 40642
L63977 40327
L64007 40372
L64037 40402
L64067 40417
" />
</g>
<g style="fill:#000000; fill-opacity:0.0; 
stroke:#000000; stroke-width:59.0551; stroke-opacity:1; 
stroke-linecap:round; stroke-linejoin:round;">
<path d="M57859 33662
L58084 33662
" />
<path d="M57972 33662
L57972 33268
L58009 33324
L58047 33362
L58084 33381
" />
<path d="M57615 33268
L57578 33268
L57540 33287
L57522 33306
L57503 33343
L57484 33418
L57484 33512
L57503 33587
L57522 33624
L57540 33643
L57578 33662
L57615 33662
L57653 33643
L57672 33624
L57690 33587
L57709 33512
L57709 33418
L57690 33343
L57672 33306
L57653 33287
L57615 33268
" />
<path d="M57316 33399
L57316 33662
" />
<path d="M57316 33437
L57297 33418
L57259 33399
L57203 33399
L57166 33418
L57147 33456
L57147 33662
" />
<path d="M56828 33456
L56959 33456
" />
<path d="M56959 33662
L56959 33268
L56772 33268
" />
<path d="M57503 32640
L57522 32659
L57578 32678
L57615 32678
L57672 32659
L57709 32621
L57728 32584
L57747 32509
L57747 32453
L57728 32378
L57709 32340
L57672 32303
L57615 32284
L57578 32284
L57522 32303
L57503 32321
" />
<path d="M57372 32284
L57128 32284
L57259 32434
L57203 32434
L57166 32453
L57147 32471
L57128 32509
L57128 32603
L57147 32640
L57166 32659
L57203 32678
L57316 32678
L57353 32659
L57372 32640
" />
<path d="M69514 34759
L69120 34759
" />
<path d="M69495 34759
L69514 34721
L69514 34646
L69495 34609
L69476 34590
L69439 34571
L69326 34571
L69289 34590
L69270 34609
L69251 34646
L69251 34721
L69270 34759
" />
<path d="M69251 34346
L69270 34384
L69289 34403
L69326 34421
L69439 34421
L69476 34403
L69495 34384
L69514 34346
L69514 34290
L69495 34253
L69476 34234
L69439 34215
L69326 34215
L69289 34234
L69270 34253
L69251 34290
L69251 34346
" />
<path d="M69514 34084
L69251 34009
L69439 33934
L69251 33859
L69514 33784
" />
<path d="M69270 33484
L69251 33521
L69251 33596
L69270 33634
L69308 33653
L69458 33653
L69495 33634
L69514 33596
L69514 33521
L69495 33484
L69458 33465
L69420 33465
L69383 33653
" />
<path d="M69251 33296
L69514 33296
" />
<path d="M69439 33296
L69476 33278
L69495 33259
L69514 33221
L69514 33184
" />
<path d="M67645 33881
L67364 33881
L67308 33899
L67270 33937
L67251 33993
L67251 34031
" />
<path d="M67251 33487
L67251 33712
" />
<path d="M67251 33600
L67645 33600
L67589 33637
L67551 33675
L67533 33712
" />
<path d="M67858 42678
L67858 42284
" />
<path d="M67670 42415
L67670 42678
" />
<path d="M67670 42453
L67651 42434
L67614 42415
L67558 42415
L67520 42434
L67501 42471
L67501 42678
" />
<path d="M67811 40784
L67811 41065
L67829 41121
L67867 41159
L67923 41178
L67961 41178
" />
<path d="M67642 40821
L67623 40803
L67586 40784
L67492 40784
L67455 40803
L67436 40821
L67417 40859
L67417 40896
L67436 40953
L67661 41178
L67417 41178
" />
<path d="M66166 38731
L66148 38674
L66129 38656
L66091 38637
L66035 38637
L65998 38656
L65979 38674
L65960 38712
L65960 38862
L66354 38862
L66354 38731
L66335 38693
L66316 38674
L66279 38656
L66241 38656
L66204 38674
L66185 38693
L66166 38731
L66166 38862
" />
<path d="M65998 38243
L65979 38262
L65960 38318
L65960 38356
L65979 38412
L66016 38449
L66054 38468
L66129 38487
L66185 38487
L66260 38468
L66298 38449
L66335 38412
L66354 38356
L66354 38318
L66335 38262
L66316 38243
" />
<path d="M65960 37868
L65960 38093
" />
<path d="M65960 37981
L66354 37981
L66298 38018
L66260 38056
L66241 38093
" />
<path d="M66354 37531
L66354 37606
L66335 37643
L66316 37662
L66260 37700
L66185 37718
L66035 37718
L65998 37700
L65979 37681
L65960 37643
L65960 37568
L65979 37531
L65998 37512
L66035 37493
L66129 37493
L66166 37512
L66185 37531
L66204 37568
L66204 37643
L66185 37681
L66166 37700
L66129 37718
" />
<path d="M66354 37250
L66354 37212
L66335 37175
L66316 37156
L66279 37137
L66204 37118
L66110 37118
L66035 37137
L65998 37156
L65979 37175
L65960 37212
L65960 37250
L65979 37287
L65998 37306
L66035 37325
L66110 37343
L66204 37343
L66279 37325
L66316 37306
L66335 37287
L66354 37250
" />
<path d="M68214 38037
L68233 38074
L68270 38112
L68326 38168
L68345 38206
L68345 38243
" />
<path d="M68251 38224
L68270 38262
L68308 38299
L68383 38318
L68514 38318
L68589 38299
L68626 38262
L68645 38224
L68645 38149
L68626 38112
L68589 38074
L68514 38056
L68383 38056
L68308 38074
L68270 38112
L68251 38149
L68251 38224
" />
<path d="M68251 37681
L68251 37906
" />
<path d="M68251 37793
L68645 37793
L68589 37831
L68551 37868
L68533 37906
" />
<path d="M57666 38731
L57648 38674
L57629 38656
L57591 38637
L57535 38637
L57498 38656
L57479 38674
L57460 38712
L57460 38862
L57854 38862
L57854 38731
L57835 38693
L57816 38674
L57779 38656
L57741 38656
L57704 38674
L57685 38693
L57666 38731
L57666 38862
" />
<path d="M57498 38243
L57479 38262
L57460 38318
L57460 38356
L57479 38412
L57516 38449
L57554 38468
L57629 38487
L57685 38487
L57760 38468
L57798 38449
L57835 38412
L57854 38356
L57854 38318
L57835 38262
L57816 38243
" />
<path d="M57460 37868
L57460 38093
" />
<path d="M57460 37981
L57854 37981
L57798 38018
L57760 38056
L57741 38093
" />
<path d="M57854 37531
L57854 37606
L57835 37643
L57816 37662
L57760 37700
L57685 37718
L57535 37718
L57498 37700
L57479 37681
L57460 37643
L57460 37568
L57479 37531
L57498 37512
L57535 37493
L57629 37493
L57666 37512
L57685 37531
L57704 37568
L57704 37643
L57685 37681
L57666 37700
L57629 37718
" />
<path d="M57854 37250
L57854 37212
L57835 37175
L57816 37156
L57779 37137
L57704 37118
L57610 37118
L57535 37137
L57498 37156
L57479 37175
L57460 37212
L57460 37250
L57479 37287
L57498 37306
L57535 37325
L57610 37343
L57704 37343
L57779 37325
L57816 37306
L57835 37287
L57854 37250
" />
<path d="M62005 38037
L62024 38074
L62061 38112
L62118 38168
L62136 38206
L62136 38243
" />
<path d="M62043 38224
L62061 38262
L62099 38299
L62174 38318
L62305 38318
L62380 38299
L62418 38262
L62436 38224
L62436 38149
L62418 38112
L62380 38074
L62305 38056
L62174 38056
L62099 38074
L62061 38112
L62043 38149
L62043 38224
" />
<path d="M62399 37906
L62418 37887
L62436 37850
L62436 37756
L62418 37718
L62399 37700
L62361 37681
L62324 37681
L62268 37700
L62043 37925
L62043 37681
" />
<path d="M64389 37745
L64614 37745
" />
<path d="M64501 37745
L64501 37351
L64539 37407
L64576 37445
L64614 37463
" />
<path d="M64145 37351
L64108 37351
L64070 37370
L64051 37388
L64033 37426
L64014 37501
L64014 37595
L64033 37670
L64051 37707
L64070 37726
L64108 37745
L64145 37745
L64183 37726
L64201 37707
L64220 37670
L64239 37595
L64239 37501
L64220 37426
L64201 37388
L64183 37370
L64145 37351
" />
<path d="M63770 37351
L63733 37351
L63695 37370
L63676 37388
L63658 37426
L63639 37501
L63639 37595
L63658 37670
L63676 37707
L63695 37726
L63733 37745
L63770 37745
L63808 37726
L63826 37707
L63845 37670
L63864 37595
L63864 37501
L63845 37426
L63826 37388
L63808 37370
L63770 37351
" />
<path d="M63470 37745
L63470 37351
" />
<path d="M63245 37745
L63414 37520
" />
<path d="M63245 37351
L63470 37576
" />
<path d="M63995 38678
L64126 38490
" />
<path d="M64220 38678
L64220 38284
L64070 38284
L64033 38303
L64014 38321
L63995 38359
L63995 38415
L64014 38453
L64033 38471
L64070 38490
L64220 38490
" />
<path d="M63620 38678
L63845 38678
" />
<path d="M63733 38678
L63733 38284
L63770 38340
L63808 38378
L63845 38396
" />
<path d="M65229 31415
L65229 31678
" />
<path d="M65323 31265
L65417 31546
L65173 31546
" />
<path d="M65061 31284
L64798 31284
L64967 31678
" />
<path d="M64573 31284
L64536 31284
L64498 31303
L64480 31321
L64461 31359
L64442 31434
L64442 31528
L64461 31603
L64480 31640
L64498 31659
L64536 31678
L64573 31678
L64611 31659
L64630 31640
L64648 31603
L64667 31528
L64667 31434
L64648 31359
L64630 31321
L64611 31303
L64573 31284
" />
<path d="M65495 32178
L65626 31990
" />
<path d="M65720 32178
L65720 31784
L65570 31784
L65533 31803
L65514 31821
L65495 31859
L65495 31915
L65514 31953
L65533 31971
L65570 31990
L65720 31990
" />
<path d="M65345 31821
L65326 31803
L65289 31784
L65195 31784
L65158 31803
L65139 31821
L65120 31859
L65120 31896
L65139 31953
L65364 32178
L65120 32178
" />
<path d="M65397 32809
L65622 32809
" />
<path d="M65509 32809
L65509 32416
L65547 32472
L65584 32510
L65622 32528
" />
<path d="M65153 32416
L65115 32416
L65078 32435
L65059 32453
L65040 32491
L65022 32566
L65022 32660
L65040 32735
L65059 32772
L65078 32791
L65115 32809
L65153 32809
L65190 32791
L65209 32772
L65228 32735
L65247 32660
L65247 32566
L65228 32491
L65209 32453
L65190 32435
L65153 32416
" />
<path d="M64778 32416
L64740 32416
L64703 32435
L64684 32453
L64665 32491
L64647 32566
L64647 32660
L64665 32735
L64684 32772
L64703 32791
L64740 32809
L64778 32809
L64815 32791
L64834 32772
L64853 32735
L64872 32660
L64872 32566
L64853 32491
L64834 32453
L64815 32435
L64778 32416
" />
<path d="M64478 32809
L64478 32416
" />
<path d="M64440 32660
L64328 32809
" />
<path d="M64328 32547
L64478 32697
" />
<path d="M63314 35234
L63502 35365
" />
<path d="M63314 35459
L63708 35459
L63708 35309
L63689 35271
L63671 35253
L63633 35234
L63577 35234
L63539 35253
L63521 35271
L63502 35309
L63502 35459
" />
<path d="M63708 35121
L63314 34990
L63708 34859
" />
<path d="M63314 34521
L63314 34746
" />
<path d="M63314 34634
L63708 34634
L63652 34671
L63614 34709
L63596 34746
" />
<path d="M61209 31678
L61434 31678
" />
<path d="M61322 31678
L61322 31284
L61359 31340
L61397 31378
L61434 31396
" />
<path d="M60965 31284
L60928 31284
L60890 31303
L60872 31321
L60853 31359
L60834 31434
L60834 31528
L60853 31603
L60872 31640
L60890 31659
L60928 31678
L60965 31678
L61003 31659
L61022 31640
L61040 31603
L61059 31528
L61059 31434
L61040 31359
L61022 31321
L61003 31303
L60965 31284
" />
<path d="M60665 31678
L60665 31284
" />
<path d="M60628 31528
L60515 31678
" />
<path d="M60515 31415
L60665 31565
" />
<path d="M59314 33734
L59502 33865
" />
<path d="M59314 33959
L59708 33959
L59708 33809
L59689 33771
L59671 33753
L59633 33734
L59577 33734
L59539 33753
L59521 33771
L59502 33809
L59502 33959
" />
<path d="M59708 33621
L59314 33490
L59708 33359
" />
<path d="M59671 33246
L59689 33228
L59708 33190
L59708 33096
L59689 33059
L59671 33040
L59633 33021
L59596 33021
L59539 33040
L59314 33265
L59314 33021
" />
<path d="M55476 36504
L55701 36504
" />
<path d="M55589 36504
L55589 36111
L55626 36167
L55664 36204
L55701 36223
" />
<path d="M55308 36504
L55308 36111
" />
<path d="M55270 36354
L55158 36504
" />
<path d="M55158 36242
L55308 36392
" />
<path d="M54778 40146
L54909 39959
" />
<path d="M55003 40146
L55003 39752
L54853 39752
L54816 39771
L54797 39790
L54778 39827
L54778 39884
L54797 39921
L54816 39940
L54853 39959
L55003 39959
" />
<path d="M54666 39752
L54534 40146
L54403 39752
" />
<path d="M54309 39752
L54066 39752
L54197 39902
L54141 39902
L54103 39921
L54084 39940
L54066 39977
L54066 40071
L54084 40109
L54103 40127
L54141 40146
L54253 40146
L54291 40127
L54309 40109
" />
<path d="M55042 35678
L55267 35678
" />
<path d="M55154 35678
L55154 35284
L55192 35340
L55229 35378
L55267 35396
" />
<path d="M54873 35678
L54873 35284
L54742 35565
L54611 35284
L54611 35678
" />
<path d="M54778 34646
L54909 34459
" />
<path d="M55003 34646
L55003 34252
L54853 34252
L54816 34271
L54797 34290
L54778 34327
L54778 34384
L54797 34421
L54816 34440
L54853 34459
L55003 34459
" />
<path d="M54666 34252
L54534 34646
L54403 34252
" />
<path d="M54103 34384
L54103 34646
" />
<path d="M54197 34234
L54291 34515
L54047 34515
" />
</g> 
</svg>
