<?xml version="1.0" standalone="no"?>
 <!DOCTYPE svg PUBLIC "-//W3C//DTD SVG 1.1//EN" 
 "http://www.w3.org/Graphics/SVG/1.1/DTD/svg11.dtd"> 
<svg xmlns="http://www.w3.org/2000/svg" version="1.1" 
    width="15.2578cm" height="6.87578cm" viewBox="0 0 60070 27070 ">
<title>SVG Picture created as reverb-B.SilkS.svg date 2020/12/13 15:27:29 </title>
  <desc>Picture generated by PCBNEW </desc>
<g style="fill:#000000; fill-opacity:1;stroke:#000000; stroke-opacity:1;
stroke-linecap:round; stroke-linejoin:round; "
 transform="translate(0 0) scale(1 1)">
</g>
<g style="fill:#000000; fill-opacity:0.0; 
stroke:#000000; stroke-width:-0.000393701; stroke-opacity:1; 
stroke-linecap:round; stroke-linejoin:round;">
</g>
<g style="fill:#000000; fill-opacity:0.0; 
stroke:#000000; stroke-width:78.7402; stroke-opacity:1; 
stroke-linecap:round; stroke-linejoin:round;">
<path d="M39 27039
L39 39
" />
<path d="M60039 27039
L39 27039
" />
<path d="M60039 39
L60039 27039
" />
<path d="M39 39
L60039 39
" />
</g>
<g style="fill:#000000; fill-opacity:0.0; 
stroke:#000000; stroke-width:47.2441; stroke-opacity:1; 
stroke-linecap:round; stroke-linejoin:round;">
<path d="M36204 25645
L37874 25645
" />
<path d="M36204 21708
L37874 21708
" />
<path d="M37874 21708
L37874 25645
" />
<path d="M36204 21708
L36204 25645
" />
<path d="M35614 21708
L38464 21708
" />
<path d="M35614 19740
L38464 19740
" />
<path d="M38464 19740
L38464 21708
" />
<path d="M35614 19740
L35614 21708
" />
<path d="M33842 19740
L40236 19740
" />
<path d="M33842 16692
L40236 16692
" />
<path d="M40236 16692
L40236 19740
" />
<path d="M33842 16692
L33842 19740
" />
</g>
<g style="fill:#000000; fill-opacity:0.0; 
stroke:#000000; stroke-width:59.0551; stroke-opacity:1; 
stroke-linecap:round; stroke-linejoin:round;">
<path d="M33575 18868
L33388 18736
" />
<path d="M33575 18643
L33182 18643
L33182 18793
L33200 18830
L33219 18849
L33257 18868
L33313 18868
L33350 18849
L33369 18830
L33388 18793
L33388 18643
" />
<path d="M33182 18980
L33575 19111
L33182 19242
" />
<path d="M33575 19580
L33575 19355
" />
<path d="M33575 19467
L33182 19467
L33238 19430
L33275 19392
L33294 19355
" />
</g> 
</svg>
